<svg xmlns="http://www.w3.org/2000/svg" width="65" height="65" viewBox="0 0 65 65">
  <g id="Grupo_1099852" data-name="Grupo 1099852" transform="translate(-205 -1596)">
    <g id="Grupo_1099849" data-name="Grupo 1099849" transform="translate(205 1596)">
      <g id="Trazado_875895" data-name="Trazado 875895" fill="#dbe7fc">
        <path d="M 32.5 64 C 28.24563980102539 64 24.11918067932129 63.17673110961914 20.2352294921875 61.55305862426758 C 16.48403930664062 59.98488998413086 13.11509037017822 57.73989105224609 10.22198963165283 54.88042831420898 C 7.329699993133545 52.02177047729492 5.059130191802979 48.69342041015625 3.47337007522583 44.98785018920898 C 1.832159996032715 41.1527214050293 1 37.07835006713867 1 32.87791061401367 L 1 32.12208938598633 C 1 27.92164993286133 1.832159996032715 23.84728050231934 3.47337007522583 20.01214981079102 C 5.059130191802979 16.30657958984375 7.329699993133545 12.97823047637939 10.22198963165283 10.11956977844238 C 13.11509037017822 7.260109901428223 16.48403930664062 5.015110015869141 20.2352294921875 3.446939945220947 C 24.11918067932129 1.823269963264465 28.24563980102539 1 32.5 1 C 36.75436019897461 1 40.88082122802734 1.823269963264465 44.7647705078125 3.446939945220947 C 48.51596832275391 5.015110015869141 51.88491058349609 7.260109901428223 54.77801132202148 10.11956977844238 C 57.67031097412109 12.97823047637939 59.94086837768555 16.30657958984375 61.52663040161133 20.01214981079102 C 63.16783905029297 23.84728050231934 64 27.92164993286133 64 32.12208938598633 L 64 32.87791061401367 C 64 37.07835006713867 63.16783905029297 41.1527214050293 61.52663040161133 44.98785018920898 C 59.94086837768555 48.69342041015625 57.67031097412109 52.02177047729492 54.77801132202148 54.88042831420898 C 51.88491058349609 57.73989105224609 48.51596832275391 59.98488998413086 44.7647705078125 61.55305862426758 C 40.88082122802734 63.17673110961914 36.75436019897461 64 32.5 64 Z" stroke="none"/>
        <path d="M 32.5 2 C 28.37876129150391 2 24.38206100463867 2.7972412109375 20.62092971801758 4.369560241699219 C 16.98860931396484 5.888038635253906 13.72640991210938 8.061908721923828 10.92494964599609 10.8307991027832 C 8.125099182128906 13.59809112548828 5.927341461181641 16.81951141357422 4.392719268798828 20.40557861328125 C 2.805030822753906 24.11566162109375 2 28.05765914916992 2 32.12208938598633 L 2 32.87791061401367 C 2 36.94234085083008 2.805030822753906 40.88433837890625 4.392719268798828 44.59442138671875 C 5.927341461181641 48.18048858642578 8.125099182128906 51.40190887451172 10.92494964599609 54.1692008972168 C 13.72640991210938 56.93809127807617 16.98860931396484 59.11196136474609 20.62092971801758 60.63043975830078 C 24.38206100463867 62.2027587890625 28.37876129150391 63 32.5 63 C 36.62123870849609 63 40.61794281005859 62.2027587890625 44.37907028198242 60.63043975830078 C 48.01139068603516 59.11196136474609 51.27359008789062 56.93809127807617 54.07505035400391 54.1692008972168 C 56.87490081787109 51.40190887451172 59.07265853881836 48.18048858642578 60.60728073120117 44.59442138671875 C 62.19496917724609 40.88433837890625 63 36.94234085083008 63 32.87791061401367 L 63 32.12208938598633 C 63 28.05765914916992 62.19496917724609 24.11566162109375 60.60728073120117 20.40557861328125 C 59.07265853881836 16.81951141357422 56.87490081787109 13.59809112548828 54.07505035400391 10.8307991027832 C 51.27359008789062 8.061908721923828 48.01139068603516 5.888038635253906 44.37907028198242 4.369560241699219 C 40.61794281005859 2.7972412109375 36.62123870849609 2 32.5 2 M 32.5 0 C 50.44926071166992 0 65 14.38154983520508 65 32.12208938598633 L 65 32.87791061401367 C 65 50.61845016479492 50.44926071166992 65 32.5 65 C 14.55073928833008 65 0 50.61845016479492 0 32.87791061401367 L 0 32.12208938598633 C 0 14.38154983520508 14.55073928833008 0 32.5 0 Z" stroke="none" fill="#0d5d91"/>
      </g>
    </g>
    <g id="Grupo_1099848" data-name="Grupo 1099848" transform="translate(212.079 1603.079)">
      <path id="Trazado_875974" data-name="Trazado 875974" d="M383.369,376.7a4.9,4.9,0,0,1,.164,4.974,4.979,4.979,0,0,1-7.9,1.164q-.144-.144-.274-.3l-4.222-4.851,6.376-6.376,4.846,4.227A5.262,5.262,0,0,1,383.369,376.7Z" transform="translate(-334.274 -334.428)" fill="#91552c"/>
      <path id="Trazado_875975" data-name="Trazado 875975" d="M353.8,347.576l-6.376,6.376-2.615-3.005.018-.016,5.969-5.969,0,0Z" transform="translate(-310.559 -310.696)" fill="#57555c"/>
      <path id="Trazado_875976" data-name="Trazado 875976" d="M193.214,19.3A2.98,2.98,0,1,1,189,23.516l-8.428-8.428a2.98,2.98,0,1,1,4.214-4.213Z" transform="translate(-161.852 -9.008)" fill="#91552c"/>
      <path id="Trazado_875977" data-name="Trazado 875977" d="M76.612,63.973l-3.493,3.493-.019.018L67.481,73.1l-.018.019L63.97,76.615l-.7-.7-8.428-8.428-.7-.7L66.779,54.14l.7.7,8.428,8.428Z" transform="translate(-48.76 -48.763)" fill="#feb756"/>
      <g id="Grupo_1099847" data-name="Grupo 1099847" transform="translate(0.993 17.849)">
        <path id="Trazado_875978" data-name="Trazado 875978" d="M190.931,186.721l.7-.7a1.987,1.987,0,0,0-2.791-2.828l-5.655,5.655a1.987,1.987,0,0,0,2.828,2.791l.7-.7,12.015,13.8.018-.016,5.969-5.969,0,0Z" transform="translate(-165.477 -182.337)" fill="#91552c"/>
        <path id="Trazado_875979" data-name="Trazado 875979" d="M35.824,455.957v.993H10v-.993a3.973,3.973,0,0,1,3.973-3.973H31.851A3.973,3.973,0,0,1,35.824,455.957Z" transform="translate(-10 -424.94)" fill="#91552c"/>
        <path id="Trazado_875980" data-name="Trazado 875980" d="M49.367,401.987a2.483,2.483,0,1,1,0,4.966H32.482a2.483,2.483,0,1,1,0-4.966Z" transform="translate(-28.013 -379.909)" fill="#91552c"/>
        <path id="Trazado_875981" data-name="Trazado 875981" d="M23.515,189.006a2.98,2.98,0,1,1-4.214,4.213l-8.427-8.427a2.98,2.98,0,0,1,4.213-4.214Z" transform="translate(-10 -179.705)" fill="#91552c"/>
      </g>
      <path id="Trazado_875982" data-name="Trazado 875982" d="M100.995,171.711a.993.993,0,1,0,1.4,0A.992.992,0,0,0,100.995,171.711Z" transform="translate(-90.701 -154.394)"/>
      <path id="Trazado_875983" data-name="Trazado 875983" d="M25.149,397.522a3.477,3.477,0,0,0-2.8-5.535H5.463a3.474,3.474,0,0,0-2.8,5.534A4.97,4.97,0,0,0,0,401.919v.993a.993.993,0,0,0,.993.993H26.817a.993.993,0,0,0,.993-.993v-.993A4.97,4.97,0,0,0,25.149,397.522Zm-20.74-3.113a1.48,1.48,0,0,1,1.054-.436H22.347a1.49,1.49,0,1,1,0,2.98H5.463a1.49,1.49,0,0,1-1.054-2.544Zm-2.423,7.51a2.983,2.983,0,0,1,2.98-2.98H22.844a2.983,2.983,0,0,1,2.98,2.98Z" transform="translate(0 -353.053)"/>
      <path id="Trazado_875984" data-name="Trazado 875984" d="M49.949,41.73a6.254,6.254,0,0,0-1.2-1.374l-4.641-4.048a.986.986,0,0,0-.4-.345L40.91,33.516,27.919,22.184a2.974,2.974,0,0,0-.872-4.744l1.2-1.2a3.975,3.975,0,0,0,3.835-1.027,3.972,3.972,0,0,0,0-5.619L23.656,1.165A3.971,3.971,0,0,0,17.011,5L5.02,16.991a4,4,0,0,0-1.028-.135,3.972,3.972,0,0,0-2.809,6.782L9.61,32.066a3.972,3.972,0,0,0,6.646-3.835l1.2-1.2A2.98,2.98,0,0,0,22.2,27.9L36.037,43.8a1,1,0,0,0,.135.168c.018.018.037.034.055.05l4.123,4.737c.1.121.212.24.326.354a5.908,5.908,0,0,0,4.2,1.746,6.1,6.1,0,0,0,.836-.058,6.01,6.01,0,0,0,4.434-3.07A5.877,5.877,0,0,0,49.949,41.73ZM35.626,40.3,40.3,35.622l1.5,1.309L36.933,41.8ZM23.61,26.5l2.9-2.9L38.8,34.313,34.318,38.8ZM19.442,2.57a1.986,1.986,0,0,1,2.809,0L30.679,11a1.986,1.986,0,0,1-2.809,2.81L19.443,5.379h0A1.988,1.988,0,0,1,19.442,2.57ZM13.825,30.662a1.989,1.989,0,0,1-2.81,0L2.587,22.234A1.986,1.986,0,0,1,5.4,19.424l8.429,8.429A1.988,1.988,0,0,1,13.825,30.662ZM6.8,18.02,18.038,6.783l8.428,8.428-2.782,2.782-.027.026-5.616,5.616-.034.035-2.777,2.777Zm13.344,8.719a.993.993,0,0,1-.714-1.683l5.642-5.642a.993.993,0,0,1,1.685.713.984.984,0,0,1-.291.7l-.7.7-.014.014-4.2,4.2-.006.006-.7.7A.987.987,0,0,1,20.145,26.739ZM48.412,46.757a4.04,4.04,0,0,1-2.973,2.073A3.946,3.946,0,0,1,42.081,47.7c-.076-.076-.149-.156-.218-.236l-.01-.011L38.24,43.3,43.3,38.24l4.147,3.617.01.008a4.276,4.276,0,0,1,.82.943A3.922,3.922,0,0,1,48.412,46.757Z" transform="translate(-0.019 -0.001)"/>
      <path id="Trazado_875985" data-name="Trazado 875985" d="M134.895,101a.993.993,0,0,0-1.4,0l-4.214,4.214a.993.993,0,0,0,1.4,1.4l4.214-4.214A.993.993,0,0,0,134.895,101Z" transform="translate(-116.174 -90.705)"/>
    </g>
  </g>
</svg>
