<svg xmlns="http://www.w3.org/2000/svg" width="65" height="65" viewBox="0 0 65 65">
  <g id="Grupo_1099851" data-name="Grupo 1099851" transform="translate(-205 -1796)">
    <g id="Trazado_875895" data-name="Trazado 875895" transform="translate(205 1796)" fill="#dbe7fc">
      <path d="M 32.5 64 C 28.24563980102539 64 24.11918067932129 63.17673110961914 20.2352294921875 61.55305862426758 C 16.48403930664062 59.98488998413086 13.11509037017822 57.73989105224609 10.22198963165283 54.88042831420898 C 7.329699993133545 52.02177047729492 5.059130191802979 48.69342041015625 3.47337007522583 44.98785018920898 C 1.832159996032715 41.1527214050293 1 37.07835006713867 1 32.87791061401367 L 1 32.12208938598633 C 1 27.92164993286133 1.832159996032715 23.84728050231934 3.47337007522583 20.01214981079102 C 5.059130191802979 16.30657958984375 7.329699993133545 12.97823047637939 10.22198963165283 10.11956977844238 C 13.11509037017822 7.260109901428223 16.48403930664062 5.015110015869141 20.2352294921875 3.446939945220947 C 24.11918067932129 1.823269963264465 28.24563980102539 1 32.5 1 C 36.75436019897461 1 40.88082122802734 1.823269963264465 44.7647705078125 3.446939945220947 C 48.51596832275391 5.015110015869141 51.88491058349609 7.260109901428223 54.77801132202148 10.11956977844238 C 57.67031097412109 12.97823047637939 59.94086837768555 16.30657958984375 61.52663040161133 20.01214981079102 C 63.16783905029297 23.84728050231934 64 27.92164993286133 64 32.12208938598633 L 64 32.87791061401367 C 64 37.07835006713867 63.16783905029297 41.1527214050293 61.52663040161133 44.98785018920898 C 59.94086837768555 48.69342041015625 57.67031097412109 52.02177047729492 54.77801132202148 54.88042831420898 C 51.88491058349609 57.73989105224609 48.51596832275391 59.98488998413086 44.7647705078125 61.55305862426758 C 40.88082122802734 63.17673110961914 36.75436019897461 64 32.5 64 Z" stroke="none"/>
      <path d="M 32.5 2 C 28.37876129150391 2 24.38206100463867 2.7972412109375 20.62092971801758 4.369560241699219 C 16.98860931396484 5.888038635253906 13.72640991210938 8.061908721923828 10.92494964599609 10.8307991027832 C 8.125099182128906 13.59809112548828 5.927341461181641 16.81951141357422 4.392719268798828 20.40557861328125 C 2.805030822753906 24.11566162109375 2 28.05765914916992 2 32.12208938598633 L 2 32.87791061401367 C 2 36.94234085083008 2.805030822753906 40.88433837890625 4.392719268798828 44.59442138671875 C 5.927341461181641 48.18048858642578 8.125099182128906 51.40190887451172 10.92494964599609 54.1692008972168 C 13.72640991210938 56.93809127807617 16.98860931396484 59.11196136474609 20.62092971801758 60.63043975830078 C 24.38206100463867 62.2027587890625 28.37876129150391 63 32.5 63 C 36.62123870849609 63 40.61794281005859 62.2027587890625 44.37907028198242 60.63043975830078 C 48.01139068603516 59.11196136474609 51.27359008789062 56.93809127807617 54.07505035400391 54.1692008972168 C 56.87490081787109 51.40190887451172 59.07265853881836 48.18048858642578 60.60728073120117 44.59442138671875 C 62.19496917724609 40.88433837890625 63 36.94234085083008 63 32.87791061401367 L 63 32.12208938598633 C 63 28.05765914916992 62.19496917724609 24.11566162109375 60.60728073120117 20.40557861328125 C 59.07265853881836 16.81951141357422 56.87490081787109 13.59809112548828 54.07505035400391 10.8307991027832 C 51.27359008789062 8.061908721923828 48.01139068603516 5.888038635253906 44.37907028198242 4.369560241699219 C 40.61794281005859 2.7972412109375 36.62123870849609 2 32.5 2 M 32.5 0 C 50.44926071166992 0 65 14.38154983520508 65 32.12208938598633 L 65 32.87791061401367 C 65 50.61845016479492 50.44926071166992 65 32.5 65 C 14.55073928833008 65 0 50.61845016479492 0 32.87791061401367 L 0 32.12208938598633 C 0 14.38154983520508 14.55073928833008 0 32.5 0 Z" stroke="none" fill="#0d5d91"/>
    </g>
    <g id="Grupo_1099850" data-name="Grupo 1099850" transform="translate(208.25 1799.25)">
      <path id="Trazado_875986" data-name="Trazado 875986" d="M64.667,13.354H60.458l-.43-2.919a2.562,2.562,0,1,1,5.069,0Z" transform="translate(-53.167 -6.646)" fill="#f57d47"/>
      <path id="Trazado_875987" data-name="Trazado 875987" d="M67.4,44.335H64.49l-.648-4.4a2.127,2.127,0,1,1,4.209,0Z" transform="translate(-56.55 -33.229)" fill="#f89a4f"/>
      <path id="Trazado_875988" data-name="Trazado 875988" d="M411.667,13.354h-4.209l-.43-2.919a2.562,2.562,0,1,1,5.069,0Z" transform="translate(-360.647 -6.646)" fill="#f57d47"/>
      <path id="Trazado_875989" data-name="Trazado 875989" d="M414.4,44.335H411.49l-.648-4.4a2.127,2.127,0,1,1,4.209,0Z" transform="translate(-364.031 -33.229)" fill="#f89a4f"/>
      <path id="Trazado_875990" data-name="Trazado 875990" d="M64.667,453.1H60.458l-.43,2.919a2.562,2.562,0,1,0,5.069,0Z" transform="translate(-53.167 -401.496)" fill="#f57d47"/>
      <path id="Trazado_875991" data-name="Trazado 875991" d="M67.4,414.484H64.49l-.648,4.4a2.127,2.127,0,1,0,4.209,0Z" transform="translate(-56.55 -367.279)" fill="#f89a4f"/>
      <path id="Trazado_875992" data-name="Trazado 875992" d="M411.667,453.1h-4.209l-.43,2.919a2.562,2.562,0,1,0,5.069,0Z" transform="translate(-360.647 -401.496)" fill="#f57d47"/>
      <path id="Trazado_875993" data-name="Trazado 875993" d="M414.4,414.484H411.49l-.648,4.4a2.127,2.127,0,1,0,4.209,0Z" transform="translate(-364.031 -367.279)" fill="#f89a4f"/>
      <path id="Trazado_875994" data-name="Trazado 875994" d="M432.917,389.625H429.5V384.5l3.417,1.708a1.708,1.708,0,0,1,0,3.417Z" transform="translate(-380.584 -340.709)" fill="#fdd56f"/>
      <path id="Trazado_875995" data-name="Trazado 875995" d="M389.625,389.625h-3.417a1.708,1.708,0,1,1,0-3.417l3.417-1.708v1.708a1.708,1.708,0,1,1,0,3.417Z" transform="translate(-340.709 -340.709)" fill="#fff07e"/>
      <path id="Trazado_875996" data-name="Trazado 875996" d="M85.917,389.625H82.5V384.5l3.417,1.708a1.708,1.708,0,1,1,0,3.417Z" transform="translate(-73.104 -340.709)" fill="#fdd56f"/>
      <path id="Trazado_875997" data-name="Trazado 875997" d="M42.625,389.625H39.208a1.708,1.708,0,1,1,0-3.417l3.417-1.708v1.708a1.708,1.708,0,1,1,0,3.417Z" transform="translate(-33.229 -340.709)" fill="#fff07e"/>
      <path id="Trazado_875998" data-name="Trazado 875998" d="M432.917,82.5H429.5v5.125l3.417-1.708a1.708,1.708,0,0,0,0-3.417Z" transform="translate(-380.584 -73.104)" fill="#fdd56f"/>
      <path id="Trazado_875999" data-name="Trazado 875999" d="M389.625,82.5h-3.417a1.708,1.708,0,1,0,0,3.417l3.417,1.708V85.917a1.708,1.708,0,1,0,0-3.417Z" transform="translate(-340.709 -73.104)" fill="#fff07e"/>
      <path id="Trazado_876000" data-name="Trazado 876000" d="M85.917,82.5H82.5v5.125l3.417-1.708a1.708,1.708,0,0,0,0-3.417Z" transform="translate(-73.104 -73.104)" fill="#fdd56f"/>
      <path id="Trazado_876001" data-name="Trazado 876001" d="M42.625,82.5H39.208a1.708,1.708,0,1,0,0,3.417l3.417,1.708V85.917a1.708,1.708,0,1,0,0-3.417Z" transform="translate(-33.229 -73.104)" fill="#fff07e"/>
      <path id="Trazado_876002" data-name="Trazado 876002" d="M125.261,142.5a3.712,3.712,0,0,0-2.625,1.087l-.621.621-.621-.621a3.712,3.712,0,0,0-2.625-1.087H97.5v25.853h8.342a3.712,3.712,0,0,0,2.625-1.087l.621-.621.621.621a3.712,3.712,0,0,0,2.625,1.087H133.6V142.5Z" transform="translate(-86.396 -126.271)" fill="#f2f2f2"/>
      <path id="Trazado_876003" data-name="Trazado 876003" d="M82.5,127.5h5.125v29.27H82.5Z" transform="translate(-73.104 -112.979)" fill="#c5c6ce"/>
      <path id="Trazado_876004" data-name="Trazado 876004" d="M37.5,127.5h6.833v29.27H37.5Z" transform="translate(-33.229 -112.979)" fill="#dedede"/>
      <path id="Trazado_876005" data-name="Trazado 876005" d="M429.5,127.5h5.125v29.27H429.5Z" transform="translate(-380.584 -112.979)" fill="#c5c6ce"/>
      <path id="Trazado_876006" data-name="Trazado 876006" d="M384.5,127.5h6.833v29.27H384.5Z" transform="translate(-340.709 -112.979)" fill="#dedede"/>
      <path id="Trazado_876007" data-name="Trazado 876007" d="M447.917,112.5l-3.417,3.417h3.417a3.417,3.417,0,0,0,3.417-3.417Z" transform="translate(-393.876 -99.687)" fill="#f89a4f"/>
      <path id="Trazado_876008" data-name="Trazado 876008" d="M354.5,112.5a3.417,3.417,0,0,0,3.417,3.417h6.833a3.417,3.417,0,0,0,3.417-3.417Z" transform="translate(-314.126 -99.687)" fill="#fab85f"/>
      <path id="Trazado_876009" data-name="Trazado 876009" d="M100.917,112.5,97.5,115.917h3.417a3.417,3.417,0,0,0,3.417-3.417Z" transform="translate(-86.396 -99.687)" fill="#f89a4f"/>
      <path id="Trazado_876010" data-name="Trazado 876010" d="M7.5,112.5a3.417,3.417,0,0,0,3.417,3.417H17.75a3.417,3.417,0,0,0,3.417-3.417Z" transform="translate(-6.646 -99.687)" fill="#fab85f"/>
      <path id="Trazado_876011" data-name="Trazado 876011" d="M447.917,372.917,444.5,369.5h3.417a3.417,3.417,0,0,1,3.417,3.417Z" transform="translate(-393.876 -327.418)" fill="#f89a4f"/>
      <path id="Trazado_876012" data-name="Trazado 876012" d="M354.5,372.917a3.417,3.417,0,0,1,3.417-3.417h6.833a3.417,3.417,0,0,1,3.417,3.417Z" transform="translate(-314.126 -327.418)" fill="#fab85f"/>
      <path id="Trazado_876013" data-name="Trazado 876013" d="M100.917,372.917,97.5,369.5h3.417a3.417,3.417,0,0,1,3.417,3.417Z" transform="translate(-86.396 -327.418)" fill="#f89a4f"/>
      <path id="Trazado_876014" data-name="Trazado 876014" d="M7.5,372.917a3.417,3.417,0,0,1,3.417-3.417H17.75a3.417,3.417,0,0,1,3.417,3.417Z" transform="translate(-6.646 -327.418)" fill="#fab85f"/>
      <path id="Trazado_876015" data-name="Trazado 876015" d="M200.588,282.75,199.25,287.5A4.755,4.755,0,0,0,204,282.75Z" transform="translate(-176.557 -250.548)" fill="#aaacbc"/>
      <path id="Trazado_876016" data-name="Trazado 876016" d="M157.5,282.75a4.755,4.755,0,0,0,4.755,4.755c.739,0,1.338-2.129,1.338-4.755Z" transform="translate(-139.562 -250.548)" fill="#c5c6ce"/>
      <path id="Trazado_876017" data-name="Trazado 876017" d="M314.088,282.75,312.75,287.5a4.755,4.755,0,0,0,4.755-4.755Z" transform="translate(-277.131 -250.548)" fill="#aaacbc"/>
      <path id="Trazado_876018" data-name="Trazado 876018" d="M271,282.75a4.755,4.755,0,0,0,4.755,4.755c.739,0,1.338-2.129,1.338-4.755Z" transform="translate(-240.136 -250.548)" fill="#c5c6ce"/>
      <path id="Trazado_876019" data-name="Trazado 876019" d="M54.895,41.314V36.957a.854.854,0,0,0-1.708,0v4.271H44.645V17.083h8.542V33.541a.854.854,0,1,0,1.708,0V17a4.278,4.278,0,0,0,3.417-4.185.854.854,0,0,0-.854-.854H54.748a2.562,2.562,0,0,0-2.416-3.417h-.719L52.3,3.914a3.416,3.416,0,1,0-6.759,0l.682,4.628H45.5a2.562,2.562,0,0,0-2.416,3.417H40.374a.854.854,0,0,0-.854.854,4.249,4.249,0,0,0,.856,2.563H38.865a4.536,4.536,0,0,0-3.229,1.337l-.017.017-.017-.017a4.536,4.536,0,0,0-3.229-1.337H17.936a4.249,4.249,0,0,0,.856-2.563.854.854,0,0,0-.854-.854H15.228a2.562,2.562,0,0,0-2.416-3.417h-.719l.682-4.628a3.416,3.416,0,1,0-6.759,0L6.7,8.542H5.979a2.562,2.562,0,0,0-2.416,3.417H.854A.854.854,0,0,0,0,12.813,4.278,4.278,0,0,0,3.417,17v4.357a.854.854,0,0,0,1.708,0V17.083h8.542V41.228H5.125V24.771a.854.854,0,0,0-1.708,0V41.314A4.278,4.278,0,0,0,0,45.5a.854.854,0,0,0,.854.854H3.564A2.562,2.562,0,0,0,5.979,49.77H6.7L6.016,54.4a3.416,3.416,0,1,0,6.759,0l-.682-4.628h.719a2.562,2.562,0,0,0,2.416-3.417h2.709a.854.854,0,0,0,.854-.854,4.249,4.249,0,0,0-.856-2.563h1.511A4.536,4.536,0,0,0,22.675,41.6l.017-.017.017.017a4.536,4.536,0,0,0,3.229,1.337H40.376A4.249,4.249,0,0,0,39.52,45.5a.854.854,0,0,0,.854.854h2.709A2.562,2.562,0,0,0,45.5,49.77h.719L45.536,54.4a3.416,3.416,0,1,0,6.759,0l-.682-4.628h.719a2.562,2.562,0,0,0,2.416-3.417h2.709a.854.854,0,0,0,.854-.854A4.278,4.278,0,0,0,54.895,41.314ZM47.623,2.3a1.708,1.708,0,0,1,2.982,1.365l-.719,4.877H47.945l-.719-4.877a1.705,1.705,0,0,1,.4-1.365ZM45.5,10.25h6.833a.854.854,0,0,1,0,1.708H45.5a.854.854,0,0,1,0-1.708Zm10.958,3.417a2.567,2.567,0,0,1-2.416,1.708H43.791a2.567,2.567,0,0,1-2.416-1.708ZM8.1,2.3a1.708,1.708,0,0,1,2.982,1.365l-.719,4.877H8.425L7.706,3.665A1.706,1.706,0,0,1,8.1,2.3ZM5.979,10.25h6.833a.854.854,0,1,1,0,1.708H5.979a.854.854,0,1,1,0-1.708ZM4.271,15.375a2.567,2.567,0,0,1-2.416-1.708H16.937a2.567,2.567,0,0,1-2.416,1.708Zm6.418,40.636a1.708,1.708,0,0,1-2.982-1.365l.719-4.877h1.942l.719,4.877a1.706,1.706,0,0,1-.4,1.365Zm2.124-7.95H5.979a.854.854,0,1,1,0-1.708h6.833a.854.854,0,1,1,0,1.708ZM1.855,44.645a2.567,2.567,0,0,1,2.416-1.708h10.25a2.567,2.567,0,0,1,2.416,1.708Zm24.084-3.417a2.839,2.839,0,0,1-2.021-.837L23.3,39.77a.854.854,0,0,0-1.208,0l-.621.621a2.839,2.839,0,0,1-2.021.837H15.375V17.083h17a2.839,2.839,0,0,1,2.021.837l.621.621a.854.854,0,0,0,1.208,0l.621-.621a2.839,2.839,0,0,1,2.021-.837h4.072V41.228Zm24.27,14.783a1.708,1.708,0,0,1-2.982-1.365l.719-4.877h1.942l.719,4.877a1.705,1.705,0,0,1-.4,1.365Zm2.124-7.95H45.5a.854.854,0,0,1,0-1.708h6.833a.854.854,0,1,1,0,1.708ZM41.374,44.645a2.567,2.567,0,0,1,2.416-1.708h10.25a2.567,2.567,0,0,1,2.416,1.708Z" transform="translate(0 0)"/>
      <path id="Trazado_876020" data-name="Trazado 876020" d="M169.318,180.511a.854.854,0,0,0-.782-.511H155.609a.854.854,0,0,0-.782.511l-4.755,10.848a.854.854,0,0,0-.072.343,5.609,5.609,0,0,0,11.218,0,.854.854,0,0,0-.072-.343l-4.23-9.651h10.312L163,191.359a.854.854,0,0,0-.072.343,5.609,5.609,0,0,0,11.218,0,.854.854,0,0,0-.072-.343ZM155.609,195.6a3.907,3.907,0,0,1-3.805-3.047h7.611A3.907,3.907,0,0,1,155.609,195.6Zm3.448-4.755h-6.9l3.448-7.866Zm9.479-7.866,3.448,7.866h-6.9Zm0,12.621a3.907,3.907,0,0,1-3.805-3.047h7.611A3.907,3.907,0,0,1,168.536,195.6Z" transform="translate(-132.917 -159.5)"/>
    </g>
  </g>
</svg>
