<svg xmlns="http://www.w3.org/2000/svg" width="120" height="121.025" viewBox="0 0 120 121.025">
  <g id="Grupo_1099788" data-name="Grupo 1099788" transform="translate(-452.787 -6334.973)">
    <rect id="Rectángulo_401794" data-name="Rectángulo 401794" width="120" height="121.025" rx="59" transform="translate(452.787 6334.973)" fill="#f5e9a1"/>
    <g id="Grupo_1099787" data-name="Grupo 1099787" transform="translate(479.731 6356.1)">
      <path id="Trazado_875856" data-name="Trazado 875856" d="M47,12.464h5v10.38H47Z" transform="translate(5.514 1.87)" fill="#955a21"/>
      <path id="Trazado_875857" data-name="Trazado 875857" d="M14.421,47.675A4.421,4.421,0,0,1,11.3,40.128l9.958-9.958,12.5-2.5V24.326h7.5v3.343l12.5,2.5,5,17.5Z" transform="translate(-3.748 4.839)" fill="#5a5b5d"/>
      <path id="Trazado_875858" data-name="Trazado 875858" d="M48.507,30.758l-1.367-15.71-.268-3.081A10.91,10.91,0,0,0,36,2H33.5a10.908,10.908,0,0,0-10.868,9.965l-.267,3.082L21,30.758Z" transform="translate(-0.995 -0.749)" fill="#955a21"/>
      <path id="Trazado_875859" data-name="Trazado 875859" d="M46.39,15.047l-.268-3.081A10.91,10.91,0,0,0,35.253,2h-2.5a10.878,10.878,0,0,0-4.016.764,10.862,10.862,0,0,0-3.1,6.7l-.268,3.083L24,28.257H47.539Z" transform="translate(-0.244 -0.749)" fill="#ab692a"/>
      <path id="Trazado_875860" data-name="Trazado 875860" d="M42.5,20.253a8.752,8.752,0,1,1-17.5,0V11.5h4.52A34.967,34.967,0,0,0,42.5,9Z" transform="translate(0.007 1.003)" fill="#deb2ae"/>
      <path id="Trazado_875861" data-name="Trazado 875861" d="M26,12H24.126a3.126,3.126,0,0,0,0,6.252H26" transform="translate(-0.995 1.754)" fill="#deb2ae"/>
      <path id="Trazado_875862" data-name="Trazado 875862" d="M39,12h1.875a3.126,3.126,0,0,1,0,6.252H39" transform="translate(3.511 1.754)" fill="#deb2ae"/>
      <path id="Trazado_875863" data-name="Trazado 875863" d="M8,47H68.016V67.005H8Z" transform="translate(-4.249 10.515)" fill="#ab692a"/>
      <g id="Grupo_1099786" data-name="Grupo 1099786" transform="translate(3.751 61.266)">
        <path id="Trazado_875864" data-name="Trazado 875864" d="M8,50H68.016v2.5H8Z" transform="translate(-8 -50)" fill="#b4b5b9"/>
        <path id="Trazado_875865" data-name="Trazado 875865" d="M26,65V55H41V65" transform="translate(-3.494 -48.748)" fill="#b4b5b9"/>
        <path id="Trazado_875866" data-name="Trazado 875866" d="M12,65V55H24.5V65" transform="translate(-6.999 -48.748)" fill="#b4b5b9"/>
        <path id="Trazado_875867" data-name="Trazado 875867" d="M42,65V55H54.5V65" transform="translate(0.511 -48.748)" fill="#b4b5b9"/>
      </g>
      <path id="Trazado_875868" data-name="Trazado 875868" d="M55,42.254V26H45V42.254a5,5,0,0,0,10,0Z" transform="translate(5.013 5.258)" fill="#424344"/>
      <path id="Trazado_875869" data-name="Trazado 875869" d="M46,27.5V23.751a3.751,3.751,0,0,1,7.5,0V27.5" transform="translate(5.264 3.756)" fill="#fbe2d9"/>
      <path id="Trazado_875870" data-name="Trazado 875870" d="M39.5,45.854,37.448,31.6H29.056L27,45.854Z" transform="translate(0.507 6.661)" fill="#dcdddf"/>
      <circle id="Elipse_11527" data-name="Elipse 11527" cx="5.218" cy="5.218" r="5.218" transform="translate(49.414 4.842)" fill="#dc8039"/>
      <circle id="Elipse_11528" data-name="Elipse 11528" cx="2.609" cy="2.609" r="2.609" transform="translate(52.023 7.451)" fill="#955a21"/>
      <path id="Trazado_875871" data-name="Trazado 875871" d="M30.928,27l3.751,7.5L21.3,28.927" transform="translate(-0.92 5.509)" fill="#b4b5b9"/>
      <path id="Trazado_875872" data-name="Trazado 875872" d="M35.751,27,32,34.5l13.382-5.574" transform="translate(1.759 5.509)" fill="#b4b5b9"/>
      <path id="Trazado_875873" data-name="Trazado 875873" d="M25,12.5V20a8.752,8.752,0,0,0,17.5,0V10A34.969,34.969,0,0,1,29.52,12.5Z" transform="translate(0.007 1.253)" fill="#fbe2d9"/>
      <path id="Trazado_875874" data-name="Trazado 875874" d="M36.5,24.32v3.351l-3.751,7.5L29,27.671V24.32A8.7,8.7,0,0,0,36.5,24.32Z" transform="translate(1.008 4.838)" fill="#deb2ae"/>
      <path id="Trazado_875875" data-name="Trazado 875875" d="M29,26.386v.768l3.751,7.5,3.751-7.5v-.768a9.548,9.548,0,0,1-7.5,0Z" transform="translate(1.008 5.355)" fill="#fbe2d9"/>
      <path id="Trazado_875876" data-name="Trazado 875876" d="M23,37h2.5a3.751,3.751,0,1,1,0,7.5H23" transform="translate(-0.494 8.012)" fill="#fbe2d9"/>
      <path id="Trazado_875877" data-name="Trazado 875877" d="M25.752,45h-2.5V37.5H17V35h7.5a1.25,1.25,0,0,1,1.25,1.25Z" transform="translate(-1.996 7.511)" fill="#77787c"/>
      <path id="Trazado_875878" data-name="Trazado 875878" d="M6,43H71.017v5H6Z" transform="translate(-4.75 9.514)" fill="#955a21"/>
      <path id="Trazado_875879" data-name="Trazado 875879" d="M10.5,45.5H70.517V43H8A2.5,2.5,0,0,0,10.5,45.5Z" transform="translate(-4.249 9.514)" fill="#ab692a"/>
      <path id="Trazado_875880" data-name="Trazado 875880" d="M6,43H71.017v5H6Z" transform="translate(-4.75 9.514)" fill="#955a21"/>
      <path id="Trazado_875881" data-name="Trazado 875881" d="M13,55H24.253v8.752H13Z" transform="translate(-2.997 12.518)" fill="#dcdddf"/>
      <path id="Trazado_875882" data-name="Trazado 875882" d="M27,55H40.754v8.752H27Z" transform="translate(0.507 12.518)" fill="#dcdddf"/>
      <path id="Trazado_875883" data-name="Trazado 875883" d="M43,55H54.253v8.752H43Z" transform="translate(4.513 12.518)" fill="#dcdddf"/>
      <path id="Trazado_875884" data-name="Trazado 875884" d="M70.017,78.52V59.766h1.25a1.25,1.25,0,0,0,1.25-1.25v-5a1.25,1.25,0,0,0-1.25-1.25H64.983a6.187,6.187,0,0,0,1.283-3.751V32.258a1.25,1.25,0,0,0-1.25-1.25v-2.5a4.955,4.955,0,0,0-1.25-3.276v-9.26a6.252,6.252,0,1,0-7.5,0v9.264a4.954,4.954,0,0,0-1.25,3.272v2.5a1.25,1.25,0,0,0-1.25,1.25v2.226l-10-2v-.225h8.752a1.25,1.25,0,0,0,1.25-1.359l-.9-10.378a4.311,4.311,0,0,0-.508-5.84l-.224-2.569A12.093,12.093,0,0,0,40.009,1h-2.5A12.089,12.089,0,0,0,25.4,12.105l-.224,2.572a4.311,4.311,0,0,0-.508,5.84L23.755,30.9a1.25,1.25,0,0,0,1.25,1.359h8.752v.226l-11.5,2.3a1.25,1.25,0,0,0-.639.341l-9.958,9.959a5.664,5.664,0,0,0-.685,7.179H6.25A1.25,1.25,0,0,0,5,53.514v5a1.25,1.25,0,0,0,1.25,1.25H7.5V78.52H10V64.767H67.517V78.52ZM56.264,48.513v-15h7.5v15a3.751,3.751,0,0,1-7.5,0ZM60.015,7.252A3.751,3.751,0,1,1,56.264,11,3.751,3.751,0,0,1,60.015,7.252Zm0,10a6.252,6.252,0,0,0,1.25-.125v6.555a5.011,5.011,0,0,0-1.25-.179,4.908,4.908,0,0,0-1.25.178V17.129A6.252,6.252,0,0,0,60.015,17.254Zm-2.5,11.253a2.5,2.5,0,0,1,5,0v2.5h-5ZM55.046,52.264H46.093L44.33,40.043l7.938-3.307,1.5.3V48.513A6.187,6.187,0,0,0,55.046,52.264Zm-26.289-5h1.25a2.5,2.5,0,1,1,0,5h-1.25Zm6.252,2.5a4.963,4.963,0,0,0-.411-1.977l.974-6.752,2.693,1.125h.01a1.232,1.232,0,0,0,.967,0h.01l2.693-1.125,1.625,11.228H34.316a4.95,4.95,0,0,0,.691-2.5Zm3.751-20.005a7.509,7.509,0,0,1-7.5-7.5v-7.5h3.27A36.036,36.036,0,0,0,46.261,12.8v9.455A7.509,7.509,0,0,1,38.759,29.758Zm0,2.5a9.944,9.944,0,0,0,2.5-.329v1.284l-2.5,5-2.5-5V31.929A9.944,9.944,0,0,0,38.759,32.258Zm9.116,3.6-6.49,2.706,1.82-3.641Zm-2.522-6.1a9.973,9.973,0,0,0,3.408-7.5h.625a4.292,4.292,0,0,0,1.1-.156l.665,7.658ZM48.762,16h.625a1.875,1.875,0,1,1,0,3.751h-.625ZM27.881,12.323A9.605,9.605,0,0,1,37.509,3.5h2.5a9.608,9.608,0,0,1,9.628,8.825l.105,1.213c-.121-.009-.23-.035-.355-.035h-.625V11a1.25,1.25,0,0,0-1.715-1.162,33.52,33.52,0,0,1-12.52,2.412h-4.52a1.25,1.25,0,0,0-1.25,1.25h-.625c-.125,0-.234.026-.351.035Zm.875,7.432h-.625a1.875,1.875,0,1,1,0-3.751h.625ZM27.035,22.1a4.292,4.292,0,0,0,1.1.156h.625a9.973,9.973,0,0,0,3.408,7.5h-5.8Zm7.282,12.822,1.817,3.641-6.5-2.706ZM12.5,49.094a3.151,3.151,0,0,1,.929-2.242l9.69-9.691,2.126-.425,7.938,3.307-.774,5.364a4.934,4.934,0,0,0-2.4-.645h-1.25a1.25,1.25,0,0,0-1.25-1.25H20v2.5h6.252v6.252H15.673a3.175,3.175,0,0,1-3.171-3.17Zm-5,5.67H70.017v2.5H7.5Zm2.5,7.5v-2.5H67.517v2.5Z" transform="translate(-5 -1)"/>
      <path id="Trazado_875885" data-name="Trazado 875885" d="M42.5,65.253v-10A1.25,1.25,0,0,0,41.254,54h-15A1.25,1.25,0,0,0,25,55.25v10h2.5V56.5H40v8.752Z" transform="translate(0.007 12.268)"/>
      <path id="Trazado_875886" data-name="Trazado 875886" d="M26,65.253v-10A1.25,1.25,0,0,0,24.754,54H12.25A1.25,1.25,0,0,0,11,55.25v10h2.5V56.5h10v8.752Z" transform="translate(-3.498 12.268)"/>
      <path id="Trazado_875887" data-name="Trazado 875887" d="M56,65.253v-10A1.25,1.25,0,0,0,54.754,54H42.25A1.25,1.25,0,0,0,41,55.25v10h2.5V56.5h10v8.752Z" transform="translate(4.012 12.268)"/>
    </g>
  </g>
</svg>
