<svg xmlns="http://www.w3.org/2000/svg" width="346.854" height="197.77" viewBox="0 0 346.854 197.77">
  <g id="Asset_1" data-name="Asset 1" transform="translate(-0.002 0.004)">
    <g id="Layer_2" transform="translate(0.002 -0.004)">
      <g id="Layer_1" transform="translate(0 0)">
        <g id="Grupo_1099713" data-name="Grupo 1099713">
          <path id="Trazado_875339" data-name="Trazado 875339" d="M8.477,197.01l321.893-.5c25.461-17.5,18.875-73.151-2.392-83.829-22.891-11.494-1.489-53.543-36.752-66.446-23.024-8.425-45.8,6.254-61.038-11.882C212.279,13.046,182.53-12.89,127.125,7.264,84.393,22.809,88.588,54.688,49.976,60.692,2.129,68.133,30.341,109.087,7.411,148.419c-16.827,28.863.137,48.17,1.066,48.591Z" transform="translate(-0.002 0.004)" fill="#ffe1c7"/>
          <circle id="Elipse_11524" data-name="Elipse 11524" cx="23.693" cy="23.693" r="23.693" transform="translate(134.18 39.326) rotate(-45)" fill="#8c453a"/>
          <circle id="Elipse_11525" data-name="Elipse 11525" cx="23.693" cy="23.693" r="23.693" transform="translate(132.134 39.325) rotate(-45)" fill="#b75742"/>
          <g id="Grupo_1099692" data-name="Grupo 1099692" transform="translate(87.746 4.612)">
            <path id="Trazado_875340" data-name="Trazado 875340" d="M754.59,653.027s2.509,61.393,0,74.775c0,0,24.423-17.062,26.43-37.3l-3.513-20.074L765.463,648.51Z" transform="translate(-752.136 -575.602)" fill="#a53728"/>
            <path id="Trazado_875341" data-name="Trazado 875341" d="M759.933,558.935h-9.368V415.74H747.22V558.935h-9.368a3.791,3.791,0,0,0-3.792,3.792h29.665A3.791,3.791,0,0,0,759.933,558.935Z" transform="translate(-734.06 -370.656)" fill="#0e293f"/>
            <g id="Grupo_1099691" data-name="Grupo 1099691" transform="translate(0.949 4.991)">
              <path id="Trazado_875342" data-name="Trazado 875342" d="M889.645,179.2s-.837,8.531,3.513,11.04c0,0-5.185-97.526-11.208-109.905l1,56.207,6.692,42.657Z" transform="translate(-865.221 -80.33)" fill="#e56a55"/>
              <path id="Trazado_875343" data-name="Trazado 875343" d="M753.542,80.34S742.5,139.057,742,154.112c0,0,11.542,2.509,24.423,25.093,0,0-5.353-90.835-7.694-98.864h-5.185Z" transform="translate(-742 -80.339)" fill="#f47458"/>
              <path id="Trazado_875344" data-name="Trazado 875344" d="M808.968,80.34h-1.262l-6.216,77.645a54.253,54.253,0,0,1,10.08,10.267c.16-26.593-2.009-75.189-2.6-87.912Z" transform="translate(-794.379 -80.339)" fill="#f47458" opacity="0.5"/>
            </g>
            <path id="Trazado_875345" data-name="Trazado 875345" d="M839.545,69.89h-5.061a.624.624,0,0,0,0,1.248h5.061a.624.624,0,0,0,0-1.248Z" transform="translate(-821.93 -66.147)" fill="#0e293f"/>
            <path id="Trazado_875346" data-name="Trazado 875346" d="M847.953,40.512a1.932,1.932,0,1,1-1.932-1.932A1.932,1.932,0,0,1,847.953,40.512Z" transform="translate(-830.938 -38.58)" fill="#0e293f"/>
          </g>
          <g id="Grupo_1099694" data-name="Grupo 1099694" transform="translate(208.893 4.612)">
            <path id="Trazado_875347" data-name="Trazado 875347" d="M1768.08,653.027s2.509,61.393,0,74.775c0,0,24.423-17.062,26.43-37.3L1791,670.424l-12.044-21.914Z" transform="translate(-1765.626 -575.602)" fill="#13375b"/>
            <path id="Trazado_875348" data-name="Trazado 875348" d="M1773.424,558.935h-9.368V415.74h-3.346V558.935h-9.368a3.791,3.791,0,0,0-3.792,3.792h29.665A3.791,3.791,0,0,0,1773.424,558.935Z" transform="translate(-1747.55 -370.656)" fill="#0e293f"/>
            <g id="Grupo_1099693" data-name="Grupo 1099693" transform="translate(0.948 4.991)">
              <path id="Trazado_875349" data-name="Trazado 875349" d="M1903.125,179.2s-.837,8.531,3.513,11.04c0,0-5.186-97.526-11.208-109.905l1,56.207,6.692,42.657Z" transform="translate(-1878.701 -80.33)" fill="#355389"/>
              <path id="Trazado_875350" data-name="Trazado 875350" d="M1767.022,80.34s-11.04,58.717-11.542,73.772c0,0,11.542,2.509,24.424,25.093,0,0-5.353-90.835-7.7-98.864h-5.186Z" transform="translate(-1755.48 -80.339)" fill="#466eb6"/>
              <path id="Trazado_875351" data-name="Trazado 875351" d="M1822.448,80.34h-1.262l-6.216,77.645a54.283,54.283,0,0,1,10.082,10.267c.16-26.593-2.009-75.189-2.6-87.912Z" transform="translate(-1807.859 -80.339)" fill="#466eb6" opacity="0.6"/>
            </g>
            <path id="Trazado_875352" data-name="Trazado 875352" d="M1853.035,69.89h-5.061a.624.624,0,1,0,0,1.248h5.061a.624.624,0,1,0,0-1.248Z" transform="translate(-1835.421 -66.147)" fill="#0e293f"/>
            <path id="Trazado_875353" data-name="Trazado 875353" d="M1861.443,40.512a1.932,1.932,0,1,1-1.932-1.932A1.932,1.932,0,0,1,1861.443,40.512Z" transform="translate(-1844.427 -38.58)" fill="#0e293f"/>
          </g>
          <g id="Grupo_1099696" data-name="Grupo 1099696" transform="translate(30.339 83.818)">
            <path id="Trazado_875354" data-name="Trazado 875354" d="M480.342,933.159c.18-.385-1.725-.907-1.787-1.322s2.494-.181,2.621-.526c.235-.635-2.783-.428-2.693-.727s3.193-.667,2.919-1.225-3.177.717-3.224.353,2.807-.942,2.839-1.727c.017-.42-4.752,1.607-5.25,1.326s.789-2.125.4-2.46-2.06,3.525-2.362,3.637-6.843,2.091-9.069,2.418c-.188-.753-1.861-4.9-2.021-5.609-1.307.74-2.97-.151-4.308.508.673,2.374,2.184,10.19,2.788,10.542,1.838,1.072,11.512-4.038,13.111-4.943s2.418-.473,3.461-.7,2.391.839,2.571.455Z" transform="translate(-433.953 -899.858)" fill="#f38b80"/>
            <path id="Trazado_875355" data-name="Trazado 875355" d="M435.593,1153.672a19.376,19.376,0,0,0-3.456-1.916c-.143-.069-.668-.4-.857-.52a6.641,6.641,0,0,1-1.375-1.217,6.858,6.858,0,0,1-.673-2.985c.227-2.518,3.878-42.918,4.647-47.292.795-4.515-.416-11.4-.416-11.4l-2.817-1.063-5.349,18.54.422,14.112a37.768,37.768,0,0,0-1.416,6.5c-.159,2.432,1.818,22.163,1.818,22.163h0a10.28,10.28,0,0,1-.106,1.743c-.145.738-.954,2.257-.583,2.951a1.86,1.86,0,0,0,.795.868l9.612.155c.524.009.178-.329-.245-.641Z" transform="translate(-403.915 -1041.13)" fill="#f48c7f"/>
            <path id="Trazado_875356" data-name="Trazado 875356" d="M290.836,1072.57s-3.337,5.035-4.132,9.2.583,16.974-.946,22.434c-.827,2.956-3.964,7.521-4.441,11.341s-2.136,14.845-2.136,14.845h0a9.739,9.739,0,0,1-1.155,3.255,9.612,9.612,0,0,0-1.258,1.659,4.886,4.886,0,0,0,.17,3.792c.221.482-.016.48.488.636a3.087,3.087,0,0,0,3.707-1.744,8.879,8.879,0,0,0,.727-3.2,14.957,14.957,0,0,1,.526-3.388h0l10.669-26.171,7.724-22.586,1.978-11.632-11.92,1.563Z" transform="translate(-273.746 -1026.805)" fill="#f79c8d"/>
            <path id="Trazado_875357" data-name="Trazado 875357" d="M279.021,1610.745a4.733,4.733,0,0,1-4.645-1.945,5.111,5.111,0,0,0-.441,3.8c.38.831,1.492.807,2.367.839a2.285,2.285,0,0,0,2.1-1.287,7.741,7.741,0,0,0,.62-1.411Z" transform="translate(-271.346 -1500.31)" fill="#13375b"/>
            <path id="Trazado_875358" data-name="Trazado 875358" d="M438.79,1620.735a8.683,8.683,0,0,1-5.472-.215,4.438,4.438,0,0,0-.44,2.293c.233.683.565.837.859.844,2.321.061,8.5.145,10.275.167a.29.29,0,0,0,.225-.477C443.8,1622.821,438.978,1620.851,438.79,1620.735Z" transform="translate(-411.425 -1510.629)" fill="#13375b"/>
            <path id="Trazado_875359" data-name="Trazado 875359" d="M358.505,1107.021c.2.013.4.026.6.038l.031,0,.6.033.036,0c.2.011.4.019.6.029h.031c.2.008.409.017.613.023a39.787,39.787,0,0,0,6.9-.261c.92-9.215,1.264-17.625,1.6-19.488.826-4.515-.72-11.64-.72-11.64l-.739-.133.466-2.639-12.4,1.562s-3.471,5.035-4.3,9.2.606,16.974-.984,22.434c0,0,3.539.551,7.654.832Z" transform="translate(-339.25 -1028.548)" fill="#13375b"/>
            <path id="Trazado_875360" data-name="Trazado 875360" d="M282.983,711.472c.487-2.211.963-4.437-.319-6.867a6.238,6.238,0,0,0-4.909-3.345c-5.885-.7-4.627,4.8-12.852,5.985-2.556.369-4.93.724-7.065,2-3.853,2.3-5.307,5.977-2.752,11.975,6.256,14.687,21.228,1.924,23.513-.673,2.266-2.578,4.071-7.647,4.385-9.07Z" transform="translate(-253.807 -701.199)" fill="#b75742"/>
            <path id="Trazado_875361" data-name="Trazado 875361" d="M303.944,1043.015l-3.657,9.505-4.387,11.938s9.592,5.72,26.01,3.72c0,0,.745-21.414-1.586-35.533s-16.381,10.37-16.381,10.37Z" transform="translate(-290.868 -989.164)" fill="#13375b"/>
            <path id="Trazado_875362" data-name="Trazado 875362" d="M382.456,845.55a8.538,8.538,0,0,0-4.749,2.271c-1.777,1.933,2.872,17.475,3.2,19.935s-3.09,9.271-3.09,9.271,11.6,2.306,14.62.314c0,0,.265-19.019-.059-20.776s-3.016-8.905-3.663-9.608-6.255-1.406-6.255-1.406Z" transform="translate(-362.541 -828.295)" fill="#13375b"/>
            <path id="Trazado_875363" data-name="Trazado 875363" d="M420.784,794.69s-.023.131-.065.356a34.02,34.02,0,0,1-1.493,5.637c-.63,1.188,2.156,4.977,4.838,4.515.8-.137-.674-3.481-.6-3.836.135-.678.319-1.6.507-2.551.106-.536.214-1.077.314-1.587.287-1.449.521-2.635.521-2.635l-4.018.1Z" transform="translate(-399.374 -783.427)" fill="#f7a491"/>
            <path id="Trazado_875364" data-name="Trazado 875364" d="M431.473,795.047c.042-.225.065-.356.065-.356l4.018-.1-.521,2.635c-.1.507-.207,1.046-.312,1.578a3.765,3.765,0,0,1-1.919-.96,5.064,5.064,0,0,1-1.454-2.156c.049-.253.091-.472.122-.639Z" transform="translate(-410.127 -783.427)" fill="#f47458"/>
            <path id="Trazado_875365" data-name="Trazado 875365" d="M422.576,715.524a4.74,4.74,0,0,0-2.826,1.76c-1.187,1.532-2.466,6.271.482,8.847s5.862-.339,6.295-3.432.344-7.286-3.951-7.174Z" transform="translate(-398.749 -713.81)" fill="#f7a491"/>
            <path id="Trazado_875366" data-name="Trazado 875366" d="M481.746,757.445c-.186.746-.674,1.249-1.09,1.125s-.6-.83-.417-1.574.674-1.249,1.09-1.125S481.932,756.7,481.746,757.445Z" transform="translate(-453.109 -749.319)" fill="#f7a491"/>
            <path id="Trazado_875367" data-name="Trazado 875367" d="M411.588,715.077s-3.85,4.42-5.66,4.628-2.048,2.6-2.048,2.6.647-5.517,2.439-6.58S411.588,715.077,411.588,715.077Z" transform="translate(-385.941 -713.349)" fill="#b75742"/>
            <path id="Trazado_875368" data-name="Trazado 875368" d="M412.018,754c.147.8-.149,1.534-.661,1.639s-1.047-.459-1.194-1.259.149-1.534.661-1.639S411.871,753.2,412.018,754Z" transform="translate(-391.439 -746.565)" fill="#f7a491"/>
            <g id="Grupo_1099695" data-name="Grupo 1099695" transform="translate(18.339 30.603)">
              <path id="Trazado_875369" data-name="Trazado 875369" d="M417.807,957.22l11.7,2.134-2.776,15.222h0l-11.7-2.134h0l2.777-15.222Z" transform="translate(-414.098 -957.22)" fill="#bed9ea"/>
              <path id="Trazado_875370" data-name="Trazado 875370" d="M415.4,961.48l11.766,1.718-2.237,15.31h0L413.16,976.79h0l2.235-15.31Z" transform="translate(-412.451 -960.971)" fill="#d3e5f4"/>
              <path id="Trazado_875371" data-name="Trazado 875371" d="M409.169,966.27l11.8,1.491-1.939,15.351h0l-11.8-1.49h0l1.939-15.352Z" transform="translate(-407.23 -965.188)" fill="#f4f4f4"/>
            </g>
            <path id="Trazado_875372" data-name="Trazado 875372" d="M450.425,787.765l-2.795-.174a1.224,1.224,0,0,0,1.225,1.177C450.351,788.9,450.425,787.765,450.425,787.765Z" transform="translate(-424.461 -777.263)" fill="#fff"/>
            <path id="Trazado_875373" data-name="Trazado 875373" d="M352.318,986.57l4.509.46s-.073,3.826,0,4.266c0,0,7.71,2.137,10.932,2.717,0,0,1.467-.832,2.061-1.1a14.446,14.446,0,0,1,2.541-.6c.353-.047.232.341-.071.476a2.933,2.933,0,0,0-1.309.956,2.459,2.459,0,0,0,.973-.08c.337-.149.8-.467.808-.632s.084-.562.195-.54c.029.006.066.136.1.273s.074.263.105.393c.056.234.122.577.147.732a10.714,10.714,0,0,1-.188,1.665c-.055.629-.234.907-.567,1.067a8.233,8.233,0,0,1-1.938.392,13.074,13.074,0,0,1-3.559-.351c-.614-.069-10.432-1.042-10.432-1.042s-3.9-.562-4.161-1.234-.155-7.821-.155-7.821Z" transform="translate(-340.525 -952.458)" fill="#f7a491"/>
            <path id="Trazado_875374" data-name="Trazado 875374" d="M356.326,859.358s-1.422.674-2.674,3.589c-1.188,2.77-1.252,16.542-1.252,16.542l4.43-.739,2.4-6.444a11.817,11.817,0,0,0-1.222-11.753C357.342,859.645,356.73,859.1,356.326,859.358Z" transform="translate(-340.615 -840.395)" fill="#13375b"/>
          </g>
          <g id="Grupo_1099697" data-name="Grupo 1099697" transform="translate(267.848 107.194)">
            <path id="Trazado_875375" data-name="Trazado 875375" d="M2281.185,928.265l3.563-26.808a4.086,4.086,0,0,0-4.212-4.707h-30.76a5.624,5.624,0,0,0-5.463,4.707l-3.563,26.808Z" transform="translate(-2240.75 -896.75)" fill="#f7cc7f"/>
            <path id="Trazado_875376" data-name="Trazado 875376" d="M2523.419,928.265l3.7-27.842a3.188,3.188,0,0,0-3.286-3.673,4.388,4.388,0,0,0-4.262,3.673l-3.7,27.842h7.55Z" transform="translate(-2482.984 -896.75)" fill="#eab054"/>
          </g>
          <g id="Grupo_1099699" data-name="Grupo 1099699" transform="translate(270.669 95.385)">
            <path id="Trazado_875377" data-name="Trazado 875377" d="M2264.35,997.126l7.135-.487s1.323-20.179,1.323-23.277c0-3.759,1.226-9.447.786-9.343-1.235.293-3.327.956-4.315,2.36-3.424,4.857-4.93,30.748-4.93,30.748Z" transform="translate(-2264.35 -944.169)" fill="#0e293f"/>
            <path id="Trazado_875378" data-name="Trazado 875378" d="M2283.15,962.557s4.069.576,5.139,1.377a14.582,14.582,0,0,1,2.544,2.92s-5,24.05-5,28.1c-.007,3.132,1.082,10.819,1.082,10.819s-15.095.971-20.811-1.328c0,0,1.8-9.143,1.8-11.545s2.159-24.233,2.651-25.757c.446-1.383,1.261-3.869,4.019-4.482S2283.15,962.557,2283.15,962.557Z" transform="translate(-2265.891 -942.706)" fill="#13375b"/>
            <path id="Trazado_875379" data-name="Trazado 875379" d="M2356.392,906.926l.751,6.145s-3.421,8.567-5.616,7.874c-1.842-.582-.52-7.71-.52-7.71a21.415,21.415,0,0,0,.514-5.649c-.3-1.9,4.872-.66,4.872-.66Z" transform="translate(-2340.244 -893.55)" fill="#f7a491"/>
            <path id="Trazado_875380" data-name="Trazado 875380" d="M2358.169,907.586c-.3-1.9,4.872-.66,4.872-.66l.084.557a3.1,3.1,0,0,1-.561.936,6.719,6.719,0,0,1-4.465,2.137,10.7,10.7,0,0,0,.069-2.969Z" transform="translate(-2346.894 -893.55)" fill="#f47458"/>
            <g id="Grupo_1099698" data-name="Grupo 1099698" transform="translate(9.022)">
              <path id="Trazado_875381" data-name="Trazado 875381" d="M2347.677,825.564c.13-.048,1.041,6.8-.688,8.681s-5.1,2.5-6.309,1.016c-1.338-1.641-1.27-9,1.42-10.935S2347.677,825.564,2347.677,825.564Z" transform="translate(-2339.826 -820.623)" fill="#f7a491"/>
              <path id="Trazado_875382" data-name="Trazado 875382" d="M2350.2,798.008a7.451,7.451,0,0,1,3.919,2.262c.944.112,2.227.641,3.552,2.861a5.594,5.594,0,0,1-1.47,7.237,4.366,4.366,0,0,0-1.874,3.206l-.3-.9a5,5,0,0,1-.238-2.087,4.093,4.093,0,0,1,.307-1.255c.457-.991-.98-1.65-1.382-2.473-.31-.635-.325-2.087-.813-3.135l-.583-.8a3.682,3.682,0,0,0-2.662-.76c-1.316.3-1.127-4.706,1.54-4.156Z" transform="translate(-2346.905 -797.967)" fill="#b75742"/>
              <path id="Trazado_875383" data-name="Trazado 875383" d="M2389.217,871.527c-.014.836.361,1.519.838,1.528s.874-.662.888-1.5-.361-1.519-.838-1.528S2389.231,870.692,2389.217,871.527Z" transform="translate(-2383.313 -861.415)" fill="#f7a491"/>
            </g>
            <path id="Trazado_875384" data-name="Trazado 875384" d="M2346.478,940.889l1.642,1.844,4.106-3.053.474,3.151-6.927,16.813-.563-17.11Z" transform="translate(-2335.544 -922.74)" fill="#f4f4f4"/>
            <path id="Trazado_875385" data-name="Trazado 875385" d="M2345.93,968.349l2.825-1.55,2.229,1.55,2.35-2.309-2.35,2.675-2.229-1.61-2.816,1.516Z" transform="translate(-2336.178 -945.949)" fill="#f4f4f4"/>
            <path id="Trazado_875386" data-name="Trazado 875386" d="M2361.89,972.892l.593,1.553h.579l.769-1.342-1.024-.713Z" transform="translate(-2350.231 -951.54)" fill="#f47458"/>
            <path id="Trazado_875387" data-name="Trazado 875387" d="M2350.956,989.58l.395,6.724-3,7.275-.213-6.451,2.236-7.547Z" transform="translate(-2338.125 -966.675)" fill="#e56a55"/>
          </g>
          <path id="Trazado_875388" data-name="Trazado 875388" d="M2332.285,988.948c.862-.656-2.631-12.952-.1-16.679,0,0,1.3-.857,3.573.552,3.172,1.961,2.57,19.506.835,20.833-2.589,1.981-15.7,1.054-18.323.878V991.6s13.251-2.068,14.014-2.649Z" transform="translate(-2041.155 -855.821)" fill="#0e293f"/>
          <g id="Grupo_1099702" data-name="Grupo 1099702" transform="translate(135.597 77.211)">
            <g id="Grupo_1099700" data-name="Grupo 1099700" transform="translate(11.38 11.296)">
              <path id="Trazado_875389" data-name="Trazado 875389" d="M1270.005,771.935l3.563-26.808a4.086,4.086,0,0,0-4.212-4.707H1238.6a5.623,5.623,0,0,0-5.463,4.707l-3.563,26.808Z" transform="translate(-1229.57 -740.42)" fill="#f7cc7f"/>
              <path id="Trazado_875390" data-name="Trazado 875390" d="M1512.239,771.936l3.7-27.842a3.188,3.188,0,0,0-3.286-3.673,4.388,4.388,0,0,0-4.262,3.673l-3.7,27.842h7.55Z" transform="translate(-1471.803 -740.42)" fill="#eab054"/>
            </g>
            <path id="Trazado_875391" data-name="Trazado 875391" d="M1134.606,842.667c-.056-.421,1.919-.344,2.1-.72s-2.323-.926-2.34-1.293c-.034-.677,2.781.434,2.786.121s-2.841-1.6-2.412-2.05,2.811,1.644,2.966,1.31-2.391-1.746-2.184-2.5c.111-.405,4.044,2.968,4.6,2.851s-.11-2.265.36-2.466.9,3.983,1.151,4.181,5.892,4.061,7.913,5.047c.406-.661,3.254-4.107,3.622-4.736,1.022,1.1,2.877.754,3.953,1.787-1.359,2.058-5.161,9.054-5.844,9.207-2.076.466-9.753-7.329-11-8.675s-2.161-1.182-3.086-1.717-2.533.078-2.588-.343Z" transform="translate(-1134.368 -814.597)" fill="#f38b80"/>
            <path id="Trazado_875392" data-name="Trazado 875392" d="M1285.591,806.224s4.069.576,5.139,1.377a14.573,14.573,0,0,1,2.544,2.92s-5,24.05-5,28.1c-.007,3.131,1.082,10.819,1.082,10.819s-15.095.971-20.811-1.328c0,0,1.805-9.143,1.805-11.545s2.159-24.233,2.651-25.758c.446-1.383,1.261-3.869,4.019-4.483s8.576-.1,8.576-.1Z" transform="translate(-1252.502 -786.886)" fill="#13375b"/>
            <path id="Trazado_875393" data-name="Trazado 875393" d="M1358.842,750.6l.751,6.145s-3.421,8.567-5.616,7.874c-1.842-.582-.52-7.71-.52-7.71a21.44,21.44,0,0,0,.514-5.649c-.3-1.9,4.872-.66,4.872-.66Z" transform="translate(-1326.864 -737.733)" fill="#f7a491"/>
            <path id="Trazado_875394" data-name="Trazado 875394" d="M1360.619,751.255c-.3-1.9,4.872-.66,4.872-.66l.084.557a3.093,3.093,0,0,1-.561.936,6.719,6.719,0,0,1-4.465,2.137,10.7,10.7,0,0,0,.069-2.969Z" transform="translate(-1333.513 -737.733)" fill="#f47458"/>
            <path id="Trazado_875395" data-name="Trazado 875395" d="M1348.918,784.55l1.642,1.844,4.107-3.054.472,3.152-6.927,16.811-.563-17.109Z" transform="translate(-1322.155 -766.914)" fill="#f4f4f4"/>
            <path id="Trazado_875396" data-name="Trazado 875396" d="M1348.37,812.018l2.825-1.55,2.23,1.55,2.349-2.308-2.349,2.674-2.23-1.609-2.815,1.516Z" transform="translate(-1322.789 -790.132)" fill="#f4f4f4"/>
            <path id="Trazado_875397" data-name="Trazado 875397" d="M1364.34,816.553l.592,1.553h.581l.767-1.344-1.024-.712Z" transform="translate(-1336.85 -795.714)" fill="#f47458"/>
            <path id="Trazado_875398" data-name="Trazado 875398" d="M1353.406,833.25l.393,6.723-3,7.275-.212-6.45,2.235-7.547Z" transform="translate(-1324.744 -810.858)" fill="#e56a55"/>
            <path id="Trazado_875399" data-name="Trazado 875399" d="M1262.251,990.013c-.141-.218.213-.588.479-.865a12.481,12.481,0,0,1,2.587-.956,13.435,13.435,0,0,1,3.845.3,4.085,4.085,0,0,0,1.5.274c.26-.054.654-.124.958-.188l.624,2.323c-2.338-.03-5.36.145-5.582.139a4.285,4.285,0,0,1-1.59-.552,2.3,2.3,0,0,0-1.43-.141,5.189,5.189,0,0,1-1.788.538c-.2-.105.391-.874.391-.874Z" transform="translate(-1246.584 -947.244)" fill="#f7a491"/>
            <path id="Trazado_875400" data-name="Trazado 875400" d="M1334.734,832.606c.862-.656-2.631-12.952-.1-16.679,0,0,1.3-.857,3.573.551,3.173,1.962,2.57,19.506.836,20.833-2.589,1.981-15.7,1.054-18.321.879v-2.935S1333.97,833.187,1334.734,832.606Z" transform="translate(-1298.444 -795.378)" fill="#0e293f"/>
            <path id="Trazado_875401" data-name="Trazado 875401" d="M1174.56,825.666l2.8-3.357,7.488,5.062s5.733-10.841,7.577-11.692l-3.676,16.1a18.564,18.564,0,0,1-1.945,2.609c-.337.135-3.373-.409-12.244-8.721Z" transform="translate(-1169.756 -795.388)" fill="#0e293f"/>
            <path id="Trazado_875402" data-name="Trazado 875402" d="M1172.552,873.072l-.392-.374,2.581-3.048.392.329Z" transform="translate(-1167.643 -842.907)" fill="#f4f4f4"/>
            <rect id="Rectángulo_401738" data-name="Rectángulo 401738" width="0.362" height="2.749" transform="translate(21.913 39.994)" fill="#f4f4f4"/>
            <g id="Grupo_1099701" data-name="Grupo 1099701" transform="translate(23.159)">
              <path id="Trazado_875403" data-name="Trazado 875403" d="M1334.369,646.488a2.321,2.321,0,0,1,3.642.883,6.02,6.02,0,0,1,1-.055,8.324,8.324,0,0,1,1.545.8,5.611,5.611,0,0,1,2.878,4.326,6.407,6.407,0,0,1-1.829,5.26,5.544,5.544,0,0,1-1.365,1.268c-.657.393-1.227.167-1.86.362-.533.164-.675.709-1.336.569-.925-.2-1.968-1.161-3.07-.919a12.212,12.212,0,0,1-3.769-.482c-3.419-.928-1.732-7-1.292-9.14.414-2.014,3.343-3.426,5.457-2.875Z" transform="translate(-1328.109 -645.922)" fill="#f4f4f4"/>
              <path id="Trazado_875404" data-name="Trazado 875404" d="M1348.4,673.208a3.811,3.811,0,0,0-5.213,2.113,24.03,24.03,0,0,0-.769,3.22c-.486,2.957.765,6.047,2.227,6.227a6.836,6.836,0,0,0,6.535-5.438A5.492,5.492,0,0,0,1348.4,673.208Z" transform="translate(-1340.61 -669.632)" fill="#f7a491"/>
              <path id="Trazado_875405" data-name="Trazado 875405" d="M1406.977,720.914a1.1,1.1,0,0,0,.881,1.312,1.165,1.165,0,0,0,1.223-1.055,1.1,1.1,0,0,0-.881-1.312A1.165,1.165,0,0,0,1406.977,720.914Z" transform="translate(-1397.537 -711.014)" fill="#f7a491"/>
              <path id="Trazado_875406" data-name="Trazado 875406" d="M1349.228,741.255s1.945.419,2.159,1.047a2.265,2.265,0,0,1-.793,2.354c-.861.784-2.883.5-3.459.153a2.848,2.848,0,0,1-.687-2.941c.454-.967,2.781-.613,2.781-.613Z" transform="translate(-1344.11 -729.804)" fill="#f4f4f4"/>
              <path id="Trazado_875407" data-name="Trazado 875407" d="M1357.083,748.465s.058.766-.207.925a2.716,2.716,0,0,1-.9.347,1.394,1.394,0,0,1-1.289-.421.943.943,0,0,1-.081-.105,3.22,3.22,0,0,1-.347-1.036,4.859,4.859,0,0,1,1.344-.221,6,6,0,0,1,1.481.512Z" transform="translate(-1351.134 -735.754)" fill="#f7a491"/>
            </g>
          </g>
          <g id="Grupo_1099704" data-name="Grupo 1099704" transform="translate(131.128 107.488)">
            <rect id="Rectángulo_401739" data-name="Rectángulo 401739" width="0.541" height="6.934" transform="translate(3.382 6.112)" fill="#184655"/>
            <g id="Grupo_1099703" data-name="Grupo 1099703">
              <path id="Trazado_875408" data-name="Trazado 875408" d="M1097.795,921.668l-.628-.433a.421.421,0,0,1-.108-.586l5.319-7.712a.421.421,0,0,1,.586-.108l.628.433a.421.421,0,0,1,.108.586l-5.319,7.712A.422.422,0,0,1,1097.795,921.668Z" transform="translate(-1096.985 -911.136)" fill="#13375b"/>
              <path id="Trazado_875409" data-name="Trazado 875409" d="M1127.145,915.221l-.969-.668a.651.651,0,0,1-.166-.906l1.332-1.931a.651.651,0,0,1,.906-.166l.969.668a.651.651,0,0,1,.166.906l-1.332,1.93A.651.651,0,0,1,1127.145,915.221Z" transform="translate(-1122.438 -909.973)" fill="#6394db"/>
              <path id="Trazado_875410" data-name="Trazado 875410" d="M1136.4,902.3a1.97,1.97,0,1,1-.5-2.74,1.971,1.971,0,0,1,.5,2.74Z" transform="translate(-1128.527 -899.215)" fill="#184655"/>
            </g>
          </g>
          <rect id="Rectángulo_401740" data-name="Rectángulo 401740" width="108.473" height="72.898" transform="translate(218.423 197.465) rotate(180)" fill="#b75742"/>
          <g id="Grupo_1099705" data-name="Grupo 1099705" transform="translate(126.626 132.578)" opacity="0.5">
            <path id="Trazado_875411" data-name="Trazado 875411" d="M1059.32,1109.11H1119v56.875H1059.32Zm57.4,2.277H1061.6v52.32h55.124Z" transform="translate(-1059.32 -1109.11)" fill="#b75742"/>
          </g>
          <rect id="Rectángulo_401741" data-name="Rectángulo 401741" width="44.448" height="43.707" transform="translate(178.688 182.869) rotate(180)" fill="#b75742" opacity="0.5"/>
          <path id="Trazado_875412" data-name="Trazado 875412" d="M1188.889,1199.191q2.389,5.524,4.784,11.045a1.277,1.277,0,0,1,.041,1.032,3.117,3.117,0,0,1-.319.629,4.385,4.385,0,0,1-2.192,1.551,8.3,8.3,0,0,1-4.088.393,6.438,6.438,0,0,1-2.886-1.076,3.015,3.015,0,0,1-1.2-1.494,1.106,1.106,0,0,1,0-.932c.069-.127.117-.265.176-.4q2.369-5.384,4.737-10.77c.02-.047.035-.1.053-.149a.441.441,0,0,0-.067-.019,10.215,10.215,0,0,1-2.682-.548c-1.041-.343-2.075-.71-3.119-1.046a9.237,9.237,0,0,0-3.342-.53,5.57,5.57,0,0,0-1.835.42.194.194,0,0,0-.141.216c.01.194.01.389,0,.582a.3.3,0,0,0,.12.263,1.784,1.784,0,0,1,.147,2.558.837.837,0,0,0-.263.734.23.23,0,0,1,0,.055.346.346,0,0,0,.14.326,1.81,1.81,0,0,1,.374,2.2.688.688,0,0,0-.076.274c-.068,1.279-.13,2.558-.195,3.837q-.2,3.873-.4,7.746c0,.063,0,.128,0,.207.074,0,.128,0,.181,0,.992.072,1.985.13,2.975.225a7.4,7.4,0,0,1,1.079.24.267.267,0,0,1,.213.326,2.245,2.245,0,0,1-.307,1.078,4.913,4.913,0,0,1,.775.592,1.743,1.743,0,0,0,.856.637.256.256,0,0,1,.182.314c-.024.193-.031.387-.055.58a1.644,1.644,0,0,1-1.338,1.523,10.838,10.838,0,0,1-2.522.313c-1.608.02-3.217.032-4.826.024-.782,0-1.565-.048-2.345-.1a5.278,5.278,0,0,1-1.815-.429,1.112,1.112,0,0,1-.637-.662,4.262,4.262,0,0,1-.218-.879c-.063-.6-.137-.6.516-.83a.349.349,0,0,0,.177-.106,2.151,2.151,0,0,1,1.123-.923,2.28,2.28,0,0,1-.342-1.125.274.274,0,0,1,.208-.33,4.306,4.306,0,0,1,.47-.137,18.521,18.521,0,0,1,2.874-.3l.852-.038c0-.105,0-.2,0-.286q-.127-2.673-.256-5.347-.148-3.091-.3-6.183a.589.589,0,0,0-.074-.238,1.753,1.753,0,0,1,.233-2.035.973.973,0,0,0,.288-.8.442.442,0,0,0-.149-.342,1.756,1.756,0,0,1-.183-2.444,1.213,1.213,0,0,0,.328-1,.389.389,0,0,1,0-.091c.025-.134-.044-.189-.161-.234a5.882,5.882,0,0,0-2.972-.307,14.059,14.059,0,0,0-2.754.728,19.893,19.893,0,0,1-5.164,1.449c.03.074.054.134.079.194q2.4,5.558,4.8,11.118a.716.716,0,0,1,.056.314,2.3,2.3,0,0,1-.606,1.372,4.622,4.622,0,0,1-1.905,1.265,8.334,8.334,0,0,1-4.245.421,6.384,6.384,0,0,1-2.847-1.079,2.924,2.924,0,0,1-1.236-1.677,1.059,1.059,0,0,1,.064-.757c.218-.446.406-.906.607-1.362q2.105-4.785,4.209-9.571c.035-.08.068-.161.105-.25-.228-.039-.433-.066-.634-.11a2.265,2.265,0,0,1-1.471-.752,4.337,4.337,0,0,1-.515-.871,1.831,1.831,0,1,1,3.462-1.161c.037.14.085.182.228.17a11.674,11.674,0,0,0,2.808-.649c1.157-.4,2.307-.82,3.473-1.191a7.327,7.327,0,0,1,3.034-.354c.233.025.465.069.709.106-.148-.2-.3-.393-.43-.594a.984.984,0,0,1,.166-1.547c.349-.337.715-.657,1.063-1a3.987,3.987,0,0,0,.778-1.02c-.381-.418-.406-.655-.134-1.085a3.856,3.856,0,0,1-.2-.46,1.919,1.919,0,0,1,.773-1.793c.2.309.418.607.6.928a1.149,1.149,0,0,1-.007,1.1c-.036.075-.083.145-.122.213.286.41.256.687-.123,1.1.035.058.07.12.107.182a6.772,6.772,0,0,0,1.28,1.411c.245.225.484.459.71.7a.736.736,0,0,1,.118.878,3.477,3.477,0,0,1-.226.414c-.123.186-.262.362-.409.564a7.568,7.568,0,0,1,4.106.27c.816.246,1.62.535,2.428.811a17.47,17.47,0,0,0,2.708.762c.356.061.717.093,1.077.139.024-.091.039-.149.054-.207a1.835,1.835,0,1,1,3.48,1.141,2.318,2.318,0,0,1-1.771,1.584c-.314.061-.629.125-.959.192.026.063.048.12.072.176Zm-25.806.127-4.889,11.283h9.851Zm30.266,11.291c-1.656-3.764-3.3-7.509-4.964-11.291-1.638,3.78-3.26,7.522-4.891,11.291h9.857Z" transform="translate(-1019.254 -1044.962)" fill="#b75742" opacity="0.5"/>
          <rect id="Rectángulo_401742" data-name="Rectángulo 401742" width="33.832" height="72.898" transform="translate(240.642 197.465) rotate(180)" fill="#8c453a"/>
          <g id="Grupo_1099708" data-name="Grupo 1099708" transform="translate(221.541 137.72)">
            <rect id="Rectángulo_401743" data-name="Rectángulo 401743" width="80.794" height="56.189" transform="translate(82.618 59.745) rotate(180)" fill="#b75742"/>
            <g id="Grupo_1099706" data-name="Grupo 1099706" transform="translate(42.938 10.056)" opacity="0.5">
              <path id="Trazado_875413" data-name="Trazado 875413" d="M2212.57,1236.26h22.813V1280.1H2212.57Zm21.059,1.755h-19.3v40.328h19.3Z" transform="translate(-2212.57 -1236.26)" fill="#b75742"/>
            </g>
            <g id="Grupo_1099707" data-name="Grupo 1099707" transform="translate(9.454 10.056)" opacity="0.5">
              <path id="Trazado_875414" data-name="Trazado 875414" d="M1932.45,1236.26h22.813V1280.1H1932.45Zm21.057,1.755h-19.3v40.328h19.3Z" transform="translate(-1932.45 -1236.26)" fill="#b75742"/>
            </g>
            <rect id="Rectángulo_401744" data-name="Rectángulo 401744" width="101.813" height="3.555" transform="translate(101.813 3.555) rotate(180)" fill="#db6552"/>
            <rect id="Rectángulo_401745" data-name="Rectángulo 401745" width="26.078" height="56.189" transform="translate(99.075 59.745) rotate(180)" fill="#8c453a"/>
          </g>
          <rect id="Rectángulo_401746" data-name="Rectángulo 401746" width="19.304" height="1.604" transform="translate(285.538 189.859) rotate(180)" fill="#db6552"/>
          <rect id="Rectángulo_401747" data-name="Rectángulo 401747" width="19.304" height="1.604" transform="translate(252.053 189.859) rotate(180)" fill="#db6552"/>
          <rect id="Rectángulo_401748" data-name="Rectángulo 401748" width="55.124" height="1.604" transform="translate(184.025 187.176) rotate(180)" fill="#db6552"/>
          <g id="Grupo_1099709" data-name="Grupo 1099709" transform="translate(253.777 123.299)">
            <path id="Trazado_875415" data-name="Trazado 875415" d="M2124.147,1031.48h17.034a1.111,1.111,0,0,1,1.028.69l5.245,12.793h9.391a.475.475,0,0,1,.476.474h0a.476.476,0,0,1-.476.476h-26.728a1.866,1.866,0,0,1-1.7-1.1l-5.281-11.765A1.111,1.111,0,0,1,2124.147,1031.48Z" transform="translate(-2123.035 -1031.48)" fill="#466eb6"/>
            <path id="Trazado_875416" data-name="Trazado 875416" d="M2208.9,1084.675a.938.938,0,1,0,.7-1.223A1,1,0,0,0,2208.9,1084.675Z" transform="translate(-2198.612 -1077.226)" fill="#fff"/>
          </g>
          <rect id="Rectángulo_401749" data-name="Rectángulo 401749" width="136.693" height="4.612" transform="translate(244.193 124.566) rotate(180)" fill="#db6552"/>
          <path id="Trazado_875417" data-name="Trazado 875417" d="M2349.205,898.395l-2.795-.175a1.223,1.223,0,0,0,1.225,1.177C2349.131,899.535,2349.205,898.395,2349.205,898.395Z" transform="translate(-2065.932 -790.851)" fill="#fff"/>
          <rect id="Rectángulo_401750" data-name="Rectángulo 401750" width="326.663" height="0.997" transform="translate(4.551 196.773)" fill="#355389"/>
          <circle id="Elipse_11526" data-name="Elipse 11526" cx="21.692" cy="21.692" r="21.692" transform="translate(134.964 39.325) rotate(-45)" fill="#e56a55"/>
          <path id="Trazado_875418" data-name="Trazado 875418" d="M1287.025,201.009q1.963,4.542,3.933,9.08a1.045,1.045,0,0,1,.033.848,2.627,2.627,0,0,1-.262.518,3.606,3.606,0,0,1-1.8,1.275,6.839,6.839,0,0,1-3.361.324,5.29,5.29,0,0,1-2.373-.885,2.475,2.475,0,0,1-.984-1.229.9.9,0,0,1,0-.766c.057-.1.1-.219.145-.328l3.894-8.854c.017-.038.029-.08.043-.123a.312.312,0,0,0-.055-.016,8.375,8.375,0,0,1-2.205-.451c-.856-.282-1.706-.585-2.564-.861a7.588,7.588,0,0,0-2.747-.435,4.619,4.619,0,0,0-1.509.344.157.157,0,0,0-.116.178c.007.159.007.319,0,.479a.25.25,0,0,0,.1.216,1.465,1.465,0,0,1,.121,2.1.691.691,0,0,0-.216.6.142.142,0,0,1,0,.045.285.285,0,0,0,.115.268,1.491,1.491,0,0,1,.308,1.807.547.547,0,0,0-.062.225c-.056,1.051-.106,2.1-.16,3.155q-.163,3.184-.329,6.368c0,.053,0,.105,0,.171.061,0,.105,0,.149,0,.815.059,1.632.106,2.446.184a6.229,6.229,0,0,1,.887.2.219.219,0,0,1,.175.268,1.847,1.847,0,0,1-.252.886,4.079,4.079,0,0,1,.637.486,1.451,1.451,0,0,0,.7.525.21.21,0,0,1,.149.258c-.02.158-.025.318-.045.476a1.352,1.352,0,0,1-1.1,1.252,8.937,8.937,0,0,1-2.073.258c-1.322.017-2.644.028-3.966.019-.643,0-1.286-.039-1.928-.086a4.334,4.334,0,0,1-1.492-.353.914.914,0,0,1-.524-.544,3.364,3.364,0,0,1-.178-.722c-.053-.5-.113-.495.424-.681a.28.28,0,0,0,.145-.087,1.758,1.758,0,0,1,.923-.758,1.864,1.864,0,0,1-.281-.925.225.225,0,0,1,.171-.271,3.759,3.759,0,0,1,.386-.114,15.211,15.211,0,0,1,2.362-.246l.7-.031c0-.087,0-.161,0-.235q-.1-2.2-.211-4.4-.122-2.541-.245-5.083a.511.511,0,0,0-.061-.2,1.441,1.441,0,0,1,.191-1.672.8.8,0,0,0,.237-.657.362.362,0,0,0-.123-.281,1.443,1.443,0,0,1-.149-2.009,1,1,0,0,0,.269-.826.313.313,0,0,1,0-.074c.02-.11-.036-.155-.133-.194a4.835,4.835,0,0,0-2.443-.252,11.517,11.517,0,0,0-2.264.6,16.384,16.384,0,0,1-4.245,1.191l.064.159q1.974,4.569,3.947,9.14a.6.6,0,0,1,.047.259,1.885,1.885,0,0,1-.5,1.128,3.8,3.8,0,0,1-1.567,1.04,6.843,6.843,0,0,1-3.489.345,5.258,5.258,0,0,1-2.34-.887,2.4,2.4,0,0,1-1.016-1.378.867.867,0,0,1,.054-.623c.179-.367.334-.745.5-1.119q1.73-3.934,3.459-7.868c.029-.066.056-.133.086-.206-.187-.032-.356-.055-.521-.09a1.858,1.858,0,0,1-1.21-.618,3.482,3.482,0,0,1-.423-.716,1.5,1.5,0,1,1,2.846-.953c.03.115.069.149.188.139a9.565,9.565,0,0,0,2.308-.533c.95-.329,1.9-.674,2.854-.979a6.016,6.016,0,0,1,2.493-.29c.193.021.383.056.582.087-.122-.167-.245-.324-.354-.489a.809.809,0,0,1,.136-1.272c.287-.277.588-.54.874-.819a3.277,3.277,0,0,0,.639-.838c-.313-.344-.333-.538-.11-.893a3.161,3.161,0,0,1-.161-.379,1.576,1.576,0,0,1,.636-1.474c.165.255.343.5.491.763a.945.945,0,0,1-.006.906c-.029.062-.068.118-.1.175.235.337.21.565-.1.9.029.048.057.1.087.149a5.611,5.611,0,0,0,1.052,1.16c.2.185.4.377.583.579a.6.6,0,0,1,.1.722,2.841,2.841,0,0,1-.187.341c-.1.153-.215.3-.337.464a6.228,6.228,0,0,1,3.376.221c.671.2,1.332.44,2,.667a14.437,14.437,0,0,0,2.227.626c.293.05.589.076.886.115.019-.075.032-.122.044-.171a1.509,1.509,0,1,1,2.86.938,1.906,1.906,0,0,1-1.456,1.3c-.258.05-.516.1-.788.158.021.053.04.1.059.145Zm-21.214.1-4.019,9.276h8.1C1268.531,207.3,1267.18,204.226,1265.811,201.113Zm24.881,9.282c-1.36-3.095-2.715-6.173-4.081-9.282-1.346,3.108-2.679,6.185-4.021,9.282h8.1Z" transform="translate(-1110.557 -168.036)" fill="#b75742" opacity="0.5"/>
          <g id="Grupo_1099711" data-name="Grupo 1099711" transform="translate(235.214 128.461)">
            <g id="Grupo_1099710" data-name="Grupo 1099710" transform="translate(0 0)">
              <rect id="Rectángulo_401751" data-name="Rectángulo 401751" width="13.325" height="4.667" transform="translate(13.623 9.262) rotate(180)" fill="#f4f4f4"/>
              <rect id="Rectángulo_401752" data-name="Rectángulo 401752" width="13.325" height="4.667" transform="translate(13.623 4.667) rotate(180)" fill="#f4f4f4"/>
              <rect id="Rectángulo_401753" data-name="Rectángulo 401753" width="13.325" height="0.079" transform="translate(13.623 0.911) rotate(180)" fill="#d3e5f4"/>
              <rect id="Rectángulo_401754" data-name="Rectángulo 401754" width="13.325" height="0.079" transform="translate(13.623 1.682) rotate(180)" fill="#d3e5f4"/>
              <rect id="Rectángulo_401755" data-name="Rectángulo 401755" width="13.325" height="0.079" transform="translate(13.623 4.758) rotate(180)" fill="#d3e5f4"/>
              <rect id="Rectángulo_401756" data-name="Rectángulo 401756" width="13.325" height="0.079" transform="translate(13.623 5.527) rotate(180)" fill="#d3e5f4"/>
              <rect id="Rectángulo_401757" data-name="Rectángulo 401757" width="13.325" height="0.079" transform="translate(13.623 6.297) rotate(180)" fill="#d3e5f4"/>
              <rect id="Rectángulo_401758" data-name="Rectángulo 401758" width="13.325" height="0.079" transform="translate(13.623 7.067) rotate(180)" fill="#d3e5f4"/>
              <rect id="Rectángulo_401759" data-name="Rectángulo 401759" width="13.325" height="0.079" transform="translate(13.623 7.838) rotate(180)" fill="#d3e5f4"/>
              <rect id="Rectángulo_401760" data-name="Rectángulo 401760" width="13.325" height="0.079" transform="translate(13.623 2.452) rotate(180)" fill="#d3e5f4"/>
              <rect id="Rectángulo_401761" data-name="Rectángulo 401761" width="13.325" height="0.079" transform="translate(13.623 3.222) rotate(180)" fill="#d3e5f4"/>
              <rect id="Rectángulo_401762" data-name="Rectángulo 401762" width="13.325" height="0.079" transform="translate(13.623 3.991) rotate(180)" fill="#d3e5f4"/>
              <path id="Trazado_875419" data-name="Trazado 875419" d="M2027.42,1113.71l.818.409-8.187-.409Z" transform="translate(-2013.797 -1109.043)" fill="#d3e5f4"/>
              <path id="Trazado_875420" data-name="Trazado 875420" d="M2055.17,1074.67v9.26h3.171v-9.26Z" transform="translate(-2044.719 -1074.67)" fill="#d3e5f4"/>
              <path id="Trazado_875421" data-name="Trazado 875421" d="M1974.795,1126.769s-6.27.538-7.055,1.213a3.78,3.78,0,0,1,.3-1.292l1.964.074,4.792,0Z" transform="translate(-1967.74 -1120.472)" fill="#d3e5f4"/>
              <path id="Trazado_875422" data-name="Trazado 875422" d="M2040.679,1088.74l-.684,1.083-.765-1.083Z" transform="translate(-2030.685 -1087.058)" fill="#f47458"/>
              <path id="Trazado_875423" data-name="Trazado 875423" d="M1987.82,1114.47l-.684,1.083-.766-1.083Z" transform="translate(-1984.143 -1109.713)" fill="#50bfa5"/>
              <path id="Trazado_875424" data-name="Trazado 875424" d="M2028.209,1133.79l-.684,1.084-.765-1.084Z" transform="translate(-2019.705 -1126.723)" fill="#466eb6"/>
            </g>
            <rect id="Rectángulo_401763" data-name="Rectángulo 401763" width="12.783" height="0.079" transform="translate(13.081 8.603) rotate(180)" fill="#d3e5f4"/>
          </g>
          <g id="Grupo_1099712" data-name="Grupo 1099712" transform="translate(246.536 131.194)">
            <path id="Trazado_875425" data-name="Trazado 875425" d="M2064.9,1121.807h-.594a.583.583,0,0,1,.352-.117h14.883a1.4,1.4,0,0,1,1.409,1.382v.877a1.4,1.4,0,0,1-1.409,1.382l-14.717,0,.077-3.52Z" transform="translate(-2064.089 -1118.802)" fill="#13375b"/>
            <path id="Trazado_875426" data-name="Trazado 875426" d="M2071.725,1121.71a1.335,1.335,0,0,1,1.348,1.322v.992a1.335,1.335,0,0,1-1.348,1.322h-9.265v-.222h.038l2.356-.219.476-1.831s-.919-1.011-.979-1.038-1.853-.1-1.853-.1h-.038v-.221Z" transform="translate(-2062.46 -1118.819)" fill="#0e293f"/>
            <path id="Trazado_875427" data-name="Trazado 875427" d="M2063.334,1125.16a2.214,2.214,0,0,0-.564-1.59h9.039a1.227,1.227,0,0,1,1.239,1.215v.764a1.227,1.227,0,0,1-1.239,1.214h-9.039S2063.334,1126.508,2063.334,1125.16Z" transform="translate(-2062.733 -1120.457)" fill="#f4f4f4"/>
            <path id="Trazado_875428" data-name="Trazado 875428" d="M2073.057,1124.793v.764a1.222,1.222,0,0,1-.036.292,2.646,2.646,0,0,0-2-1.661,63.928,63.928,0,0,0-8.24-.607h9.039a1.227,1.227,0,0,1,1.239,1.214Z" transform="translate(-2062.742 -1120.466)" fill="#daeef7"/>
            <path id="Trazado_875429" data-name="Trazado 875429" d="M2067.874,1097.623h-.594a.681.681,0,0,1,.351-.093h14.889a1.284,1.284,0,0,1,1.411,1.1v.7a1.284,1.284,0,0,1-1.411,1.1l-14.723,0Z" transform="translate(-2066.704 -1097.53)" fill="#f7cc7f"/>
            <path id="Trazado_875430" data-name="Trazado 875430" d="M2074.68,1097.56a1.227,1.227,0,0,1,1.348,1.048v.788a1.227,1.227,0,0,1-1.348,1.05h-9.269v-.176h.038l2.356-.173.476-1.452s-.919-.8-.979-.824-1.854-.084-1.854-.084h-.038v-.176h9.269Z" transform="translate(-2065.058 -1097.557)" fill="#eab054"/>
            <path id="Trazado_875431" data-name="Trazado 875431" d="M2066.294,1100.291a1.6,1.6,0,0,0-.564-1.261h9.043a1.128,1.128,0,0,1,1.239.964v.606a1.127,1.127,0,0,1-1.239.963h-9.043S2066.294,1101.361,2066.294,1100.291Z" transform="translate(-2065.339 -1098.851)" fill="#f4f4f4"/>
            <path id="Trazado_875432" data-name="Trazado 875432" d="M2076.011,1099.994v.606a.776.776,0,0,1-.036.231,2.561,2.561,0,0,0-2-1.319,80.273,80.273,0,0,0-8.243-.482h9.043a1.128,1.128,0,0,1,1.239.964Z" transform="translate(-2065.339 -1098.851)" fill="#daeef7"/>
          </g>
          <rect id="Rectángulo_401764" data-name="Rectángulo 401764" width="2.576" height="43.869" rx="1.288" transform="translate(299.446 147.777)" fill="#b75742"/>
          <rect id="Rectángulo_401765" data-name="Rectángulo 401765" width="2.576" height="43.869" rx="1.288" transform="translate(306.291 147.777)" fill="#b75742"/>
          <path id="Trazado_875433" data-name="Trazado 875433" d="M2620.285,1236.26h1.224a.677.677,0,0,1,.677.677v42.517a.677.677,0,0,1-.677.677h-1.223a.677.677,0,0,1-.676-.677v-42.517a.677.677,0,0,1,.676-.677Z" transform="translate(-2306.475 -1088.483)" fill="#b75742"/>
        </g>
      </g>
    </g>
  </g>
</svg>
