<svg id="Grupo_1099783" data-name="Grupo 1099783" xmlns="http://www.w3.org/2000/svg" xmlns:xlink="http://www.w3.org/1999/xlink" width="295" height="176.021" viewBox="0 0 295 176.021">
  <defs>
    <clipPath id="clip-path">
      <rect id="Rectángulo_401792" data-name="Rectángulo 401792" width="295" height="176.021" fill="none"/>
    </clipPath>
    <clipPath id="clip-path-3">
      <rect id="Rectángulo_401770" data-name="Rectángulo 401770" width="49.976" height="28.036" fill="none"/>
    </clipPath>
    <clipPath id="clip-path-4">
      <rect id="Rectángulo_401771" data-name="Rectángulo 401771" width="54.6" height="22.294" fill="none"/>
    </clipPath>
    <clipPath id="clip-path-5">
      <rect id="Rectángulo_401772" data-name="Rectángulo 401772" width="13.207" height="12.514" fill="none"/>
    </clipPath>
    <clipPath id="clip-path-6">
      <rect id="Rectángulo_401773" data-name="Rectángulo 401773" width="4.783" height="3.963" fill="none"/>
    </clipPath>
    <clipPath id="clip-path-7">
      <rect id="Rectángulo_401774" data-name="Rectángulo 401774" width="2.379" height="80.411" fill="none"/>
    </clipPath>
    <clipPath id="clip-path-8">
      <rect id="Rectángulo_401775" data-name="Rectángulo 401775" width="45.509" height="17.057" fill="none"/>
    </clipPath>
    <clipPath id="clip-path-9">
      <rect id="Rectángulo_401776" data-name="Rectángulo 401776" width="44.316" height="17.037" fill="none"/>
    </clipPath>
    <clipPath id="clip-path-10">
      <rect id="Rectángulo_401777" data-name="Rectángulo 401777" width="31.266" height="18.617" fill="none"/>
    </clipPath>
    <clipPath id="clip-path-11">
      <rect id="Rectángulo_401778" data-name="Rectángulo 401778" width="27.7" height="19.135" fill="none"/>
    </clipPath>
    <clipPath id="clip-path-14">
      <rect id="Rectángulo_401781" data-name="Rectángulo 401781" width="81.609" height="36.06" fill="none"/>
    </clipPath>
    <clipPath id="clip-path-15">
      <rect id="Rectángulo_401782" data-name="Rectángulo 401782" width="25.485" height="48.341" fill="none"/>
    </clipPath>
    <clipPath id="clip-path-16">
      <rect id="Rectángulo_401783" data-name="Rectángulo 401783" width="10.278" height="13.257" fill="none"/>
    </clipPath>
    <clipPath id="clip-path-17">
      <rect id="Rectángulo_401786" data-name="Rectángulo 401786" width="9.292" height="6.383" fill="none"/>
    </clipPath>
    <clipPath id="clip-path-18">
      <rect id="Rectángulo_401784" data-name="Rectángulo 401784" width="5.508" height="6.383" fill="none"/>
    </clipPath>
    <clipPath id="clip-path-19">
      <rect id="Rectángulo_401785" data-name="Rectángulo 401785" width="2.325" height="6.105" fill="none"/>
    </clipPath>
    <clipPath id="clip-path-20">
      <rect id="Rectángulo_401789" data-name="Rectángulo 401789" width="9.316" height="6.342" fill="none"/>
    </clipPath>
    <clipPath id="clip-path-21">
      <rect id="Rectángulo_401787" data-name="Rectángulo 401787" width="5.529" height="6.342" fill="none"/>
    </clipPath>
    <clipPath id="clip-path-22">
      <rect id="Rectángulo_401788" data-name="Rectángulo 401788" width="2.345" height="6.072" fill="none"/>
    </clipPath>
    <clipPath id="clip-path-23">
      <rect id="Rectángulo_401790" data-name="Rectángulo 401790" width="14.874" height="12.671" fill="none"/>
    </clipPath>
  </defs>
  <g id="Grupo_1099782" data-name="Grupo 1099782" clip-path="url(#clip-path)">
    <rect id="Rectángulo_401769" data-name="Rectángulo 401769" width="295" height="176.021" transform="translate(0 0)" fill="#dbe9ff"/>
    <g id="Grupo_1099781" data-name="Grupo 1099781">
      <g id="Grupo_1099780" data-name="Grupo 1099780" clip-path="url(#clip-path)">
        <path id="Trazado_875434" data-name="Trazado 875434" d="M335.135,105.265c-43.487-5.39-73.414-18.405-82.936-23a7.072,7.072,0,0,0-6.591.411c-19.567,11.42-73.214,28.528-80.838,31.136a1.61,1.61,0,0,0-1.093,1.506v3.258a1.441,1.441,0,0,0,1.527,1.443l15.311-1.223c-.341,12.432,3.3,12.48,3.477,12.475l-3.3.12a2.357,2.357,0,0,0-2.336,2.236,2.141,2.141,0,0,0,2.317,2.067l1.948-.066c-6.966,2.917-1.91,63.486-1.91,63.486l-2.217.006a2.268,2.268,0,0,0-2.367,2.134,2.241,2.241,0,0,0,2.351,2.124h13.654a2.316,2.316,0,0,0,2.425-2.147,2.254,2.254,0,0,0-2.383-2.145l-2.247.006s5.832-61.2-1.206-63.67l1.966-.067a2.393,2.393,0,0,0,2.38-2.246,2.151,2.151,0,0,0-2.342-2.083l-3.322.122c.178-.008,3.853-.325,3.676-12.816l12.808-.565c-.477,12.609,3.262,12.656,3.444,12.651l-3.387.124a2.439,2.439,0,0,0-2.423,2.268,2.162,2.162,0,0,0,2.359,2.095l2-.068c-7.187,2.961-2.508,64.221-2.508,64.221l-2.277.006a2.346,2.346,0,0,0-2.452,2.163,2.263,2.263,0,0,0,2.393,2.152h14.023a2.4,2.4,0,0,0,2.513-2.176,2.275,2.275,0,0,0-2.426-2.174l-2.308.006s6.518-61.908-.688-64.411l2.021-.069a2.476,2.476,0,0,0,2.469-2.279,2.171,2.171,0,0,0-2.385-2.111l-3.414.125c.183-.008,3.962-.332,3.91-13l13.169-.581c-.621,12.791,3.222,12.837,3.409,12.832l-3.483.127a2.525,2.525,0,0,0-2.514,2.3,2.183,2.183,0,0,0,2.4,2.124l2.058-.07C222.388,137.03,226.665,199,226.665,199l-2.339.006a2.428,2.428,0,0,0-2.542,2.192h0a2.284,2.284,0,0,0,2.436,2.181h14.408a2.482,2.482,0,0,0,2.605-2.206,2.3,2.3,0,0,0-2.47-2.2l-2.372.006s7.241-62.637-.141-65.173l2.078-.071a2.566,2.566,0,0,0,2.562-2.313,2.193,2.193,0,0,0-2.429-2.141l-3.511.128c.188-.008,4.077-.339,4.155-13.192l13.546-.6c-.774,12.979,3.177,13.023,3.369,13.018l-3.582.131a2.617,2.617,0,0,0-2.609,2.337,2.206,2.206,0,0,0,2.448,2.153l2.117-.072c-7.656,3.053-3.8,65.755-3.8,65.755l-2.4.006a2.514,2.514,0,0,0-2.635,2.222,2.306,2.306,0,0,0,2.48,2.212H262.84a2.573,2.573,0,0,0,2.7-2.237,2.32,2.32,0,0,0-2.516-2.235l-2.438.006s8-63.386.438-65.955l2.138-.073a2.661,2.661,0,0,0,2.659-2.348,2.216,2.216,0,0,0-2.475-2.171l-3.612.133c.194-.009,4.2-.346,4.412-13.389l13.939-.615c-.935,13.172,3.128,13.215,3.326,13.209l-3.686.135a2.715,2.715,0,0,0-2.708,2.373,2.229,2.229,0,0,0,2.495,2.184l2.178-.074c-7.907,3.1-4.507,66.555-4.507,66.555l-2.471.006a2.607,2.607,0,0,0-2.733,2.254,2.329,2.329,0,0,0,2.526,2.242h15.226a2.669,2.669,0,0,0,2.8-2.268,2.344,2.344,0,0,0-2.563-2.266l-2.507.007s8.8-64.158,1.05-66.761l2.2-.075a2.762,2.762,0,0,0,2.761-2.384,2.239,2.239,0,0,0-2.523-2.2l-3.717.136c.2-.009,4.319-.353,4.683-13.591l14.348-.633c-1.1,13.371,3.076,13.412,3.28,13.406l-3.794.139a2.819,2.819,0,0,0-2.813,2.409,2.252,2.252,0,0,0,2.543,2.215l2.242-.076c-8.169,3.151-5.248,67.378-5.248,67.378l-2.542.006a2.706,2.706,0,0,0-2.835,2.286,2.352,2.352,0,0,0,2.574,2.274h15.662a2.771,2.771,0,0,0,2.908-2.3,2.367,2.367,0,0,0-2.612-2.3l-2.579.006s9.648-64.952,1.7-67.59l2.264-.078a2.869,2.869,0,0,0,2.867-2.421,2.263,2.263,0,0,0-2.573-2.234l-3.826.14c.205-.009,4.449-.361,4.969-13.8l17.89-.789a1.9,1.9,0,0,0,1.833-1.633l.262-3.651a1.393,1.393,0,0,0-1.3-1.469" transform="translate(-99.297 -49.528)" fill="#cadefc"/>
        <path id="Trazado_875435" data-name="Trazado 875435" d="M466.613,284.243s-12.672,41.436-33,41.436h56.94c20.324,0,33-41.436,33-41.436a307.922,307.922,0,0,1-56.94,0" transform="translate(-263.061 -172.441)" fill="#fff"/>
        <path id="Trazado_875436" data-name="Trazado 875436" d="M569.589,296.966l-33.879-.186-9.567-.053c-.583,0-.583.981,0,.985l33.879.186,9.567.053c.583,0,.583-.982,0-.985" transform="translate(-318.928 -180.014)" fill="#aac8ff"/>
        <path id="Trazado_875437" data-name="Trazado 875437" d="M559.927,308.475H522.656c-.583,0-.584.984,0,.984h37.271c.583,0,.583-.984,0-.984" transform="translate(-316.812 -187.141)" fill="#aac8ff"/>
        <path id="Trazado_875438" data-name="Trazado 875438" d="M553.02,320.2l-25.852-.062-7.418-.018c-.583,0-.583.983,0,.984l25.852.062,7.418.018c.583,0,.583-.983,0-.985" transform="translate(-315.049 -194.206)" fill="#aac8ff"/>
        <path id="Trazado_875439" data-name="Trazado 875439" d="M541.737,332.77,515.1,332.7c-.583,0-.584.983,0,.985l26.639.067c.583,0,.583-.983,0-.985" transform="translate(-312.228 -201.84)" fill="#aac8ff"/>
        <path id="Trazado_875440" data-name="Trazado 875440" d="M549.6,344.015l-30.766-.219-8.678-.062c-.583,0-.583.981,0,.985l30.766.219L549.6,345c.583,0,.583-.98,0-.984" transform="translate(-309.231 -208.533)" fill="#aac8ff"/>
        <path id="Trazado_875441" data-name="Trazado 875441" d="M533.893,354.715l-23.171-.282-6.669-.081c-.583-.007-.583.977,0,.985l23.171.282,6.669.081c.582.007.583-.977,0-.984" transform="translate(-305.527 -214.973)" fill="#aac8ff"/>
        <path id="Trazado_875442" data-name="Trazado 875442" d="M534.763,364.833l-28.683-.285-8.131-.081c-.582-.006-.583.979,0,.985l28.683.285,8.131.081c.583.006.583-.979,0-.985" transform="translate(-301.824 -221.11)" fill="#aac8ff"/>
        <path id="Trazado_875443" data-name="Trazado 875443" d="M338.424,219.454h-56.94c23.612,0,39.516,66.92,59.839,66.92h56.94c-20.323,0-36.227-66.92-59.839-66.92" transform="translate(-170.767 -133.135)" fill="#f7d7b5"/>
        <path id="Trazado_875444" data-name="Trazado 875444" d="M211.808,286.374s26.191-66.919,49.8-66.919H204.67c-23.611,0-49.8,66.919-49.8,66.919a342.11,342.11,0,0,1,56.94,0" transform="translate(-93.953 -133.136)" fill="#fff"/>
        <path id="Trazado_875445" data-name="Trazado 875445" d="M303.914,236.532H262.07c-.583,0-.583.985,0,.985h41.845c.583,0,.583-.985,0-.985" transform="translate(-158.724 -143.496)" fill="#aac8ff"/>
        <path id="Trazado_875446" data-name="Trazado 875446" d="M283.367,246.493H248.554c-.583,0-.583.985,0,.985h34.814c.582,0,.583-.985,0-.985" transform="translate(-150.524 -149.539)" fill="#aac8ff"/>
        <path id="Trazado_875447" data-name="Trazado 875447" d="M271.8,258.352h-33.27c-.583,0-.583.985,0,.985H271.8c.583,0,.583-.985,0-.985" transform="translate(-144.44 -156.734)" fill="#aac8ff"/>
        <path id="Trazado_875448" data-name="Trazado 875448" d="M257.871,295.395l-32.754.461-9.261.13c-.582.008-.584.993,0,.985l32.754-.461,9.262-.13c.582-.008.584-.993,0-.985" transform="translate(-130.687 -179.206)" fill="#aac8ff"/>
        <path id="Trazado_875449" data-name="Trazado 875449" d="M241.1,309.387l-25.781.082-7.318.023c-.582,0-.583.986,0,.984l25.781-.082,7.318-.024c.582,0,.583-.987,0-.985" transform="translate(-125.925 -187.695)" fill="#aac8ff"/>
        <path id="Trazado_875450" data-name="Trazado 875450" d="M237.059,323.325l-27.382.122-7.775.035c-.583,0-.584.987,0,.984l27.382-.122,7.775-.035c.582,0,.583-.987,0-.984" transform="translate(-122.222 -196.151)" fill="#aac8ff"/>
        <path id="Trazado_875451" data-name="Trazado 875451" d="M224.729,335.228l-26.753-.389c-.583-.008-.583.976,0,.985l26.753.389c.583.008.583-.977,0-.985" transform="translate(-119.84 -203.136)" fill="#aac8ff"/>
        <path id="Trazado_875452" data-name="Trazado 875452" d="M230.768,349.216l-27.953.09-7.89.026c-.582,0-.583.987,0,.985l27.953-.09,7.89-.025c.582,0,.583-.987,0-.985" transform="translate(-117.989 -211.858)" fill="#aac8ff"/>
        <path id="Trazado_875453" data-name="Trazado 875453" d="M265.1,269.255l-25.139-.291-7.1-.082c-.583-.007-.583.978,0,.985l25.139.291,7.1.082c.583.007.583-.978,0-.985" transform="translate(-141.001 -163.122)" fill="#aac8ff"/>
        <path id="Trazado_875454" data-name="Trazado 875454" d="M271.194,363.3c0,1.992-3.175,3.607-7.092,3.607s-7.092-1.615-7.092-3.607,3.175-3.607,7.092-3.607,7.092,1.615,7.092,3.607" transform="translate(-155.919 -218.213)" fill="#ffb552"/>
        <path id="Trazado_875455" data-name="Trazado 875455" d="M349.389,130.7l.417,4.247c-.942.077-1.885.154-2.827.224q-8.048.645-16.109,1.191c-6.312.459-12.632.832-18.953,1.239l-4.691.3a3.491,3.491,0,0,0-2.825,1.911,2.937,2.937,0,0,0-.274.848c-.006.039-.014.065-.023.115l-.019.16-.041.32-.084.632-.336,2.545-.683,5.08-.708,5.078-.358,2.536-.18,1.27a4.6,4.6,0,0,1-.137.724,3.686,3.686,0,0,1-.28.717,3.611,3.611,0,0,1-.7.938,3.574,3.574,0,0,1-1.425.849,3.706,3.706,0,0,1-2.633-.166,3.626,3.626,0,0,1-1.882-1.975l-.109-.337c-.026-.118-.051-.233-.073-.352l-.038-.351-.015-.323-.067-1.286.344-.03.188,1.276.045.32.06.289.086.279.109.262a2.833,2.833,0,0,0,1.613,1.425,2.864,2.864,0,0,0,2.035-.069,2.678,2.678,0,0,0,1.4-1.375,2.259,2.259,0,0,0,.148-.472,3.949,3.949,0,0,0,.058-.54l.1-1.282.185-2.566.377-5.129.4-5.124.206-2.56.055-.642.024-.318.015-.163.022-.2a5.748,5.748,0,0,1,.417-1.584,5.908,5.908,0,0,1,4.63-3.573l4.763-.525c6.294-.676,12.582-1.385,18.878-2q9.445-.975,18.894-1.837" transform="translate(-178.564 -79.29)" fill="#7d97d3"/>
        <g id="Grupo_1099719" data-name="Grupo 1099719" transform="translate(122.014 53.451)" style="mix-blend-mode: multiply;isolation: isolate">
          <g id="Grupo_1099718" data-name="Grupo 1099718">
            <g id="Grupo_1099717" data-name="Grupo 1099717" clip-path="url(#clip-path-3)">
              <path id="Trazado_875456" data-name="Trazado 875456" d="M360.18,135.893l-.9.612-2.671,1.815q-8.048.645-16.109,1.191c-6.312.459-12.632.832-18.953,1.239l-4.691.3a3.491,3.491,0,0,0-2.825,1.911,2.933,2.933,0,0,0-.274.848c-.006.039-.014.065-.023.115l-.019.16-.041.32-.084.632-.336,2.545-.683,5.08-.708,5.078-.358,2.536-.18,1.27a4.6,4.6,0,0,1-.137.724,3.707,3.707,0,0,1-.28.717,3.621,3.621,0,0,1-.7.938c1.222-1.061,1.934-12.388,2.892-20.461a3.679,3.679,0,0,1,3.2-3.258l42.927-4.224Z" transform="translate(-310.205 -135.893)" fill="#b1c8e5"/>
            </g>
          </g>
        </g>
        <path id="Trazado_875457" data-name="Trazado 875457" d="M433.515,126.213l.417,4.247c.942-.085,1.883-.17,2.824-.262q8.039-.735,16.071-1.572c6.3-.623,12.583-1.333,18.877-2.008l4.672-.5a3.591,3.591,0,0,1,3.149,1.4,3,3,0,0,1,.435.788c.014.036.027.062.045.109l.049.154.1.308.205.608.826,2.445,1.661,4.879,1.685,4.873.845,2.432.425,1.218a4.666,4.666,0,0,0,.275.688,3.792,3.792,0,0,0,.415.657,3.728,3.728,0,0,0,.872.8,3.67,3.67,0,0,0,4.123-.018,3.5,3.5,0,0,0,1.466-2.262l.042-.35c0-.121,0-.238,0-.358l-.031-.351-.048-.32-.184-1.276-.344.029.064,1.287.018.323,0,.294-.031.289-.056.276a2.736,2.736,0,0,1-1.309,1.675,2.854,2.854,0,0,1-2.014.278,2.77,2.77,0,0,1-1.648-1.113,2.312,2.312,0,0,1-.237-.439,4.029,4.029,0,0,1-.162-.521l-.344-1.244-.682-2.492-1.369-4.979-1.393-4.969-.7-2.482-.179-.621-.086-.309-.047-.158-.061-.191a5.868,5.868,0,0,0-.718-1.486,6.09,6.09,0,0,0-5.248-2.725l-4.786.294c-6.32.407-12.641.78-18.952,1.243q-9.477.65-18.936,1.411" transform="translate(-262.999 -74.778)" fill="#7d97d3"/>
        <g id="Grupo_1099722" data-name="Grupo 1099722" transform="translate(169.769 50.406)" style="mix-blend-mode: multiply;isolation: isolate">
          <g id="Grupo_1099721" data-name="Grupo 1099721">
            <g id="Grupo_1099720" data-name="Grupo 1099720" clip-path="url(#clip-path-4)">
              <path id="Trazado_875458" data-name="Trazado 875458" d="M431.616,131.387l1.008.448,2.98,1.33q8.039-.735,16.071-1.572c6.3-.623,12.583-1.333,18.878-2.008l4.672-.5a3.591,3.591,0,0,1,3.149,1.4,2.991,2.991,0,0,1,.434.788c.014.036.027.062.046.109l.05.154.1.308.205.608.826,2.445,1.661,4.879,1.685,4.873.845,2.432.424,1.218a4.722,4.722,0,0,0,.276.688,3.783,3.783,0,0,0,.415.657,3.737,3.737,0,0,0,.873.8c-1.408-.835-4.315-11.852-6.828-19.627a3.8,3.8,0,0,0-3.783-2.659l-43.032,3.156Z" transform="translate(-431.616 -128.152)" fill="#b1c8e5"/>
            </g>
          </g>
        </g>
        <path id="Trazado_875459" data-name="Trazado 875459" d="M431.782,124.376c-1.4,4.037-5.3,6.473-8.71,5.441s-5.048-5.142-3.652-9.18,5.3-6.473,8.71-5.441,5.049,5.142,3.652,9.18" transform="translate(-254.146 -69.742)" fill="#7d97d3"/>
        <g id="Grupo_1099725" data-name="Grupo 1099725" transform="translate(164.93 47.797)" style="mix-blend-mode: multiply;isolation: isolate">
          <g id="Grupo_1099724" data-name="Grupo 1099724">
            <g id="Grupo_1099723" data-name="Grupo 1099723" clip-path="url(#clip-path-5)">
              <path id="Trazado_875460" data-name="Trazado 875460" d="M432.021,128.356c-1.4,4.034-5.3,6.471-8.711,5.439a5.934,5.934,0,0,1-4-4.707,5.518,5.518,0,0,0,3.057,2.345c3.415,1.033,7.314-1.4,8.711-5.438a8.5,8.5,0,0,0,.34-4.477,7.9,7.9,0,0,1,.6,6.839" transform="translate(-419.313 -121.517)" fill="#b1c8e5"/>
            </g>
          </g>
        </g>
        <g id="Grupo_1099728" data-name="Grupo 1099728" transform="translate(167.706 46.18)" style="mix-blend-mode: soft-light;isolation: isolate">
          <g id="Grupo_1099727" data-name="Grupo 1099727">
            <g id="Grupo_1099726" data-name="Grupo 1099726" clip-path="url(#clip-path-6)">
              <path id="Trazado_875461" data-name="Trazado 875461" d="M429.3,120.732c-1.287.8-2.57.854-2.865.112s.509-2,1.8-2.8,2.57-.854,2.865-.112-.509,2-1.8,2.8" transform="translate(-426.372 -117.406)" fill="#fff"/>
            </g>
          </g>
        </g>
        <path id="Trazado_875462" data-name="Trazado 875462" d="M432.772,232.21H424.2c1.749-23.541,1.922-50.778,1.685-80.411h4.827c-.426,28.98.04,56.216,2.062,80.411" transform="translate(-257.347 -92.091)" fill="#7d97d3"/>
        <g id="Grupo_1099731" data-name="Grupo 1099731" transform="translate(168.504 59.708)" style="mix-blend-mode: soft-light;isolation: isolate">
          <g id="Grupo_1099730" data-name="Grupo 1099730">
            <g id="Grupo_1099729" data-name="Grupo 1099729" clip-path="url(#clip-path-7)">
              <path id="Trazado_875463" data-name="Trazado 875463" d="M430.78,151.8l-.487,80.411H428.4c1.8-19.625,1.2-67.77,1.011-80.411Z" transform="translate(-428.401 -151.799)" fill="#fff"/>
            </g>
          </g>
        </g>
        <path id="Trazado_875464" data-name="Trazado 875464" d="M431.395,308.309h-5.929a1.314,1.314,0,1,0,0,2.626h5.929a1.314,1.314,0,1,0,0-2.626" transform="translate(-257.293 -187.041)" fill="#42669a"/>
        <path id="Trazado_875465" data-name="Trazado 875465" d="M431.522,268.164h-4.694c-1.43,0-1.433,2.626,0,2.626h4.694c1.43,0,1.433-2.626,0-2.626" transform="translate(-258.291 -162.686)" fill="#42669a"/>
        <path id="Trazado_875466" data-name="Trazado 875466" d="M431.522,229.376h-4.694c-1.43,0-1.433,2.626,0,2.626h4.694c1.43,0,1.433-2.626,0-2.626" transform="translate(-258.291 -139.155)" fill="#42669a"/>
        <path id="Trazado_875467" data-name="Trazado 875467" d="M431.825,190.589h-4.207c-1.282,0-1.284,2.626,0,2.626h4.207c1.282,0,1.284-2.626,0-2.626" transform="translate(-258.838 -115.624)" fill="#42669a"/>
        <path id="Trazado_875468" data-name="Trazado 875468" d="M431.522,151.8h-4.694c-1.43,0-1.433,2.626,0,2.626h4.694c1.43,0,1.433-2.626,0-2.626" transform="translate(-258.291 -92.093)" fill="#42669a"/>
        <path id="Trazado_875469" data-name="Trazado 875469" d="M427.7,354.431H396.168a3.984,3.984,0,0,1,.189-.393c.75-1.372,4-5.908,14.382-6.233a.412.412,0,0,1,.047,0c.373-.012.755-.016,1.15-.016,11.328,0,14.8,4.829,15.578,6.253a3.984,3.984,0,0,1,.189.393" transform="translate(-240.342 -210.99)" fill="#42669a"/>
        <path id="Trazado_875470" data-name="Trazado 875470" d="M423.29,365.909H375.5a4.734,4.734,0,0,1,.592-.834c.073-.088.155-.188.249-.289a17.416,17.416,0,0,1,7.476-4.364,36.148,36.148,0,0,1,4.637-1.191,58.817,58.817,0,0,1,10.942-.922,61.126,61.126,0,0,1,9.706.706l.017,0a37.176,37.176,0,0,1,5.855,1.4,17.421,17.421,0,0,1,7.472,4.364,5.463,5.463,0,0,1,.841,1.123" transform="translate(-227.805 -217.374)" fill="#7d97d3"/>
        <path id="Trazado_875471" data-name="Trazado 875471" d="M411.565,379.428H320.543s4.058-4.311,22.459-6.441c1.347-.156,2.767-.3,4.272-.429.094-.008.18-.016.253-.024l.15-.012.142-.012c5.113-.421,11.144-.682,18.238-.682,6.64,0,12.349.229,17.243.606,2.08.16,4.01.345,5.808.553,18.4,2.13,22.459,6.441,22.459,6.441" transform="translate(-194.463 -225.576)" fill="#42669a"/>
        <g id="Grupo_1099734" data-name="Grupo 1099734" transform="translate(171.594 136.796)" style="mix-blend-mode: multiply;isolation: isolate">
          <g id="Grupo_1099733" data-name="Grupo 1099733">
            <g id="Grupo_1099732" data-name="Grupo 1099732" clip-path="url(#clip-path-8)">
              <path id="Trazado_875472" data-name="Trazado 875472" d="M481.764,364.842H469.956c-2.419-2.394-6.614-4.159-10.166-5.318a58.384,58.384,0,0,0-6.292-1.676,9.941,9.941,0,0,0-3.474-3.417,16.626,16.626,0,0,0-4.045-1.8.065.065,0,0,0-.017,0c-2.539-3.565-9.707-4.845-9.707-4.845,11.328,0,14.8,4.829,15.579,6.252a17.426,17.426,0,0,1,7.472,4.364c18.4,2.13,22.459,6.441,22.459,6.441" transform="translate(-436.255 -347.785)" fill="#b1c8e5"/>
            </g>
          </g>
        </g>
        <g id="Grupo_1099737" data-name="Grupo 1099737" transform="translate(126.08 136.816)" style="mix-blend-mode: soft-light;isolation: isolate">
          <g id="Grupo_1099736" data-name="Grupo 1099736">
            <g id="Grupo_1099735" data-name="Grupo 1099735" clip-path="url(#clip-path-9)">
              <path id="Trazado_875473" data-name="Trazado 875473" d="M364.859,347.836c-.609.032-7.18.509-9.745,5.041a0,0,0,0,0,0,0,17.684,17.684,0,0,0-3.732,1.58,8.315,8.315,0,0,0-3.56,3.493l-.142.012-.15.012c-.073.008-.158.016-.253.024a44.373,44.373,0,0,0-4.521.718c-4.049.862-9.518,2.627-12.456,6.152h-9.753s4.058-4.311,22.459-6.441a17.414,17.414,0,0,1,7.476-4.363c.75-1.372,4-5.908,14.382-6.233" transform="translate(-320.543 -347.836)" fill="#fff"/>
            </g>
          </g>
        </g>
        <path id="Trazado_875474" data-name="Trazado 875474" d="M238.888,232.735l25.969-27.984,26.021,27.984" transform="translate(-144.925 -124.216)" fill="none" stroke="#ffb552" stroke-linecap="round" stroke-linejoin="round" stroke-width="1.801"/>
        <line id="Línea_592" data-name="Línea 592" x2="10.211" y2="27.984" transform="translate(119.932 80.535)" fill="none" stroke="#ffb552" stroke-linecap="round" stroke-linejoin="round" stroke-width="1.801"/>
        <path id="Trazado_875475" data-name="Trazado 875475" d="M289.824,269.952s-3.695,17.671-31.266,17.671c-.317,0-.63,0-.943-.009-26.709-.4-30.32-17.663-30.32-17.663,1.187-.155,2.375-.307,3.562-.441q5.374-.635,10.743-1.023a232.152,232.152,0,0,1,40.256.518q3.984.4,7.967.946" transform="translate(-137.892 -162.499)" fill="#ffb552"/>
        <g id="Grupo_1099740" data-name="Grupo 1099740" transform="translate(120.665 106.508)" style="mix-blend-mode: multiply;isolation: isolate">
          <g id="Grupo_1099739" data-name="Grupo 1099739">
            <g id="Grupo_1099738" data-name="Grupo 1099738" clip-path="url(#clip-path-10)">
              <path id="Trazado_875476" data-name="Trazado 875476" d="M338.042,271.729S334.348,289.4,306.776,289.4c0,0,17.134-3.407,23.3-18.617q3.984.4,7.967.946" transform="translate(-306.776 -270.783)" fill="#f7e1c6"/>
            </g>
          </g>
        </g>
        <g id="Grupo_1099743" data-name="Grupo 1099743" transform="translate(92.965 105.99)" opacity="0.5" style="mix-blend-mode: soft-light;isolation: isolate">
          <g id="Grupo_1099742" data-name="Grupo 1099742">
            <g id="Grupo_1099741" data-name="Grupo 1099741" clip-path="url(#clip-path-11)">
              <path id="Trazado_875477" data-name="Trazado 875477" d="M264.052,288.6c-.317,0-.63,0-.943-.009-16.227-.363-23.5-10.045-26.757-18.1q5.374-.635,10.743-1.023c4.04,15.365,16.957,19.135,16.957,19.135" transform="translate(-236.352 -269.465)" fill="#fff"/>
            </g>
          </g>
        </g>
        <path id="Trazado_875478" data-name="Trazado 875478" d="M513.838,210.876l25.969-27.984,26.021,27.984" transform="translate(-311.728 -110.955)" fill="none" stroke="#ffb552" stroke-linecap="round" stroke-linejoin="round" stroke-width="1.801"/>
        <line id="Línea_593" data-name="Línea 593" x2="10.211" y2="27.984" transform="translate(228.079 71.938)" fill="none" stroke="#ffb552" stroke-linecap="round" stroke-linejoin="round" stroke-width="1.801"/>
        <path id="Trazado_875479" data-name="Trazado 875479" d="M564.774,248.094s-3.695,17.671-31.266,17.671c-.317,0-.63,0-.943-.009-26.709-.4-30.32-17.663-30.32-17.663,1.188-.155,2.375-.307,3.562-.441q5.374-.635,10.743-1.023a232.154,232.154,0,0,1,40.256.518q3.984.4,7.967.946" transform="translate(-304.695 -149.238)" fill="#ffb552"/>
        <g id="Grupo_1099746" data-name="Grupo 1099746" transform="translate(228.812 97.91)" style="mix-blend-mode: multiply;isolation: isolate">
          <g id="Grupo_1099745" data-name="Grupo 1099745">
            <g id="Grupo_1099744" data-name="Grupo 1099744" clip-path="url(#clip-path-10)">
              <path id="Trazado_875480" data-name="Trazado 875480" d="M612.992,249.871s-3.695,17.671-31.266,17.671c0,0,17.134-3.407,23.3-18.617q3.984.4,7.967.946" transform="translate(-581.726 -248.925)" fill="#f7e1c6"/>
            </g>
          </g>
        </g>
        <g id="Grupo_1099749" data-name="Grupo 1099749" transform="translate(201.112 97.392)" opacity="0.5" style="mix-blend-mode: soft-light;isolation: isolate">
          <g id="Grupo_1099748" data-name="Grupo 1099748">
            <g id="Grupo_1099747" data-name="Grupo 1099747" clip-path="url(#clip-path-11)">
              <path id="Trazado_875481" data-name="Trazado 875481" d="M539,266.742c-.317,0-.63,0-.943-.009-16.227-.363-23.5-10.045-26.757-18.1q5.374-.635,10.743-1.023C526.085,262.972,539,266.742,539,266.742" transform="translate(-511.302 -247.607)" fill="#fff"/>
            </g>
          </g>
        </g>
        <path id="Trazado_875482" data-name="Trazado 875482" d="M549.721,339.182H513.91c.182-.462.178-1.633.316-2.091l32.976.709,1.018-8.441H514.389c-.138-.459.219-2.117.037-2.575l35.3.523c1.156,3.4.978,7.854,0,11.875" transform="translate(-311.772 -198.249)" fill="#42669a"/>
        <path id="Trazado_875483" data-name="Trazado 875483" d="M633.273,341.122l-28.81-1.145a29.4,29.4,0,0,0-.322-11.878l29.132,1.349c1.791,3.433,1.61,7.669,0,11.673" transform="translate(-366.512 -199.047)" fill="#5e80bb"/>
        <path id="Trazado_875484" data-name="Trazado 875484" d="M551.523,341.771l-30.491-.656a7.979,7.979,0,0,0,0-7.785h31.509Z" transform="translate(-316.093 -202.22)" fill="#fff"/>
        <path id="Trazado_875485" data-name="Trazado 875485" d="M637.714,340.138c0,1.4-4.533,2.544-10.124,2.544s-10.124-1.139-10.124-2.544,4.533-2.544,10.124-2.544,10.124,1.139,10.124,2.544" transform="translate(-374.596 -204.807)" fill="#42669a"/>
        <path id="Trazado_875486" data-name="Trazado 875486" d="M552.512,338.381l-21.121-.493a.354.354,0,0,0,0,.708l21.121.493a.354.354,0,0,0,0-.708" transform="translate(-322.17 -204.985)" fill="#aac8ff"/>
        <path id="Trazado_875487" data-name="Trazado 875487" d="M559.724,345.253l-17.185-.434a.355.355,0,0,0,0,.709l17.185.433a.354.354,0,0,0,0-.708" transform="translate(-328.933 -209.19)" fill="#aac8ff"/>
        <path id="Trazado_875488" data-name="Trazado 875488" d="M532.1,370.337H489.026c.219-.555.578-1.58.745-2.131l40.528.469V358.521l-40.442.735c-.167-.551-.612-1.842-.831-2.393H532.1c1.391,4.085,1.176,8.638,0,13.474" transform="translate(-296.676 -216.497)" fill="#32547c"/>
        <path id="Trazado_875489" data-name="Trazado 875489" d="M633.208,369.606l-34.656.728a31.744,31.744,0,0,0,0-13.473l34.656,1.319c2.155,4.129,1.937,6.61,0,11.426" transform="translate(-363.122 -216.496)" fill="#42669a"/>
        <path id="Trazado_875490" data-name="Trazado 875490" d="M535.5,371.233,497.98,370.8c1.568-3.16,1.293-5.406-.387-9.031l37.9-.689Z" transform="translate(-301.873 -219.055)" fill="#fff"/>
        <path id="Trazado_875491" data-name="Trazado 875491" d="M535.706,367.341l-18.963.258-5.38.073a.355.355,0,0,0,0,.709l18.963-.258,5.38-.073a.354.354,0,0,0,0-.708" transform="translate(-310.019 -222.854)" fill="#aac8ff"/>
        <path id="Trazado_875492" data-name="Trazado 875492" d="M542.117,374.352l-21.469.324-6.1.092a.354.354,0,0,0,0,.708l21.469-.324,6.1-.092a.354.354,0,0,0,0-.708" transform="translate(-311.953 -227.107)" fill="#aac8ff"/>
        <path id="Trazado_875493" data-name="Trazado 875493" d="M560.082,378.644h3.566a16.083,16.083,0,0,1-10.94,4.863A3.935,3.935,0,0,0,554.6,382.3a18.362,18.362,0,0,1-5.745.724s8.133-1.267,11.23-4.375" transform="translate(-332.97 -229.711)" fill="#ffb552"/>
        <path id="Trazado_875494" data-name="Trazado 875494" d="M281.178,325.9a2.842,2.842,0,0,1-.6.983c-7.4,7.977-61.743-22.335-61.743-22.335s-5.653,4.7-8.99-2.913l-7.208-1.688s-1.045,2.72-3.667.484l4.3-11.629s2.614.854,2.283,3.259l6.2,4.42s6.182-4.2,8.56,3.168c0,0,64.988,15.122,60.871,26.25" transform="translate(-120.705 -175.208)" fill="#32547c"/>
        <g id="Grupo_1099752" data-name="Grupo 1099752" transform="translate(78.259 116.953)" style="mix-blend-mode: multiply;isolation: isolate">
          <g id="Grupo_1099751" data-name="Grupo 1099751">
            <g id="Grupo_1099750" data-name="Grupo 1099750" clip-path="url(#clip-path-14)">
              <path id="Trazado_875495" data-name="Trazado 875495" d="M280.573,332.063c-7.4,7.977-61.743-22.335-61.743-22.335s-5.653,4.7-8.99-2.912l-7.208-1.688s-1.045,2.72-3.668.484l3.044-8.225c.094-.017.19-.033.286-.046q.1,2.456.2,4.907a30.365,30.365,0,0,0,8.288,2,6,6,0,0,0,8.862,2.776c15.686,8.476,31.959,16.894,48.8,22.757,3.907,1.359,8.074,2.584,12.134,2.286" transform="translate(-198.964 -297.34)" fill="#b1c8e5"/>
            </g>
          </g>
        </g>
        <path id="Trazado_875496" data-name="Trazado 875496" d="M132.868,337.64a20.324,20.324,0,0,1-6.477-.711l0,0a91.48,91.48,0,0,1-11.351-3.417,112.048,112.048,0,0,1-15.56-7.585,2.154,2.154,0,0,1-.848-.955c-.407-.952-.845-2.747,1.085-3.637a2.263,2.263,0,0,1,1.705-.018l25.766,9.534.007,0,6.264,2.318A2,2,0,0,1,134.887,335c-.062,1.178-.258,2.34-2.019,2.639" transform="translate(-59.621 -194.839)" fill="#32547c"/>
        <path id="Trazado_875497" data-name="Trazado 875497" d="M140.523,330.284a1.139,1.139,0,0,1-.866.563,2.906,2.906,0,0,1-.412.053,16.868,16.868,0,0,1-4.154-.612h0A91.2,91.2,0,0,1,125,327.163a116.779,116.779,0,0,1-12.677-5.824,1.92,1.92,0,0,1-.721-.662c-.046-.08-.1-.166-.141-.261a2.286,2.286,0,0,1-.187-.516,1.135,1.135,0,0,1,.865-1.458c.032-.015.061-.022.092-.033a2.154,2.154,0,0,1,1.34.093l25.862,9.569a2.757,2.757,0,0,1,.315.139,1.518,1.518,0,0,1,.922,1.121,1.922,1.922,0,0,1-.149.955" transform="translate(-67.48 -193.126)" fill="#7d97d3"/>
        <path id="Trazado_875498" data-name="Trazado 875498" d="M137.054,327.455c-.083,0-.169,0-.26-.011a31.267,31.267,0,0,1-5.472-1.141l-.007,0c-3.107-.859-6.89-2.095-10.373-3.387-2.888-1.072-6.238-2.521-9.036-3.795-1.748-.8-3.286-1.529-4.358-2.06-.463-.227-.841-.42-1.114-.561a2.54,2.54,0,0,1-.85-.684c-.464-.634-1.048-1.79.544-2.122a2.894,2.894,0,0,1,1.5.181l29.447,10.9c.8.3,1.408.827,1.461,1.286.077.722.032,1.414-1.477,1.4" transform="translate(-63.752 -190.285)" fill="#42669a"/>
        <path id="Trazado_875499" data-name="Trazado 875499" d="M149.38,264.525c-2.183,6.072-6.545,11.564-8.463,13.8-.1.116-.2.225-.282.324a1.634,1.634,0,0,1-.484.38,1.713,1.713,0,0,1-1.15.149q-1.7-.376-3.383-.816a110.294,110.294,0,0,1-22.744-8.874,1.625,1.625,0,0,1-.331-.227,1.679,1.679,0,0,1-.587-1.168c-.009-.149-.02-.313-.028-.5a41.826,41.826,0,0,1,2.548-15.989,32.374,32.374,0,0,1,9.543-13.341c.8-.659,1.3-.993,1.3-.993l22.582,8.587,3.33,1.266s.053.5.1,1.371c.159,2.907.248,9.932-1.943,16.026" transform="translate(-67.88 -143.947)" fill="#7d97d3"/>
        <path id="Trazado_875500" data-name="Trazado 875500" d="M169.541,245.5a14.351,14.351,0,0,1-2.637-.383c-1.211-.258-2.664-.639-4.25-1.1-2.864-.832-6.159-1.928-9.224-3.062-4.952-1.832-11.257-4.784-13.831-6.072-.268-.133-.5-.251-.677-.344a2.512,2.512,0,0,1-.85-.684c-.461-.632-1.048-1.79.547-2.12a2.9,2.9,0,0,1,1.5.181l29.443,10.894c.8.3,1.412.828,1.461,1.286.077.722.035,1.415-1.477,1.4" transform="translate(-83.461 -140.57)" fill="#42669a"/>
        <path id="Trazado_875501" data-name="Trazado 875501" d="M173.274,240.016a2.7,2.7,0,0,1-.424.055,21.49,21.49,0,0,1-5.378-.916h0c-2.694-.7-5.906-1.723-8.861-2.82a116.8,116.8,0,0,1-12.677-5.824,1.887,1.887,0,0,1-.72-.666c-.049-.081-.1-.17-.144-.266a1.417,1.417,0,0,1-.018-1.513,1.526,1.526,0,0,1,.789-.491,2.183,2.183,0,0,1,1.34.093l25.862,9.569c.708.262,1.221.784,1.236,1.263a3.86,3.86,0,0,1-.009.444,1.092,1.092,0,0,1-.993,1.072" transform="translate(-87.866 -138.022)" fill="#7d97d3"/>
        <path id="Trazado_875502" data-name="Trazado 875502" d="M173.088,229.443a12,12,0,0,1-3.622-.039,59.345,59.345,0,0,1-8.691-1.933l-.007,0c-.8-.234-1.619-.483-2.429-.742-1.351-.433-2.7-.9-4-1.38-.973-.36-1.987-.772-3.013-1.215a118.807,118.807,0,0,1-11.077-5.605c-.941-.538-1.683-.985-2.142-1.285a2.194,2.194,0,0,1-.866-1.059c-.4-1.068-.8-3.1,1.272-4.171a2.265,2.265,0,0,1,1.811-.076l33.538,12.409a2.091,2.091,0,0,1,1.454,2.03c-.1,1.344-.35,2.671-2.227,3.069" transform="translate(-83.065 -128.482)" fill="#32547c"/>
        <g id="Grupo_1099755" data-name="Grupo 1099755" transform="translate(66.77 94.531)" style="mix-blend-mode: multiply;isolation: isolate">
          <g id="Grupo_1099754" data-name="Grupo 1099754">
            <g id="Grupo_1099753" data-name="Grupo 1099753" clip-path="url(#clip-path-15)">
              <path id="Trazado_875503" data-name="Trazado 875503" d="M193.007,246.763a12,12,0,0,1-3.622-.039,1.092,1.092,0,0,1-.993,1.072l.688.255c.8.3,1.412.828,1.461,1.286.077.722.035,1.415-1.477,1.4a14.347,14.347,0,0,1-2.637-.383c.159,2.908.248,9.932-1.943,16.027-2.183,6.072-6.545,11.564-8.463,13.8l.282.1c.8.3,1.409.827,1.461,1.286.077.722.032,1.414-1.477,1.4-.083,0-.169,0-.26-.011a1.138,1.138,0,0,1-.866.564l1.658.613a2,2,0,0,1,1.431,1.827c-.062,1.178-.258,2.34-2.019,2.639a20.323,20.323,0,0,1-6.477-.711c4.348-2.057.963-4.827.842-4.928h0l-.044-1.146c.938-.454.173-1.6.173-1.6.242-.257.48-.512.711-.77.222-.242.436-.484.647-.726,12.2-14.057,10.1-29.464,10.1-29.464a1.14,1.14,0,0,0,.823-1.541,2.819,2.819,0,0,0-.409-.782h0c.622-.519-.067-1.136-.784-1.577a9.183,9.183,0,0,0-1.108-.566,16.364,16.364,0,0,0,5.688-.431c3.989-1.168,3.8-4.028,3.8-4.028l3.6,1.332a2.091,2.091,0,0,1,1.454,2.03c-.1,1.344-.35,2.671-2.227,3.069" transform="translate(-169.754 -240.332)" fill="#b1c8e5"/>
            </g>
          </g>
        </g>
        <g id="Grupo_1099758" data-name="Grupo 1099758" transform="translate(48.334 96.923)" opacity="0.5" style="mix-blend-mode: soft-light;isolation: isolate">
          <g id="Grupo_1099757" data-name="Grupo 1099757">
            <g id="Grupo_1099756" data-name="Grupo 1099756" clip-path="url(#clip-path-16)">
              <path id="Trazado_875504" data-name="Trazado 875504" d="M130.23,254.611c-2.562,3.556-5.628,5.736-6.847,4.869s-.13-4.452,2.432-8.007,5.627-5.736,6.847-4.869.13,4.452-2.432,8.008" transform="translate(-122.884 -246.414)" fill="#fff"/>
            </g>
          </g>
        </g>
        <path id="Trazado_875505" data-name="Trazado 875505" d="M142,365.717H100.039l.09-.56,1.022-6.219q3.26.232,6.493.4,2.489.135,4.961.212c.662.025,1.324.045,1.982.066.6.016,1.206.028,1.8.041q8.667.178,17.092-.225,3.788-.178,7.519-.49l.924,6.223Z" transform="translate(-60.69 -217.756)" fill="#7d97d3"/>
        <g id="Grupo_1099767" data-name="Grupo 1099767" transform="translate(46.405 141.578)" opacity="0.5">
          <g id="Grupo_1099766" data-name="Grupo 1099766">
            <g id="Grupo_1099765" data-name="Grupo 1099765" clip-path="url(#clip-path-17)">
              <g id="Grupo_1099761" data-name="Grupo 1099761" style="mix-blend-mode: soft-light;isolation: isolate">
                <g id="Grupo_1099760" data-name="Grupo 1099760">
                  <g id="Grupo_1099759" data-name="Grupo 1099759" clip-path="url(#clip-path-18)">
                    <path id="Trazado_875506" data-name="Trazado 875506" d="M123.488,360.157l-.592,6.17H117.98l.548-6.383q2.489.134,4.961.212" transform="translate(-117.98 -359.945)" fill="#fff"/>
                  </g>
                </g>
              </g>
              <g id="Grupo_1099764" data-name="Grupo 1099764" transform="translate(6.967 0.278)" style="mix-blend-mode: soft-light;isolation: isolate">
                <g id="Grupo_1099763" data-name="Grupo 1099763">
                  <g id="Grupo_1099762" data-name="Grupo 1099762" clip-path="url(#clip-path-19)">
                    <path id="Trazado_875507" data-name="Trazado 875507" d="M138.017,360.692l-.581,6.064h-1.745l.523-6.1c.6.017,1.205.029,1.8.041" transform="translate(-135.692 -360.651)" fill="#fff"/>
                  </g>
                </g>
              </g>
            </g>
          </g>
        </g>
        <path id="Trazado_875508" data-name="Trazado 875508" d="M138.446,380.7H83.708l1.083-6.779q2.716.184,5.431.327c.736.041,1.475.078,2.211.11q2.495.123,4.985.208c.654.024,1.307.049,1.961.061.609.024,1.218.041,1.827.053q5,.129,10.007.127,6.607,0,13.215-.221,3.794-.129,7.588-.335c1.843-.094,3.682-.208,5.525-.331Z" transform="translate(-50.783 -226.843)" fill="#42669a"/>
        <g id="Grupo_1099776" data-name="Grupo 1099776" transform="translate(41.106 147.511)" opacity="0.5">
          <g id="Grupo_1099775" data-name="Grupo 1099775">
            <g id="Grupo_1099774" data-name="Grupo 1099774" clip-path="url(#clip-path-20)">
              <g id="Grupo_1099770" data-name="Grupo 1099770" style="mix-blend-mode: soft-light;isolation: isolate">
                <g id="Grupo_1099769" data-name="Grupo 1099769">
                  <g id="Grupo_1099768" data-name="Grupo 1099768" clip-path="url(#clip-path-21)">
                    <path id="Trazado_875509" data-name="Trazado 875509" d="M110.035,375.237l-.585,6.133h-4.944l.544-6.342q2.495.123,4.985.208" transform="translate(-104.506 -375.029)" fill="#fff"/>
                  </g>
                </g>
              </g>
              <g id="Grupo_1099773" data-name="Grupo 1099773" transform="translate(6.971 0.27)" style="mix-blend-mode: soft-light;isolation: isolate">
                <g id="Grupo_1099772" data-name="Grupo 1099772">
                  <g id="Grupo_1099771" data-name="Grupo 1099771" clip-path="url(#clip-path-22)">
                    <path id="Trazado_875510" data-name="Trazado 875510" d="M124.574,375.768,124,381.787h-1.769l.519-6.072c.609.024,1.218.041,1.827.053" transform="translate(-122.229 -375.715)" fill="#fff"/>
                  </g>
                </g>
              </g>
            </g>
          </g>
        </g>
        <g id="Grupo_1099779" data-name="Grupo 1099779" transform="translate(72.79 141.182)" style="mix-blend-mode: multiply;isolation: isolate">
          <g id="Grupo_1099778" data-name="Grupo 1099778">
            <g id="Grupo_1099777" data-name="Grupo 1099777" clip-path="url(#clip-path-23)">
              <path id="Trazado_875511" data-name="Trazado 875511" d="M199.932,371.608h-5.627l-1.058-4.139-6.648-1.753-.682-.18,0-.041-.854-6.068q3.788-.178,7.519-.49l.923,6.223c1.843-.094,3.682-.208,5.525-.331Z" transform="translate(-185.059 -358.937)" fill="#b1c8e5"/>
            </g>
          </g>
        </g>
        <path id="Trazado_875512" data-name="Trazado 875512" d="M355.5,78.612a8.891,8.891,0,0,0,3.286,9.45,8.793,8.793,0,0,0,9.99-.03,8.7,8.7,0,0,0,3.084-9.486c-1.145-3.487-4.716-5.714-8.262-6.127C360,72,356.436,75.352,355.5,78.612Z" transform="translate(-215.477 -43.913)" fill="none" stroke="#aac8ff" stroke-linecap="round" stroke-linejoin="round" stroke-width="1.801"/>
        <path id="Trazado_875513" data-name="Trazado 875513" d="M368.236,78.612c-.4,3.417.157,7.387,1.328,9.45s2.874,2.057,4.038-.03,1.694-6.107,1.246-9.486c-.463-3.487-1.906-5.714-3.339-6.127C370.057,72,368.615,75.352,368.236,78.612Z" transform="translate(-223.319 -43.913)" fill="none" stroke="#aac8ff" stroke-linecap="round" stroke-linejoin="round" stroke-width="1.801"/>
        <line id="Línea_594" data-name="Línea 594" x2="17.067" transform="translate(139.705 37.081)" fill="none" stroke="#aac8ff" stroke-linecap="round" stroke-linejoin="round" stroke-width="1.801"/>
        <path id="Trazado_875514" data-name="Trazado 875514" d="M359.635,81.134a16.436,16.436,0,0,0,13.942.754" transform="translate(-218.179 -49.221)" fill="none" stroke="#aac8ff" stroke-linecap="round" stroke-linejoin="round" stroke-width="1.801"/>
        <path id="Trazado_875515" data-name="Trazado 875515" d="M358.454,103.571s5.076-2.732,14.9-.658" transform="translate(-217.462 -61.962)" fill="none" stroke="#aac8ff" stroke-linecap="round" stroke-linejoin="round" stroke-width="1.801"/>
        <path id="Trazado_875516" data-name="Trazado 875516" d="M513.166,62.081a81.043,81.043,0,0,0,13.424-6.708c3.044,2.686,7.521,4.845,12.809,6.708Z" transform="translate(-311.321 -33.593)" fill="none" stroke="#aac8ff" stroke-linecap="round" stroke-linejoin="round" stroke-width="1.801"/>
        <path id="Trazado_875517" data-name="Trazado 875517" d="M520.984,72.426l-.507,11.641h2.029V72.426Z" transform="translate(-315.756 -43.938)" fill="none" stroke="#aac8ff" stroke-linecap="round" stroke-linejoin="round" stroke-width="1.801"/>
        <path id="Trazado_875518" data-name="Trazado 875518" d="M532.221,72.426l-.507,11.641h2.028V72.426Z" transform="translate(-322.573 -43.938)" fill="none" stroke="#aac8ff" stroke-linecap="round" stroke-linejoin="round" stroke-width="1.801"/>
        <path id="Trazado_875519" data-name="Trazado 875519" d="M543.457,72.426l-.507,11.641h2.029V72.426Z" transform="translate(-329.39 -43.938)" fill="none" stroke="#aac8ff" stroke-linecap="round" stroke-linejoin="round" stroke-width="1.801"/>
        <path id="Trazado_875520" data-name="Trazado 875520" d="M554.7,72.426l-.507,11.641h2.028V72.426Z" transform="translate(-336.208 -43.938)" fill="none" stroke="#aac8ff" stroke-linecap="round" stroke-linejoin="round" stroke-width="1.801"/>
        <path id="Trazado_875521" data-name="Trazado 875521" d="M565.38,72.426l-.507,11.641H566.9V72.426Z" transform="translate(-342.689 -43.938)" fill="none" stroke="#aac8ff" stroke-linecap="round" stroke-linejoin="round" stroke-width="1.801"/>
        <path id="Trazado_875522" data-name="Trazado 875522" d="M513.943,102.023h24.343v1.916h-25.12Z" transform="translate(-311.321 -61.894)" fill="none" stroke="#aac8ff" stroke-linecap="round" stroke-linejoin="round" stroke-width="1.801"/>
        <path id="Trazado_875523" data-name="Trazado 875523" d="M106.662,155.093c8.735-3.137,9.616-11.4,9.847-13.011s2.239-4.841,2.239-4.841C110.3,136.075,106.9,130.7,106.9,130.7s-3.508,5.309-11.975,6.313c0,0,1.945,3.269,2.145,4.883S97.989,151.788,106.662,155.093Z" transform="translate(-57.586 -79.291)" fill="none" stroke="#aac8ff" stroke-linecap="round" stroke-linejoin="round" stroke-width="1.801"/>
        <path id="Trazado_875524" data-name="Trazado 875524" d="M110.81,157.176c6.763-2.506,7.447-9.1,7.627-10.39a15.771,15.771,0,0,1,1.734-3.866c-6.539-.929-9.174-5.22-9.174-5.22s-2.717,4.24-9.273,5.043a15.778,15.778,0,0,1,1.66,3.9C103.539,147.931,104.1,154.54,110.81,157.176Z" transform="translate(-61.713 -83.538)" fill="none" stroke="#aac8ff" stroke-linecap="round" stroke-linejoin="round" stroke-width="1.801"/>
        <path id="Trazado_875525" data-name="Trazado 875525" d="M116.682,158.06a47.262,47.262,0,0,0,3.066-3.776" transform="translate(-70.787 -93.599)" fill="none" stroke="#aac8ff" stroke-linecap="round" stroke-linejoin="round" stroke-width="1.801"/>
        <path id="Trazado_875526" data-name="Trazado 875526" d="M120.395,163.729q2.492-3.922,5.191-7.708" transform="translate(-73.04 -94.653)" fill="none" stroke="#aac8ff" stroke-linecap="round" stroke-linejoin="round" stroke-width="1.801"/>
        <path id="Trazado_875527" data-name="Trazado 875527" d="M629.834,150.106l-1.68-1.976s12.4-15.725,16.336-12.428S629.834,150.106,629.834,150.106Z" transform="translate(-381.08 -82.05)" fill="none" stroke="#aac8ff" stroke-linecap="round" stroke-linejoin="round" stroke-width="1.801"/>
        <path id="Trazado_875528" data-name="Trazado 875528" d="M623.889,169.976l-4.014,3.412-1.519-1.788,3.854-3.6" transform="translate(-375.136 -101.92)" fill="none" stroke="#aac8ff" stroke-linecap="round" stroke-linejoin="round" stroke-width="1.801"/>
        <path id="Trazado_875529" data-name="Trazado 875529" d="M612.8,178.915s.979,3.057-6.108,3.49c0,0,.822-5.642,4.589-5.278" transform="translate(-368.059 -107.447)" fill="none" stroke="#aac8ff" stroke-linecap="round" stroke-linejoin="round" stroke-width="1.801"/>
        <path id="Trazado_875530" data-name="Trazado 875530" d="M643.232,145.239a4.841,4.841,0,0,0-3.425-4.03l-1.022-1.2s-5.089,4.65-6.708,7.214" transform="translate(-383.46 -84.938)" fill="none" stroke="#aac8ff" stroke-linecap="round" stroke-linejoin="round" stroke-width="1.801"/>
        <path id="Trazado_875531" data-name="Trazado 875531" d="M205.562,68a40.307,40.307,0,0,0,12.079.736l-.15,2.469-12.079-.736Z" transform="translate(-124.617 -41.253)" fill="none" stroke="#aac8ff" stroke-linecap="round" stroke-linejoin="round" stroke-width="1.801"/>
        <path id="Trazado_875532" data-name="Trazado 875532" d="M231.463,75.923s2.155,6.457-.64,10.5" transform="translate(-140.033 -46.06)" fill="none" stroke="#aac8ff" stroke-linecap="round" stroke-linejoin="round" stroke-width="1.801"/>
        <path id="Trazado_875533" data-name="Trazado 875533" d="M203.554,100.98l12.079.736-.149,2.451a41.8,41.8,0,0,0-12.08-.736Z" transform="translate(-123.399 -61.261)" fill="none" stroke="#aac8ff" stroke-linecap="round" stroke-linejoin="round" stroke-width="1.801"/>
        <path id="Trazado_875534" data-name="Trazado 875534" d="M234.438,86.048s22.1-2.784,22.3-.051-22.005,1.783-22.005,1.783" transform="translate(-142.226 -51.443)" fill="none" stroke="#aac8ff" stroke-linecap="round" stroke-linejoin="round" stroke-width="1.801"/>
        <path id="Trazado_875535" data-name="Trazado 875535" d="M206.409,74.513s-3.76,5.482-.64,10.5" transform="translate(-124.082 -45.205)" fill="none" stroke="#aac8ff" stroke-linecap="round" stroke-linejoin="round" stroke-width="1.801"/>
        <path id="Trazado_875536" data-name="Trazado 875536" d="M233.663,126.929l.787,2.812,2.812.787-2.812.787-.787,2.812-.787-2.812-2.812-.787,2.812-.787Z" transform="translate(-139.572 -77.004)" fill="#ffb552"/>
        <path id="Trazado_875537" data-name="Trazado 875537" d="M383.871,188.114l.787,2.812,2.812.787-2.812.787-.787,2.812-.787-2.812-2.812-.787,2.812-.787Z" transform="translate(-230.698 -114.122)" fill="#ffb552"/>
        <path id="Trazado_875538" data-name="Trazado 875538" d="M249.885,145.23l.479,1.852,1.714.518-1.714.518-.479,1.852-.479-1.852-1.714-.518,1.714-.518Z" transform="translate(-150.266 -88.106)" fill="#ffb552"/>
        <path id="Trazado_875539" data-name="Trazado 875539" d="M628.37,197.036l.479,1.852,1.714.518-1.714.518-.479,1.852-.479-1.852-1.714-.518,1.714-.518Z" transform="translate(-379.881 -119.535)" fill="#ffb552"/>
        <path id="Trazado_875540" data-name="Trazado 875540" d="M485.642,103.056l.479,1.852,1.714.518-1.714.518-.479,1.852-.48-1.852-1.714-.518,1.714-.518Z" transform="translate(-293.293 -62.521)" fill="#ffb552"/>
        <path id="Trazado_875541" data-name="Trazado 875541" d="M634.558,215.781l.614,2.369,2.192.663-2.192.663-.614,2.369-.614-2.369-2.192-.663,2.192-.663Z" transform="translate(-383.263 -130.907)" fill="#ffb552"/>
        <path id="Trazado_875542" data-name="Trazado 875542" d="M108.151,209.755l.479,1.852,1.714.518-1.714.518-.479,1.852-.479-1.852-1.714-.518,1.714-.518Z" transform="translate(-64.281 -127.251)" fill="#ffb552"/>
      </g>
    </g>
  </g>
</svg>
