<svg xmlns="http://www.w3.org/2000/svg" width="85" height="74.375" viewBox="0 0 85 74.375">
  <g id="Grupo_1099891" data-name="Grupo 1099891" transform="translate(0 -32)">
    <path id="Trazado_876031" data-name="Trazado 876031" d="M71.493,39.543a.463.463,0,0,1,.394,0l36.493,18.218H35Z" transform="translate(-29.189 -6.254)" fill="#e4b591"/>
    <path id="Trazado_876032" data-name="Trazado 876032" d="M103,85.453,128.4,72.7l25.4,12.75Z" transform="translate(-85.9 -33.946)" fill="#d29d77"/>
    <path id="Trazado_876033" data-name="Trazado 876033" d="M87.52,447.48H9.99a2.49,2.49,0,1,1,0-4.98H87.52a2.49,2.49,0,0,1,0,4.98Z" transform="translate(-6.255 -342.351)" fill="#d67b42"/>
    <path id="Trazado_876034" data-name="Trazado 876034" d="M464.48,442.5H459.5a2.49,2.49,0,0,1,0,4.98h4.98a2.49,2.49,0,0,0,0-4.98Z" transform="translate(-383.216 -342.351)" fill="#be652b"/>
    <path id="Trazado_876035" data-name="Trazado 876035" d="M87.52,154.48H9.99a2.49,2.49,0,1,1,0-4.98H87.52a2.49,2.49,0,0,1,0,4.98Z" transform="translate(-6.255 -97.993)" fill="#fde6cd"/>
    <path id="Trazado_876036" data-name="Trazado 876036" d="M464.48,149.5H459.5a2.49,2.49,0,0,1,0,4.98h4.98a2.49,2.49,0,0,0,0-4.98Z" transform="translate(-383.216 -97.993)" fill="#f0cbac"/>
    <g id="Grupo_1099890" data-name="Grupo 1099890" transform="translate(5.977 56.487)">
      <path id="Trazado_876037" data-name="Trazado 876037" d="M48.285,184.48H37a1,1,0,0,1-1-1V179.5H49.281v3.984A1,1,0,0,1,48.285,184.48Z" transform="translate(-36 -179.5)" fill="#e4b591"/>
      <path id="Trazado_876038" data-name="Trazado 876038" d="M86,179.5v4.98h3.984a1,1,0,0,0,1-1V179.5Z" transform="translate(-77.699 -179.5)" fill="#d29d77"/>
      <path id="Trazado_876039" data-name="Trazado 876039" d="M49.281,371.48H36V367.5a1,1,0,0,1,1-1H48.285a1,1,0,0,1,1,1Z" transform="translate(-36 -335.455)" fill="#e4b591"/>
      <path id="Trazado_876040" data-name="Trazado 876040" d="M86,366.5v4.98h4.98V367.5a1,1,0,0,0-1-1Z" transform="translate(-77.699 -335.455)" fill="#d29d77"/>
      <path id="Trazado_876041" data-name="Trazado 876041" d="M46,209.5h9.961v26.064H46Z" transform="translate(-44.34 -204.52)" fill="#fde6cd"/>
      <path id="Trazado_876042" data-name="Trazado 876042" d="M76,209.5h4.98v26.064H76Z" transform="translate(-69.359 -204.52)" fill="#f0cbac"/>
      <path id="Trazado_876043" data-name="Trazado 876043" d="M168.285,184.48H157a1,1,0,0,1-1-1V179.5h13.281v3.984A1,1,0,0,1,168.285,184.48Z" transform="translate(-136.078 -179.5)" fill="#e4b591"/>
      <path id="Trazado_876044" data-name="Trazado 876044" d="M206,179.5v4.98h3.984a1,1,0,0,0,1-1V179.5Z" transform="translate(-177.777 -179.5)" fill="#d29d77"/>
      <path id="Trazado_876045" data-name="Trazado 876045" d="M169.281,371.48H156V367.5a1,1,0,0,1,1-1h11.289a1,1,0,0,1,1,1Z" transform="translate(-136.078 -335.455)" fill="#e4b591"/>
      <path id="Trazado_876046" data-name="Trazado 876046" d="M206,366.5v4.98h4.98V367.5a1,1,0,0,0-1-1Z" transform="translate(-177.777 -335.455)" fill="#d29d77"/>
      <path id="Trazado_876047" data-name="Trazado 876047" d="M166,209.5h9.961v26.064H166Z" transform="translate(-144.418 -204.52)" fill="#fde6cd"/>
      <path id="Trazado_876048" data-name="Trazado 876048" d="M196,209.5h4.98v26.064H196Z" transform="translate(-169.438 -204.52)" fill="#f0cbac"/>
      <path id="Trazado_876049" data-name="Trazado 876049" d="M288.285,184.48H277a1,1,0,0,1-1-1V179.5h13.281v3.984A1,1,0,0,1,288.285,184.48Z" transform="translate(-236.156 -179.5)" fill="#e4b591"/>
      <path id="Trazado_876050" data-name="Trazado 876050" d="M326,179.5v4.98h3.984a1,1,0,0,0,1-1V179.5Z" transform="translate(-277.855 -179.5)" fill="#d29d77"/>
      <path id="Trazado_876051" data-name="Trazado 876051" d="M289.281,371.48H276V367.5a1,1,0,0,1,1-1h11.289a1,1,0,0,1,1,1Z" transform="translate(-236.156 -335.455)" fill="#e4b591"/>
      <path id="Trazado_876052" data-name="Trazado 876052" d="M326,366.5v4.98h4.98V367.5a1,1,0,0,0-1-1Z" transform="translate(-277.855 -335.455)" fill="#d29d77"/>
      <path id="Trazado_876053" data-name="Trazado 876053" d="M286,209.5h9.961v26.064H286Z" transform="translate(-244.496 -204.52)" fill="#fde6cd"/>
      <path id="Trazado_876054" data-name="Trazado 876054" d="M316,209.5h4.98v26.064H316Z" transform="translate(-269.516 -204.52)" fill="#f0cbac"/>
      <path id="Trazado_876055" data-name="Trazado 876055" d="M408.285,184.48H397a1,1,0,0,1-1-1V179.5h13.281v3.984A1,1,0,0,1,408.285,184.48Z" transform="translate(-336.234 -179.5)" fill="#e4b591"/>
      <path id="Trazado_876056" data-name="Trazado 876056" d="M446,179.5v4.98h3.984a1,1,0,0,0,1-1V179.5Z" transform="translate(-377.934 -179.5)" fill="#d29d77"/>
      <path id="Trazado_876057" data-name="Trazado 876057" d="M409.281,371.48H396V367.5a1,1,0,0,1,1-1h11.289a1,1,0,0,1,1,1Z" transform="translate(-336.234 -335.455)" fill="#e4b591"/>
      <path id="Trazado_876058" data-name="Trazado 876058" d="M446,366.5v4.98h4.98V367.5a1,1,0,0,0-1-1Z" transform="translate(-377.934 -335.455)" fill="#d29d77"/>
      <path id="Trazado_876059" data-name="Trazado 876059" d="M406,209.5h9.961v26.064H406Z" transform="translate(-344.574 -204.52)" fill="#fde6cd"/>
      <path id="Trazado_876060" data-name="Trazado 876060" d="M436,209.5h4.98v26.064H436Z" transform="translate(-369.594 -204.52)" fill="#f0cbac"/>
    </g>
    <path id="Trazado_876061" data-name="Trazado 876061" d="M103.7,404.137H28V397.5a1,1,0,0,1,1-1h73.711a1,1,0,0,1,1,1Z" transform="translate(-23.352 -303.987)" fill="#fde6cd"/>
    <path id="Trazado_876062" data-name="Trazado 876062" d="M452.98,396.5H448a1,1,0,0,1,1,1v6.641h4.98V397.5A1,1,0,0,0,452.98,396.5Z" transform="translate(-373.625 -303.987)" fill="#f0cbac"/>
    <path id="Trazado_876063" data-name="Trazado 876063" d="M81.6,98.92V93.509a2.243,2.243,0,0,0-1.328-2.045V88.528a2.243,2.243,0,0,0-1.66-2.162V62.633a2.243,2.243,0,0,0,1.66-2.162V57.732h1a3.735,3.735,0,1,0,0-7.471H79.483l-14.813-7.4a1.245,1.245,0,1,0-1.112,2.228l10.351,5.167H68.2L43.058,37.644a1.245,1.245,0,0,0-1.117,0L16.8,50.261H11.092L42.5,34.582l16.3,8.14a1.245,1.245,0,1,0,1.112-2.228L43.253,32.174l-.018-.009a1.716,1.716,0,0,0-1.47,0l-.018.009L5.517,50.261H3.735a3.735,3.735,0,0,0,0,7.471h1v2.739a2.243,2.243,0,0,0,1.66,2.162v1.2a1.245,1.245,0,1,0,2.49,0V62.712h7.471V86.287H8.882V69.146a1.245,1.245,0,0,0-2.49,0v17.22a2.243,2.243,0,0,0-1.66,2.162v2.936A2.243,2.243,0,0,0,3.4,93.509V98.92a3.735,3.735,0,0,0,.332,7.455H58.5a1.245,1.245,0,1,0,0-2.49H3.735a1.245,1.245,0,0,1,0-2.49H81.265a1.245,1.245,0,0,1,0,2.49H63.814a1.245,1.245,0,1,0,0,2.49H81.265A3.735,3.735,0,0,0,81.6,98.92Zm-21.25-7.652V88.528a2.243,2.243,0,0,0-1.66-2.162V62.633a2.243,2.243,0,0,0,1.66-2.162V57.732H64.5v2.739a2.243,2.243,0,0,0,1.66,2.162V86.366a2.243,2.243,0,0,0-1.66,2.162v2.739h-4.15Zm-19.922,0V88.528a2.243,2.243,0,0,0-1.66-2.162V62.633a2.243,2.243,0,0,0,1.66-2.162V57.732h4.15v2.739a2.243,2.243,0,0,0,1.66,2.162V86.366a2.243,2.243,0,0,0-1.66,2.162v2.739h-4.15Zm-19.922,0V88.528a2.243,2.243,0,0,0-1.66-2.162V62.633a2.243,2.243,0,0,0,1.66-2.162V57.732h4.15v2.739a2.243,2.243,0,0,0,1.66,2.162V86.366a2.243,2.243,0,0,0-1.66,2.162v2.739H20.5Zm8.3-28.555h7.471V86.287H28.8Zm9.131-2.49H27.144v-2.49H37.935ZM27.144,88.777H37.935v2.49H27.144ZM48.726,62.712H56.2V86.287H48.726Zm9.131-2.49H47.065v-2.49H57.856ZM47.065,88.777H57.856v2.49H47.065Zm29.053-2.49H68.647V62.712h7.471Zm-9.131,2.49H77.778v2.49H66.987ZM77.778,60.222H66.987v-2.49H77.778ZM42.5,40.15,62.644,50.261H22.356ZM2.49,54a1.246,1.246,0,0,1,1.245-1.245H81.265a1.245,1.245,0,0,1,0,2.49H3.735A1.247,1.247,0,0,1,2.49,54Zm4.731,6.226v-2.49H18.013v2.49ZM18.013,88.777v2.49H7.222v-2.49ZM5.894,98.9V93.758H79.106V98.9Z"/>
  </g>
</svg>
