<svg xmlns="http://www.w3.org/2000/svg" width="120" height="121.025" viewBox="0 0 120 121.025">
  <g id="Grupo_1099789" data-name="Grupo 1099789" transform="translate(-452.787 -6334.973)">
    <rect id="Rectángulo_401794" data-name="Rectángulo 401794" width="120" height="121.025" rx="59" transform="translate(452.787 6334.973)" fill="#f5e9a1"/>
    <g id="Grupo_1099793" data-name="Grupo 1099793" transform="translate(473.787 6350.53)">
      <g id="Grupo_1099791" data-name="Grupo 1099791" transform="translate(1.529 8.972)">
        <path id="Trazado_875888" data-name="Trazado 875888" d="M281.245,199.9l5.277-14.15a3.71,3.71,0,0,1,4.059-2.545,3.53,3.53,0,0,1,2.994,4.037l-4.84,19.458a25.122,25.122,0,0,1-8.793,13.024l-8.363,5.984v3.529a1.529,1.529,0,0,1-1.529,1.529H256.024v-8.87a17.772,17.772,0,0,1,8.684-15.935l11.474-7.365a3.507,3.507,0,0,1,4.437,5.368l-7.727,6.094" transform="translate(-218.395 -157.828)" fill="#ffd4b5"/>
        <path id="Trazado_875889" data-name="Trazado 875889" d="M30.715,210.056l-7.727-6.094a3.507,3.507,0,0,1,4.437-5.368L38.9,205.959a17.772,17.772,0,0,1,8.684,15.935v8.87H33.558a1.529,1.529,0,0,1-1.529-1.529v-3.528l-8.363-5.984A25.121,25.121,0,0,1,14.873,206.7l-4.84-19.458a3.529,3.529,0,0,1,2.994-4.037,3.71,3.71,0,0,1,4.059,2.545l5.277,14.15" transform="translate(-10.001 -157.828)" fill="#ffd4b5"/>
        <path id="Trazado_875890" data-name="Trazado 875890" d="M286.019,125.909h-19.3v-9.725a6.005,6.005,0,0,1,6.005-6.005h8.821a6.005,6.005,0,0,1,6.005,6.005v8.2A1.529,1.529,0,0,1,286.019,125.909Z" transform="translate(-227.472 -96.002)" fill="#ffda8f"/>
        <path id="Trazado_875891" data-name="Trazado 875891" d="M129.842,125.909h-19.3a1.529,1.529,0,0,1-1.529-1.529v-8.2a6.005,6.005,0,0,1,6.005-6.005h8.821a6.005,6.005,0,0,1,6.005,6.005Z" transform="translate(-93.875 -96.002)" fill="#ff9eb1"/>
        <path id="Trazado_875892" data-name="Trazado 875892" d="M207.166,189.1H189.392a1.529,1.529,0,0,1-1.529-1.529v-8.2a6.005,6.005,0,0,1,6.005-6.005h8.821a6.005,6.005,0,0,1,6.005,6.005v8.2A1.529,1.529,0,0,1,207.166,189.1Z" transform="translate(-160.673 -149.535)" fill="#9de3d1"/>
        <g id="Grupo_1099790" data-name="Grupo 1099790" transform="translate(18.463 0)">
          <circle id="Elipse_11529" data-name="Elipse 11529" cx="7.088" cy="7.088" r="7.088" transform="translate(12.054 9.66)" fill="#ffd4b5"/>
          <circle id="Elipse_11530" data-name="Elipse 11530" cx="7.088" cy="7.088" r="7.088" transform="translate(24.108)" fill="#ffd4b5"/>
          <circle id="Elipse_11531" data-name="Elipse 11531" cx="7.088" cy="7.088" r="7.088" fill="#ffd4b5"/>
        </g>
      </g>
      <g id="Grupo_1099792" data-name="Grupo 1099792" transform="translate(0 7.443)">
        <path id="Trazado_875893" data-name="Trazado 875893" d="M74.01,173.2a5.252,5.252,0,0,0-5.759,3.442q-.015.034-.028.069L63.755,188.7a5.038,5.038,0,0,0-5.265.111l-11.459,7.355a19.213,19.213,0,0,0-7.9,9.063,19.213,19.213,0,0,0-7.9-9.063L19.78,188.807a5.038,5.038,0,0,0-5.267-.112s-4.486-12.028-4.5-12.051A5.252,5.252,0,0,0,4.259,173.2a5.071,5.071,0,0,0-4.215,5.725c.008.061,4.875,19.641,4.875,19.641a26.461,26.461,0,0,0,9.338,13.861l.048.036,7.724,5.526v2.743a3.061,3.061,0,0,0,3.057,3.057h28.1a3.061,3.061,0,0,0,3.057-3.057v-2.743l7.724-5.526.048-.036a26.463,26.463,0,0,0,9.339-13.863s4.866-19.578,4.874-19.639A5.071,5.071,0,0,0,74.01,173.2ZM37.588,213.255c0,.046-.006,7.479-.006,7.479h-12.5V217.2a1.529,1.529,0,0,0-.639-1.243L16.108,210a23.643,23.643,0,0,1-8.224-12.168L3.068,178.469a2.011,2.011,0,0,1,1.761-2.263.277.277,0,0,0,.033-.006c.293-.045,1.566-.13,2.333,1.619l5.079,13.622a5.006,5.006,0,0,0,1.134,5.073c.05.053,7.888,6.241,7.888,6.241a1.529,1.529,0,0,0,1.893-2.4l-7.629-6.017a1.992,1.992,0,0,1,.1-2.692,1.976,1.976,0,0,1,2.47-.267l11.506,7.385a15.973,15.973,0,0,1,7.235,9.171A15.766,15.766,0,0,1,37.588,213.255ZM75.2,178.469l-4.815,19.357A23.642,23.642,0,0,1,62.161,210l-8.339,5.966a1.528,1.528,0,0,0-.639,1.243v3.529h-12.5s0-7.433-.006-7.479a16.286,16.286,0,0,1,7.956-14.491l11.508-7.386a1.976,1.976,0,0,1,2.468.267,1.993,1.993,0,0,1,.1,2.692l-7.629,6.017a1.529,1.529,0,0,0,1.893,2.4s7.838-6.188,7.888-6.241a5.006,5.006,0,0,0,1.134-5.073l5.08-13.622c.767-1.749,2.04-1.664,2.333-1.619.017,0,0,0,.033.006a2.011,2.011,0,0,1,1.761,2.263Z" transform="translate(0 -147.798)"/>
        <path id="Trazado_875894" data-name="Trazado 875894" d="M102.17,40.407h8.9v6.6a3.061,3.061,0,0,0,3.057,3.057h1.935a1.529,1.529,0,1,0,0-3.057h-1.935s.006-8.224,0-8.269a4.481,4.481,0,0,1,4.475-4.4h8.821a4.481,4.481,0,0,1,4.475,4.4c0,.045,0,8.269,0,8.269h-1.91a1.529,1.529,0,1,0,0,3.057h1.91a3.061,3.061,0,0,0,3.057-3.057v-6.6h8.9a3.161,3.161,0,0,0,3.158-3.158v-8.1a7.547,7.547,0,0,0-5.592-7.279,8.616,8.616,0,1,0-14.767-3.963,8.593,8.593,0,0,0-7.28,0A8.617,8.617,0,1,0,104.6,21.875a7.547,7.547,0,0,0-5.592,7.279v8.1A3.162,3.162,0,0,0,102.17,40.407Zm41.782-11.253v8.1a.1.1,0,0,1-.1.1h-9.04a7.558,7.558,0,0,0-5.448-5.815,8.564,8.564,0,0,0,2.2-6.858h7.912A4.482,4.482,0,0,1,143.951,29.154ZM135.065,10.5a5.56,5.56,0,1,1-5.56,5.56A5.566,5.566,0,0,1,135.065,10.5ZM128.57,25.72a5.56,5.56,0,1,1-5.56-5.56A5.566,5.566,0,0,1,128.57,25.72ZM110.956,10.5a5.56,5.56,0,1,1-5.56,5.56A5.566,5.566,0,0,1,110.956,10.5ZM102.07,29.154a4.482,4.482,0,0,1,4.477-4.477h7.912a8.564,8.564,0,0,0,2.2,6.858,7.558,7.558,0,0,0-5.448,5.815h-9.04a.1.1,0,0,1-.1-.1Z" transform="translate(-83.876 -7.443)"/>
        <circle id="Elipse_11532" data-name="Elipse 11532" cx="1.529" cy="1.529" r="1.529" transform="translate(37.606 39.566)"/>
      </g>
    </g>
  </g>
</svg>
