<svg xmlns="http://www.w3.org/2000/svg" xmlns:xlink="http://www.w3.org/1999/xlink" width="138" height="137.997" viewBox="0 0 138 137.997">
  <defs>
    <filter id="Elipse_11505" x="0" y="0" width="138" height="137.997" filterUnits="userSpaceOnUse">
      <feOffset dy="3" input="SourceAlpha"/>
      <feGaussianBlur stdDeviation="3" result="blur"/>
      <feFlood flood-opacity="0.161"/>
      <feComposite operator="in" in2="blur"/>
      <feComposite in="SourceGraphic"/>
    </filter>
  </defs>
  <g id="Grupo_1099788" data-name="Grupo 1099788" transform="translate(-502.194 -9578.193)">
    <g transform="matrix(1, 0, 0, 1, 502.19, 9578.19)" filter="url(#Elipse_11505)">
      <g id="Elipse_11505-2" data-name="Elipse 11505" transform="translate(9 6)" fill="#e3dac6" stroke="#bcac89" stroke-width="2">
        <ellipse cx="60" cy="59.998" rx="60" ry="59.998" stroke="none"/>
        <ellipse cx="60" cy="59.998" rx="59" ry="58.998" fill="none"/>
      </g>
    </g>
    <g id="law_4801970" transform="translate(518.199 9584)">
      <g id="Grupo_1099786" data-name="Grupo 1099786" transform="translate(1.8 2.306)">
        <g id="Grupo_1099771" data-name="Grupo 1099771" transform="translate(0 66.39)">
          <path id="Trazado_875141" data-name="Trazado 875141" d="M11.8,57.279v10.8a3.61,3.61,0,0,0-3.6-3.6H6.4a5.392,5.392,0,0,0-5.4,5.4v-1.8c0-26.313,21.94-28.527,25.2-28.8l7.2,7.2,7.2-7.2a30.678,30.678,0,0,1,13.823,4.626C60.3,47.794,65.793,54.921,65.793,68.078v1.8a5.392,5.392,0,0,0-5.4-5.4h-1.8a3.61,3.61,0,0,0-3.6,3.6v-10.8h-3.6v-7.2h-7.9a12.181,12.181,0,0,0-10.1,5.4,12.142,12.142,0,0,0-10.1-5.4H15.4v7.2Z" transform="translate(-1 -39.281)" fill="#b4dd7f"/>
        </g>
        <g id="Grupo_1099772" data-name="Grupo 1099772" transform="translate(14.399 77.56)">
          <path id="Trazado_875142" data-name="Trazado 875142" d="M30.6,56.08H23.4a12.3,12.3,0,0,0-8.693-3.6H9v-7.2h7.9A12.142,12.142,0,0,1,27,50.68a12.181,12.181,0,0,1,10.1-5.4H45v7.2H39.291A12.3,12.3,0,0,0,30.6,56.08Z" transform="translate(-9 -45.281)" fill="#e6e9ed"/>
        </g>
        <g id="Grupo_1099773" data-name="Grupo 1099773" transform="translate(35.196 84.388)">
          <path id="Trazado_875143" data-name="Trazado 875143" d="M39,63.68v3.6H29.693A12.3,12.3,0,0,0,21,70.879v-18a12.3,12.3,0,0,1,8.693-3.6H39v14.4Z" transform="translate(-21 -49.281)" fill="#ccd1d9"/>
        </g>
        <g id="Grupo_1099774" data-name="Grupo 1099774" transform="translate(10.799 84.388)">
          <path id="Trazado_875144" data-name="Trazado 875144" d="M25,52.881v18a12.3,12.3,0,0,0-8.693-3.6H7v-18h9.305A12.3,12.3,0,0,1,25,52.881Z" transform="translate(-7 -49.281)" fill="#ccd1d9"/>
        </g>
        <g id="Grupo_1099775" data-name="Grupo 1099775" transform="translate(28.226 87.988)">
          <path id="Trazado_875145" data-name="Trazado 875145" d="M17,51.281h7.2v18H17Z" transform="translate(-17 -51.281)" fill="#cf9e76"/>
        </g>
        <g id="Grupo_1099776" data-name="Grupo 1099776" transform="translate(82.591 22.897)">
          <path id="Trazado_875146" data-name="Trazado 875146" d="M57,14.281l5.4,14.4H48l5.4-14.4Z" transform="translate(-48 -14.281)" fill="#ccd1d9"/>
        </g>
        <g id="Grupo_1099777" data-name="Grupo 1099777" transform="translate(44.579)">
          <path id="Trazado_875147" data-name="Trazado 875147" d="M87.714,36.2,82.89,12.08l-4.95-1.1a49.639,49.639,0,0,1-20.248-9.7,48.611,48.611,0,0,1-9.575,6.011,49.28,49.28,0,0,1-10.673,3.69l-4.95,1.1L26.88,13.3c.072.18.144.378.216.576,0,0,1.422,0,2.754-.036a7.937,7.937,0,0,1,4.608,1.35l.09.054a8.012,8.012,0,0,1,3.528,7.325l-.018.108a5.835,5.835,0,0,0,.954,3.654c.414.648.918,1.386,1.35,2.034a6.792,6.792,0,0,1,1.134,3.762v.054a6.623,6.623,0,0,1-2.646,5.291l-2.124,1.6H50.494a7.2,7.2,0,0,1-12.707,4.644A5.375,5.375,0,0,1,32.5,48.076H30.7A17.7,17.7,0,0,1,29.616,54a29.651,29.651,0,0,0,9.629,11.987L51.2,74.75a11,11,0,0,0,12.995,0l11.951-8.765A29.712,29.712,0,0,0,87.714,36.2Z" transform="translate(-26.88 -1.281)" fill="#ccd1d9"/>
        </g>
        <g id="Grupo_1099778" data-name="Grupo 1099778" transform="translate(82.591 37.045)">
          <path id="Trazado_875148" data-name="Trazado 875148" d="M48,22.281H62.4a7.2,7.2,0,1,1-14.4,0Z" transform="translate(-48 -22.281)" fill="#b27946"/>
        </g>
        <g id="Grupo_1099779" data-name="Grupo 1099779" transform="translate(55.102 37.045)">
          <path id="Trazado_875149" data-name="Trazado 875149" d="M32.406,22.281H46.175a7.2,7.2,0,0,1-12.707,4.644,5.011,5.011,0,0,0,.108-1.044,5.922,5.922,0,0,0-1.3-3.51l.108-.09Z" transform="translate(-32.28 -22.281)" fill="#b27946"/>
        </g>
        <g id="Grupo_1099780" data-name="Grupo 1099780" transform="translate(7.199 7.199)">
          <path id="Trazado_875150" data-name="Trazado 875150" d="M33.149,24.719a14.259,14.259,0,0,1-11.465,5.759H12.2v3.6H10.4a5.4,5.4,0,0,0-2.088.414A19.936,19.936,0,0,1,5,23.477a18.2,18.2,0,0,1,18.2-18.2H37.109a7.788,7.788,0,0,1,4.608,1.494A7.957,7.957,0,0,1,44.38,10.1c.072.18.144.378.216.576,0,0,1.422,0,2.754-.036a7.937,7.937,0,0,1,4.608,1.35l.09.054a8.012,8.012,0,0,1,3.528,7.325l-.018.108a5.835,5.835,0,0,0,.954,3.654c.414.648.918,1.386,1.35,2.034a6.792,6.792,0,0,1,1.134,3.762v.054a6.623,6.623,0,0,1-2.646,5.291l-2.124,1.6h-.018l-.108.09c-.09-.108-.2-.216-.288-.306A5.387,5.387,0,0,0,50,34.078H48.2l-2.178-.432a19.121,19.121,0,0,1-11.177-6.8Z" transform="translate(-5 -5.281)" fill="#656d78"/>
        </g>
        <g id="Grupo_1099781" data-name="Grupo 1099781" transform="translate(0 91.587)">
          <path id="Trazado_875151" data-name="Trazado 875151" d="M11.8,60.48v3.6a3.61,3.61,0,0,1-3.6,3.6H6.4A5.392,5.392,0,0,1,1,62.28v-3.6a5.392,5.392,0,0,1,5.4-5.4H8.2a3.61,3.61,0,0,1,3.6,3.6Z" transform="translate(-1 -53.281)" fill="#f0d0b4"/>
        </g>
        <g id="Grupo_1099782" data-name="Grupo 1099782" transform="translate(52.883 91.587)">
          <path id="Trazado_875152" data-name="Trazado 875152" d="M41.8,60.48v1.8a5.392,5.392,0,0,1-5.4,5.4H34.6a3.61,3.61,0,0,1-3.6-3.6v-7.2a3.61,3.61,0,0,1,3.6-3.6h1.8a5.392,5.392,0,0,1,5.4,5.4Z" transform="translate(-31 -53.281)" fill="#f0d0b4"/>
        </g>
        <g id="Grupo_1099783" data-name="Grupo 1099783" transform="translate(49.395 35.254)">
          <path id="Trazado_875153" data-name="Trazado 875153" d="M36.2,26.68a5.011,5.011,0,0,1-.108,1.044A5.375,5.375,0,0,1,30.8,32.08H29v-10.8h1.8a5.387,5.387,0,0,1,3.816,1.584c.09.09.2.2.288.306A5.922,5.922,0,0,1,36.2,26.68Z" transform="translate(-29 -21.281)" fill="#f0d0b4"/>
        </g>
        <g id="Grupo_1099784" data-name="Grupo 1099784" transform="translate(14.399 25.733)">
          <path id="Trazado_875154" data-name="Trazado 875154" d="M10.1,21.84h8.387A14.259,14.259,0,0,0,29.95,16.081L31.642,18.2a19.121,19.121,0,0,0,11.177,6.8L45,25.44v10.8a17.743,17.743,0,0,1-9.809,15.694,1.805,1.805,0,0,0-.99,1.62v4.284l-7.2,7.2-7.2-7.2V53.553a1.805,1.805,0,0,0-.99-1.62A17.748,17.748,0,0,1,9,36.239V21.84Z" transform="translate(-9 -16.081)" fill="#f0d0b4"/>
        </g>
        <g id="Grupo_1099785" data-name="Grupo 1099785" transform="translate(7.199 35.254)">
          <path id="Trazado_875155" data-name="Trazado 875155" d="M12.2,31.918v.162H10.4a5.4,5.4,0,1,1,0-10.8h1.8Z" transform="translate(-5 -21.281)" fill="#f0d0b4"/>
        </g>
      </g>
      <g id="Grupo_1099787" data-name="Grupo 1099787" transform="translate(0 0)">
        <circle id="Elipse_11533" data-name="Elipse 11533" cx="1.8" cy="1.8" r="1.8" transform="translate(40.629 39.361)"/>
        <circle id="Elipse_11534" data-name="Elipse 11534" cx="1.8" cy="1.8" r="1.8" transform="translate(22.964 39.361)"/>
        <path id="Trazado_875156" data-name="Trazado 875156" d="M19.162,33.889l1.989-1a3.6,3.6,0,0,0,1.611-4.831l-.8-1.607V23.281h-3.6v3.6a1.8,1.8,0,0,0,.189.8l1,1.989-1.989,1Z" transform="translate(13.443 17.794)"/>
        <path id="Trazado_875157" data-name="Trazado 875157" d="M22.874,34.081a5.394,5.394,0,0,1-5.228-4.05l-3.488.9a9,9,0,0,0,17.433,0l-3.488-.9A5.393,5.393,0,0,1,22.874,34.081Z" transform="translate(10.782 22.983)"/>
        <path id="Trazado_875158" data-name="Trazado 875158" d="M108.988,36.2l-4.962-24.809-5.983-1.329A47.273,47.273,0,0,1,78.877.884L77.773,0l-1.1.884A47.274,47.274,0,0,1,57.5,10.065l-9.073,1.992a9.495,9.495,0,0,0-8.062-4.49H26.706A19.642,19.642,0,0,0,7.07,27.206,21.305,21.305,0,0,0,9.7,37.464,7.041,7.041,0,0,0,14.14,49.991h.134A19.038,19.038,0,0,0,24.746,65.225v2.641C18.121,68.806,0,73.589,0,97.718v5.3a7.078,7.078,0,0,0,7.07,7.071H8.838a5.3,5.3,0,0,0,4.977-3.535h7.7a10.372,10.372,0,0,1,7.284,3.017l.518.518h8.534l.518-.518a10.372,10.372,0,0,1,7.284-3.017h7.7a5.3,5.3,0,0,0,4.977,3.535H60.1a7.078,7.078,0,0,0,7.07-7.071v-5.3c0-24.127-18.119-28.91-24.746-29.852l0-2.643A19.124,19.124,0,0,0,50.262,58,30.988,30.988,0,0,0,58.6,67.231L70.342,75.84a12.572,12.572,0,0,0,14.865,0l11.738-8.608A30.955,30.955,0,0,0,108.988,36.2Zm-98.382-9a16.1,16.1,0,0,1,16.1-16.1H40.369A5.984,5.984,0,0,1,46.05,15.2l.4,1.209h1.271s1.416,0,2.754-.03a6.265,6.265,0,0,1,3.576,1.071,6.139,6.139,0,0,1,2.681,5.688,7.41,7.41,0,0,0,1.213,4.718l1.336,2a4.917,4.917,0,0,1,.813,2.768A4.735,4.735,0,0,1,58.2,36.4l-1.061.792a7,7,0,0,0-4.113-1.343V34.369a9.51,9.51,0,0,0-6.512-9.034L45.4,28.687a5.981,5.981,0,0,1,4.094,5.681v1.092l-.018,0A17.048,17.048,0,0,1,39.528,29.4l-.848-1.061a15.936,15.936,0,0,0,1.552-3.316l.332-.992-3.351-1.121-.332.993a12.268,12.268,0,0,1-9.764,8.255A15.807,15.807,0,0,0,31.694,25.9l-3.282-1.313a12.2,12.2,0,0,1-10.731,7.677v-1.43a5.979,5.979,0,0,1,4.094-5.679L20.656,21.8a9.5,9.5,0,0,0-6.515,9.031V35.85a7,7,0,0,0-1.179.118,17.733,17.733,0,0,1-2.356-8.762Zm53.569-.194,3.977,10.606H61.927a8.387,8.387,0,0,0,.293-9.727l-.587-.88h2.542ZM53.029,46.456V39.385a3.535,3.535,0,0,1,0,7.071Zm6.817-5.3h8.76a5.239,5.239,0,0,1-8.544,2.112c.007-.117.035-.226.035-.345a6.941,6.941,0,0,0-.251-1.768ZM10.605,42.92a3.539,3.539,0,0,1,3.535-3.535v7.071A3.539,3.539,0,0,1,10.605,42.92ZM8.838,106.556H7.07a3.539,3.539,0,0,1-3.535-3.535V99.485A3.539,3.539,0,0,1,7.07,95.95H8.838a1.768,1.768,0,0,1,1.768,1.768v1.768H7.07v3.535h3.535v1.768A1.768,1.768,0,0,1,8.838,106.556Zm5.3-3.535V88.879h7.374a10.371,10.371,0,0,1,6.766,2.549v13.383a13.907,13.907,0,0,0-6.766-1.791ZM49.492,85.344H45.653a13.955,13.955,0,0,0-9.237,3.535H30.75a13.955,13.955,0,0,0-9.237-3.535H17.676V81.809h6a10.116,10.116,0,0,1,8.437,4.516l1.471,2.2,1.471-2.206a10.118,10.118,0,0,1,8.437-4.516h6ZM31.816,92.415h3.535v14.141H31.816Zm7.07,12.4V91.428a10.371,10.371,0,0,1,6.766-2.549h7.374v14.141H45.653A13.907,13.907,0,0,0,38.886,104.811Zm24.746-1.791a3.539,3.539,0,0,1-3.535,3.535H58.33a1.768,1.768,0,0,1-1.768-1.768v-1.768H60.1V99.485H56.562V97.718A1.768,1.768,0,0,1,58.33,95.95H60.1a3.539,3.539,0,0,1,3.535,3.535v3.535Zm-.251-9.759a6.976,6.976,0,0,0-3.284-.847H58.33a5.243,5.243,0,0,0-1.768.325v-7.4H53.027V78.274H43.491a13.641,13.641,0,0,0-9.907,4.248,13.644,13.644,0,0,0-9.907-4.248H14.14v7.071H10.605v7.4a5.243,5.243,0,0,0-1.768-.325H7.07a6.976,6.976,0,0,0-3.284.847C5.828,75.323,20.133,71.919,25.854,71.284L33.584,79l7.73-7.719C47.035,71.919,61.34,75.323,63.381,93.262Zm-22.54-31.2a3.5,3.5,0,0,0-1.955,3.162v3.484l-5.3,5.3-5.3-5.3V65.219a3.522,3.522,0,0,0-1.953-3.157,15.565,15.565,0,0,1-8.652-13.995V35.85h7.542a15.8,15.8,0,0,0,11.213-4.658l.339.422a20.568,20.568,0,0,0,12.011,7.309l.711.143,0,9a15.569,15.569,0,0,1-8.652,14Zm54.01,2.317L83.112,72.988a9.165,9.165,0,0,1-10.681,0L60.693,64.38A27.432,27.432,0,0,1,52.1,53.9a19.139,19.139,0,0,0,.8-3.915h.133A7.065,7.065,0,0,0,58.9,46.841,8.826,8.826,0,0,0,72.47,39.383v-.318L67.95,27.012h8.055V64.132h-7.07v3.535H86.611V64.132H79.54V27.012H87.6l-4.52,12.054v.32a8.838,8.838,0,1,0,17.676,0v-.32l-4.52-12.054h2.752V23.476H60.263c0-.051,0-.1,0-.152a9.657,9.657,0,0,0-4.325-8.868c-.175-.117-.366-.2-.548-.308l2.878-.633A50.871,50.871,0,0,0,77.773,4.5a50.871,50.871,0,0,0,19.5,9.013l3.735.831L105.522,36.9A27.414,27.414,0,0,1,94.851,64.38Zm-2.4-37.368,3.977,10.606H87.394l3.977-10.606Zm4.431,14.141a5.267,5.267,0,0,1-9.948,0Z" transform="translate(0 0)"/>
      </g>
    </g>
  </g>
</svg>
