<svg xmlns="http://www.w3.org/2000/svg" xmlns:xlink="http://www.w3.org/1999/xlink" width="138" height="138" viewBox="0 0 138 138">
  <defs>
    <filter id="Elipse_11498" x="0" y="0" width="138" height="138" filterUnits="userSpaceOnUse">
      <feOffset dy="3" input="SourceAlpha"/>
      <feGaussianBlur stdDeviation="3" result="blur"/>
      <feFlood flood-opacity="0.161"/>
      <feComposite operator="in" in2="blur"/>
      <feComposite in="SourceGraphic"/>
    </filter>
  </defs>
  <g id="Grupo_1099719" data-name="Grupo 1099719" transform="translate(-1133 -1853)">
    <g transform="matrix(1, 0, 0, 1, 1133, 1853)" filter="url(#Elipse_11498)">
      <g id="Elipse_11498-2" data-name="Elipse 11498" transform="translate(9 6)" fill="#e3dac6" stroke="#bcac89" stroke-width="2">
        <circle cx="60" cy="60" r="60" stroke="none"/>
        <circle cx="60" cy="60" r="59" fill="none"/>
      </g>
    </g>
    <g id="justice-court_5863922" transform="translate(1147.952 1864.294)">
      <g id="Grupo_1099718" data-name="Grupo 1099718" transform="translate(1.765 1.765)">
        <g id="Grupo_1099698" data-name="Grupo 1099698" transform="translate(35.294 7.059)">
          <path id="Trazado_875015" data-name="Trazado 875015" d="M56.294,15.588v7.059a3.54,3.54,0,0,0-3.529-3.529H49.235V17.776a5.716,5.716,0,0,0-5.718-5.718,5.783,5.783,0,0,0-2.541.6l-2.329,1.165-2.329-1.165a5.783,5.783,0,0,0-2.541-.6,5.724,5.724,0,0,0-5.718,5.718v1.341H24.529A3.555,3.555,0,0,0,21,22.647V15.588A10.6,10.6,0,0,1,31.588,5H45.706A10.6,10.6,0,0,1,56.294,15.588Z" transform="translate(-21 -5)" fill="#b27946"/>
        </g>
        <g id="Grupo_1099699" data-name="Grupo 1099699" transform="translate(45.882 0)">
          <path id="Trazado_875016" data-name="Trazado 875016" d="M41.118,8.059H27a7.059,7.059,0,1,1,14.118,0Z" transform="translate(-27 -1)" fill="#b27946"/>
        </g>
        <g id="Grupo_1099700" data-name="Grupo 1099700" transform="translate(0 45.882)">
          <path id="Trazado_875017" data-name="Trazado 875017" d="M22.176,28.765v3.529a1.77,1.77,0,0,1-1.765,1.765H2.765A1.77,1.77,0,0,1,1,32.294V28.765A1.77,1.77,0,0,1,2.765,27H20.412A1.77,1.77,0,0,1,22.176,28.765Z" transform="translate(-1 -27)" fill="#cf9e76"/>
        </g>
        <g id="Grupo_1099701" data-name="Grupo 1099701" transform="translate(7.059)">
          <path id="Trazado_875018" data-name="Trazado 875018" d="M12.059,2.765V46.882H5V2.765A1.77,1.77,0,0,1,6.765,1h3.529A1.77,1.77,0,0,1,12.059,2.765Z" transform="translate(-5 -1)" fill="#dfb28b"/>
        </g>
        <g id="Grupo_1099702" data-name="Grupo 1099702" transform="translate(7.059 52.941)">
          <path id="Trazado_875019" data-name="Trazado 875019" d="M12.059,45.118v5.294a1.77,1.77,0,0,1-1.765,1.765H6.765A1.77,1.77,0,0,1,5,50.412V31h7.059Z" transform="translate(-5 -31)" fill="#b27946"/>
        </g>
        <g id="Grupo_1099703" data-name="Grupo 1099703" transform="translate(51.847 70.818)">
          <path id="Trazado_875020" data-name="Trazado 875020" d="M39.892,41.13,44.78,54.577l-14.4-8.012Z" transform="translate(-30.38 -41.13)" fill="#aab2bd"/>
        </g>
        <g id="Grupo_1099704" data-name="Grupo 1099704" transform="translate(40.094 67.059)">
          <path id="Trazado_875021" data-name="Trazado 875021" d="M43.626,39l1.359,3.759-9.512,5.435L23.72,54.918,29.508,39Z" transform="translate(-23.72 -39)" fill="#ccd1d9"/>
        </g>
        <g id="Grupo_1099705" data-name="Grupo 1099705" transform="translate(31.765 76.253)">
          <path id="Trazado_875022" data-name="Trazado 875022" d="M50.765,73.839H19l8.329-22.906L39.082,44.21l14.4,8.012,7.871,21.618Z" transform="translate(-19 -44.21)" fill="#e6e9ed"/>
        </g>
        <g id="Grupo_1099706" data-name="Grupo 1099706" transform="translate(42.353 52.941)">
          <path id="Trazado_875023" data-name="Trazado 875023" d="M46.071,34.476a4.436,4.436,0,0,1-.212,2.612l-3.212,8.029H28.529l-3.212-8.029a1.383,1.383,0,0,1-.088-.247A4.126,4.126,0,0,1,25,35.447,4.451,4.451,0,0,1,29.447,31H41.729a4.4,4.4,0,0,1,3.141,1.306A4.347,4.347,0,0,1,46.071,34.476Z" transform="translate(-25 -31)" fill="#e6e9ed"/>
        </g>
        <g id="Grupo_1099707" data-name="Grupo 1099707" transform="translate(91.765 60)">
          <path id="Trazado_875024" data-name="Trazado 875024" d="M53,35H67.118A7.059,7.059,0,1,1,53,35Z" transform="translate(-53 -35)" fill="#fcd770"/>
        </g>
        <g id="Grupo_1099708" data-name="Grupo 1099708" transform="translate(70.588 60)">
          <path id="Trazado_875025" data-name="Trazado 875025" d="M41,35H55.118A7.059,7.059,0,1,1,41,35Z" transform="translate(-41 -35)" fill="#fcd770"/>
        </g>
        <g id="Grupo_1099709" data-name="Grupo 1099709" transform="translate(84.706 7.059)">
          <path id="Trazado_875026" data-name="Trazado 875026" d="M56.059,19.118v1.765a1.77,1.77,0,0,1-1.765,1.765H50.765A1.77,1.77,0,0,1,49,20.882V6.765A1.77,1.77,0,0,1,50.765,5h3.529a1.77,1.77,0,0,1,1.765,1.765V19.118Z" transform="translate(-49 -5)" fill="#969faa"/>
        </g>
        <g id="Grupo_1099710" data-name="Grupo 1099710" transform="translate(91.765 10.588)">
          <path id="Trazado_875027" data-name="Trazado 875027" d="M60.059,10.529v7.059a3.54,3.54,0,0,1-3.529,3.529A3.555,3.555,0,0,1,53,17.588V10.529A3.54,3.54,0,0,1,56.529,7a3.555,3.555,0,0,1,3.529,3.529Z" transform="translate(-53 -7)" fill="#f0d0b4"/>
        </g>
        <g id="Grupo_1099711" data-name="Grupo 1099711" transform="translate(58.235 14.118)">
          <path id="Trazado_875028" data-name="Trazado 875028" d="M64,33.706v7.059H53.412l-3.847,7.694A26.024,26.024,0,0,1,39.188,51.3a4.347,4.347,0,0,0-1.2-2.171,4.4,4.4,0,0,0-3.141-1.306H34l1.765-7.059A17.653,17.653,0,0,0,53.412,23.118V12.529A3.54,3.54,0,0,1,56.941,9h3.529v8.824a1.77,1.77,0,0,0,1.765,1.765H64v7.059a3.529,3.529,0,0,0,0,7.059Z" transform="translate(-34 -9)" fill="#f0d0b4"/>
        </g>
        <g id="Grupo_1099712" data-name="Grupo 1099712" transform="translate(14.118 45.882)">
          <path id="Trazado_875029" data-name="Trazado 875029" d="M40.765,27l1.765,7.059h-.847a4.451,4.451,0,0,0-4.447,4.447,4.127,4.127,0,0,0,.229,1.394L16.588,47.347a14,14,0,0,1-4.747.829H9V34.059h5.294l3.529,3.529,13.447-8.065A17.6,17.6,0,0,1,40.359,27Z" transform="translate(-9 -27)" fill="#f0d0b4"/>
        </g>
        <g id="Grupo_1099713" data-name="Grupo 1099713" transform="translate(63.529 21.176)">
          <path id="Trazado_875030" data-name="Trazado 875030" d="M40.529,13a3.54,3.54,0,0,1,3.529,3.529,3.555,3.555,0,0,1-3.529,3.529H37V13Z" transform="translate(-37 -13)" fill="#f0d0b4"/>
        </g>
        <g id="Grupo_1099714" data-name="Grupo 1099714" transform="translate(42.353 28.235)">
          <path id="Trazado_875031" data-name="Trazado 875031" d="M46.176,17v3.318a9.314,9.314,0,0,1-7.059,9.035v5.294h3.529l-1.765,7.059H30.294l-1.765-7.059h3.529V29.353A9.323,9.323,0,0,1,25,20.318V17Z" transform="translate(-25 -17)" fill="#f0d0b4"/>
        </g>
        <g id="Grupo_1099715" data-name="Grupo 1099715" transform="translate(35.294 21.176)">
          <path id="Trazado_875032" data-name="Trazado 875032" d="M28.059,13v7.059H24.529A3.54,3.54,0,0,1,21,16.529,3.555,3.555,0,0,1,24.529,13Z" transform="translate(-21 -13)" fill="#f0d0b4"/>
        </g>
        <g id="Grupo_1099716" data-name="Grupo 1099716" transform="translate(42.353 14.118)">
          <path id="Trazado_875033" data-name="Trazado 875033" d="M35.588,10.765,37.918,9.6A5.783,5.783,0,0,1,40.459,9a5.716,5.716,0,0,1,5.718,5.718v1.341H25V14.718A5.724,5.724,0,0,1,30.718,9a5.783,5.783,0,0,1,2.541.6Z" transform="translate(-25 -9)" fill="#f0d0b4"/>
        </g>
        <g id="Grupo_1099717" data-name="Grupo 1099717" transform="translate(42.353 21.176)">
          <path id="Trazado_875034" data-name="Trazado 875034" d="M25,13H46.176v7.059H25Z" transform="translate(-25 -13)" fill="#75b1f2"/>
        </g>
      </g>
      <path id="Trazado_875035" data-name="Trazado 875035" d="M101.679,45.882H91.765V42.028a5.287,5.287,0,0,0,3.529-4.969H91.765A1.765,1.765,0,1,1,90,35.294h1.765V28.235A3.5,3.5,0,0,0,94.1,27.33a5.292,5.292,0,0,0,8.252-4.389V15.882a5.3,5.3,0,0,0-5.294-5.294,5.235,5.235,0,0,0-1.765.325v-.325a3.533,3.533,0,0,0-3.529-3.529H88.235a3.533,3.533,0,0,0-3.529,3.529v3.529H82.941a5.3,5.3,0,0,0-5.294,5.294V30A15.9,15.9,0,0,1,61.765,45.882H60V43.639a11.066,11.066,0,0,0,7.059-10.329V31.765h1.765a5.3,5.3,0,0,0,5.294-5.294V19.412A12.365,12.365,0,0,0,63.364,7.174a8.811,8.811,0,0,0-17.315,0A12.365,12.365,0,0,0,35.294,19.412v7.059a5.3,5.3,0,0,0,5.294,5.294h1.765v1.548a11.069,11.069,0,0,0,7.059,10.329v2.241H47.241a19.406,19.406,0,0,0-9.986,2.767L24.981,56.014,24,55.036a3.513,3.513,0,0,0,.7-2.095V49.412a3.533,3.533,0,0,0-3.529-3.529H17.647V3.529A3.533,3.533,0,0,0,14.118,0H10.588A3.533,3.533,0,0,0,7.059,3.529V45.882H3.529A3.533,3.533,0,0,0,0,49.412v3.529a3.533,3.533,0,0,0,3.529,3.529H7.059V74.118a3.533,3.533,0,0,0,3.529,3.529h3.529a3.533,3.533,0,0,0,3.529-3.529V70.588h1.084a15.856,15.856,0,0,0,5.34-.925l19.258-6.877,2.428,6.069L31.009,109.412H78.4L63.653,68.854l2.963-7.408A6.1,6.1,0,0,0,67,59.753,27.869,27.869,0,0,0,71.912,58.7l-1.324,2.647v.416a8.824,8.824,0,0,0,17.647,0v-.416L82.267,49.412H97.733L91.765,61.348v.416a8.824,8.824,0,1,0,17.647,0v-.416Zm-4.62-31.765a1.766,1.766,0,0,1,1.765,1.765v7.059a1.765,1.765,0,1,1-3.529,0V15.882A1.766,1.766,0,0,1,97.059,14.118Zm-8.824-3.529h3.529V22.941c0,.005,0,.011,0,.014v1.751H88.235Zm-24.9,49.549L60.57,67.059H48.842l-2.769-6.918a2.678,2.678,0,0,1,2.485-3.671h12.3a2.675,2.675,0,0,1,2.483,3.667Zm5.485-31.9H67.059V24.706h1.765a1.765,1.765,0,0,1,0,3.529Zm-5.294-3.529v3.529H45.882V24.706Zm-17.6-3.529a3.937,3.937,0,0,1,3.9-3.529,3.979,3.979,0,0,1,1.765.416l3.113,1.556,3.113-1.556a3.928,3.928,0,0,1,5.668,3.113ZM54.706,3.529a5.287,5.287,0,0,1,4.969,3.529H49.738a5.283,5.283,0,0,1,4.968-3.529Zm-7.059,7.059H61.765a8.834,8.834,0,0,1,8.824,8.824V21.5a5.235,5.235,0,0,0-1.765-.325H67.016a7.451,7.451,0,0,0-10.777-6.27l-1.534.768-1.534-.768A7.451,7.451,0,0,0,42.4,21.176H40.588a5.235,5.235,0,0,0-1.765.325V19.412A8.834,8.834,0,0,1,47.647,10.588ZM40.588,28.235a1.765,1.765,0,0,1,0-3.529h1.765v3.529Zm5.294,5.077V31.765H63.529v1.548a7.544,7.544,0,0,1-5.721,7.329l-1.338.334v8.437h3.035l-.882,3.529H50.788l-.882-3.529h3.035V40.975L51.6,40.641A7.544,7.544,0,0,1,45.882,33.312ZM10.588,3.529h3.529V45.882H10.588ZM3.529,49.412H21.176l0,3.529H3.529Zm7.059,24.706V56.471h3.529V74.118ZM42.353,59.146c0,.079.019.155.023.235l-19.491,6.96a12.332,12.332,0,0,1-4.154.718H17.647V56.471h2.8l3.986,3.986,14.638-8.783a15.848,15.848,0,0,1,7.216-2.2l.907,3.626A6.212,6.212,0,0,0,42.353,59.146Zm6.529,11.442H60.529l.436,1.2-15.8,9.03Zm13.306,4.564,2.559,7.036L57.206,78Zm4.521,30.731-3.222-14.5-3.446.766,3.053,13.735H56.471V88.235H52.941v17.647H46.318l3.053-13.735-3.446-.766-3.222,14.5H36.049L43.3,85.946l10.327-5.9,12.962,7.2,6.775,18.635Zm12.7-38.824a5.285,5.285,0,0,1-4.968-3.529h9.935a5.285,5.285,0,0,1-4.968,3.529ZM83.615,60H75.208l4.2-8.407ZM78.321,45.882,74.262,54a24.429,24.429,0,0,1-7.936,2.282A6.2,6.2,0,0,0,62.22,53.1l.941-3.762A19.422,19.422,0,0,0,81.176,30V19.412a1.766,1.766,0,0,1,1.765-1.765h1.765v7.059a3.533,3.533,0,0,0,3.529,3.529v3.831a5.279,5.279,0,0,0,0,9.962v3.854Zm22.267,5.711,4.2,8.407H96.385Zm0,15.466a5.285,5.285,0,0,1-4.968-3.529h9.935a5.285,5.285,0,0,1-4.968,3.529Z" transform="translate(0)"/>
    </g>
  </g>
</svg>
