<svg xmlns="http://www.w3.org/2000/svg" xmlns:xlink="http://www.w3.org/1999/xlink" width="83" height="83" viewBox="0 0 83 83">
  <defs>
    <filter id="Trazado_876021" x="0" y="0" width="83" height="83" filterUnits="userSpaceOnUse">
      <feOffset dy="3" input="SourceAlpha"/>
      <feGaussianBlur stdDeviation="3" result="blur"/>
      <feFlood flood-opacity="0.161"/>
      <feComposite operator="in" in2="blur"/>
      <feComposite in="SourceGraphic"/>
    </filter>
  </defs>
  <g id="Grupo_1099677" data-name="Grupo 1099677" transform="translate(-818 -1157)">
    <g transform="matrix(1, 0, 0, 1, 818, 1157)" filter="url(#Trazado_876021)">
      <g id="Trazado_876021-2" data-name="Trazado 876021" transform="translate(9 6)" fill="#dbe7fc">
        <path d="M 32.5 64 C 28.24708938598633 64 24.12191963195801 63.16727828979492 20.23908996582031 61.52497863769531 C 16.48821067810059 59.93849945068359 13.11937046051025 57.66709136962891 10.22614002227783 54.77386093139648 C 7.332910060882568 51.88063049316406 5.061500072479248 48.51179122924805 3.475019931793213 44.76091003417969 C 1.832720041275024 40.87807846069336 1 36.75291061401367 1 32.5 C 1 28.24708938598633 1.832720041275024 24.12191963195801 3.475019931793213 20.23908996582031 C 5.061500072479248 16.48821067810059 7.332910060882568 13.11937046051025 10.22614002227783 10.22614002227783 C 13.11937046051025 7.332910060882568 16.48821067810059 5.061500072479248 20.23908996582031 3.475019931793213 C 24.12191963195801 1.832720041275024 28.24708938598633 1 32.5 1 C 36.75291061401367 1 40.87807846069336 1.832720041275024 44.76091003417969 3.475019931793213 C 48.51179122924805 5.061500072479248 51.88063049316406 7.332910060882568 54.77386093139648 10.22614002227783 C 57.66709136962891 13.11937046051025 59.93849945068359 16.48821067810059 61.52497863769531 20.23908996582031 C 63.16727828979492 24.12191963195801 64 28.24708938598633 64 32.5 C 64 36.75291061401367 63.16727828979492 40.87807846069336 61.52497863769531 44.76091003417969 C 59.93849945068359 48.51179122924805 57.66709136962891 51.88063049316406 54.77386093139648 54.77386093139648 C 51.88063049316406 57.66709136962891 48.51179122924805 59.93849945068359 44.76091003417969 61.52497863769531 C 40.87807846069336 63.16727828979492 36.75291061401367 64 32.5 64 Z" stroke="none"/>
        <path d="M 32.5 2 C 28.38164901733398 2 24.38753890991211 2.806140899658203 20.62863922119141 4.396018981933594 C 16.9969596862793 5.932090759277344 13.73495864868164 8.13153076171875 10.9332389831543 10.9332389831543 C 8.13153076171875 13.73495864868164 5.932090759277344 16.9969596862793 4.396018981933594 20.62863922119141 C 2.806140899658203 24.38753890991211 2 28.38164901733398 2 32.5 C 2 36.61834716796875 2.806140899658203 40.61245727539062 4.396018981933594 44.37136077880859 C 5.932090759277344 48.0030403137207 8.13153076171875 51.26504135131836 10.9332389831543 54.0667610168457 C 13.73495864868164 56.86846923828125 16.9969596862793 59.06790924072266 20.62863922119141 60.60398101806641 C 24.38753890991211 62.1938591003418 28.38164901733398 63 32.5 63 C 36.61834716796875 63 40.61245727539062 62.1938591003418 44.37136077880859 60.60398101806641 C 48.0030403137207 59.06790924072266 51.26504135131836 56.86846923828125 54.0667610168457 54.0667610168457 C 56.86846923828125 51.26504135131836 59.06790924072266 48.0030403137207 60.60398101806641 44.37136077880859 C 62.1938591003418 40.61245727539062 63 36.61834716796875 63 32.5 C 63 28.38164901733398 62.1938591003418 24.38753890991211 60.60398101806641 20.62863922119141 C 59.06790924072266 16.9969596862793 56.86846923828125 13.73495864868164 54.0667610168457 10.9332389831543 C 51.26504135131836 8.13153076171875 48.0030403137207 5.932090759277344 44.37136077880859 4.396018981933594 C 40.61245727539062 2.806140899658203 36.61834716796875 2 32.5 2 M 32.5 0 C 50.44924926757812 0 65 14.55075073242188 65 32.5 C 65 50.44924926757812 50.44924926757812 65 32.5 65 C 14.55075073242188 65 0 50.44924926757812 0 32.5 C 0 14.55075073242188 14.55075073242188 0 32.5 0 Z" stroke="none" fill="#0d5d91"/>
      </g>
    </g>
    <g id="family_547490" transform="translate(832.54 1168.54)">
      <path id="Trazado_874893" data-name="Trazado 874893" d="M272.777,32.735h-4.614a1.274,1.274,0,0,1-1.27-1.27L266.258,20.7s-1.028-8.914,4.3-10.085c0,0,2.167-4.217,9.107-2.866a2.692,2.692,0,0,1,.278.081,10.549,10.549,0,0,1,4.321,2.6,11.16,11.16,0,0,1,3.114,8.757c0,3.087.049-.344-.635,12.272a1.274,1.274,0,0,1-1.27,1.27h-4.909" transform="translate(-238.146 -6.698)" fill="#7f7369"/>
      <path id="Trazado_874894" data-name="Trazado 874894" d="M273.576,32.815V31.3A7.987,7.987,0,0,1,268.8,24.39c0-.02,0-.082,0-.094,0-.1-.007-.209-.007-.315,0-4.751,0-4.463,0-4.541-.048-2.536.345-7.855,4.378-8.742A6.711,6.711,0,0,1,278.4,7.641c-2.976-.327-6.466.557-7.842,3.058-3.6.79-4.461,5.169-4.376,8.831q0,.076,0,.149c.021.679.07,1.105.07,1.105l.635,10.761a1.274,1.274,0,0,0,1.27,1.27Z" transform="translate(-238.143 -6.778)" fill="#72655a"/>
      <path id="Trazado_874895" data-name="Trazado 874895" d="M30.837,255.252l1.365-12.2c.478-3.684.282-5.1,1.471-6.541a5.465,5.465,0,0,0-1.237-1.074l-.038-.009c-1.285-.77-2.367-.8-4.756-1.459h0L25.2,232.8h0v-2.917a8.007,8.007,0,0,1-6.369.017h0l-.011,2.913h0l-2.432,1.157h0c-2.373.653-3.468.688-4.756,1.459l-.038.009a3.387,3.387,0,0,0-.336.235C9.42,237,9.391,238.711,9.232,239.98L8.5,246.511h0c-1.029,9.347-1,8.6-1,9.316a2.824,2.824,0,0,0,2.923,2.977h0c.205,0,23.073,0,23.247,0C31.692,258.769,30.663,257.258,30.837,255.252Z" transform="translate(-6.712 -205.675)" fill="#dd9a5e"/>
      <g id="Grupo_1099667" data-name="Grupo 1099667" transform="translate(0.79 24.226)">
        <path id="Trazado_874896" data-name="Trazado 874896" d="M10.137,296.135c-.018-1.031.2-1.019,1.812-17.745a4.68,4.68,0,0,1,1.8-3.449,7.089,7.089,0,0,0-2.11.8l-.038.009a3.4,3.4,0,0,0-.336.235c-1.84,1.321-1.869,3.037-2.028,4.306-.013.116-1.729,15.341-1.729,15.847a2.824,2.824,0,0,0,2.923,2.977h2.633A2.815,2.815,0,0,1,10.137,296.135Z" transform="translate(-7.504 -270.213)" fill="#d38d54"/>
        <path id="Trazado_874897" data-name="Trazado 874897" d="M117.612,235.446v-4.771a7.916,7.916,0,0,1-2.623-.633l-.011,2.913h0Z" transform="translate(-103.66 -230.042)" fill="#d38d54"/>
      </g>
      <path id="Trazado_874898" data-name="Trazado 874898" d="M257.9,257.951c-1.86-16.468-1.755-16-1.921-16.808a4.567,4.567,0,0,0-2.151-3.005l-.038-.009a6.493,6.493,0,0,0-1.541-.659l-5.362-1.335a.691.691,0,0,1-.295-.634v-2.586a8,8,0,0,1-6.369-.014v2.6a.691.691,0,0,1-.295.634c-4.536,1.208-5.545,1.18-6.9,1.994l-.038.009a4.677,4.677,0,0,0-2.28,3.8l-1.792,16.015c-.18,2.076.921,3.551,2.9,3.551H255a2.824,2.824,0,0,0,2.923-2.977v0A5.617,5.617,0,0,0,257.9,257.951Z" transform="translate(-204.788 -208.373)" fill="#eab883"/>
      <path id="Trazado_874899" data-name="Trazado 874899" d="M231.525,295.207v0a5.577,5.577,0,0,1,.02-.57l1.792-16.963a4.7,4.7,0,0,1,2.236-3.77,8.582,8.582,0,0,0-2.55.91l-.038.009a4.677,4.677,0,0,0-2.28,3.8l-1.792,16.016c-.179,2.076.921,3.551,2.9,3.551h2.633A2.824,2.824,0,0,1,231.525,295.207Z" transform="translate(-204.787 -245.055)" fill="#d8a373"/>
      <g id="Grupo_1099668" data-name="Grupo 1099668" transform="translate(24.105 24.527)">
        <path id="Trazado_874900" data-name="Trazado 874900" d="M265.39,249.208c-.845-7.5-.809-7.415-.943-8.065a4.573,4.573,0,0,0-2.151-3.005l-.038-.009a6.492,6.492,0,0,0-1.541-.659l-5.362-1.335a.691.691,0,0,1-.295-.634v-2.586h0V232.9a7.935,7.935,0,0,1-6.369,0v.014h0V235.5a.691.691,0,0,1-.295.634c-4.536,1.208-5.545,1.18-6.9,1.994l-.038.009a4.7,4.7,0,0,0-2.28,3.8l-.814,7.272,5.13.538a.516.516,0,0,1,.462.539l-.563,11.217h17l-.591-11.174a.561.561,0,0,1,.5-.587Z" transform="translate(-237.364 -232.9)" fill="#d83d3d"/>
        <path id="Trazado_874901" data-name="Trazado 874901" d="M235.02,388.287l-5.13-.538-.978,8.743c-.18,2.076.921,3.551,2.9,3.551h3.1l.563-11.217A.516.516,0,0,0,235.02,388.287Z" transform="translate(-228.892 -371.441)" fill="#d83d3d"/>
      </g>
      <path id="Trazado_874902" data-name="Trazado 874902" d="M238.364,285.89l2.55.267.9-8.487a4.7,4.7,0,0,1,2.236-3.77,8.7,8.7,0,0,0-2.55.91l-.038.009a4.568,4.568,0,0,0-2.151,3.005C239.142,278.623,239.173,278.8,238.364,285.89Z" transform="translate(-213.261 -245.055)" fill="#a82626"/>
      <g id="Grupo_1099669" data-name="Grupo 1099669" transform="translate(1.788 27.127)">
        <path id="Trazado_874903" data-name="Trazado 874903" d="M40.9,260.223l-.038-.009c-1.288-.772-2.388-.808-4.739-1.455l0,0-2.442-1.169-.018.027s0-.006,0-.01l-3.185,3-3.176-3-2.432,1.157h0c-2.373.653-3.468.688-4.756,1.459l-.038.009a4.677,4.677,0,0,0-2.28,3.8l-.814,7.274,5.032.528a.6.6,0,0,1,.537.627l-.559,11.138h17L38.4,272.415a.562.562,0,0,1,.5-.589l1.345-.141c.986-8.181.7-8.915,1.892-10.377A7.237,7.237,0,0,0,40.9,260.223Z" transform="translate(-16.981 -257.585)" fill="#70bbef"/>
        <path id="Trazado_874904" data-name="Trazado 874904" d="M221.309,399.817l.935-8.352h0l-1.345.141a.562.562,0,0,0-.5.589l.591,11.172h3.159C222.165,403.333,221.136,401.823,221.309,399.817Z" transform="translate(-198.973 -377.366)" fill="#70bbef"/>
      </g>
      <path id="Trazado_874905" data-name="Trazado 874905" d="M20.431,278.39a4.68,4.68,0,0,1,1.8-3.449,7.1,7.1,0,0,0-2.11.8l-.038.009a5.494,5.494,0,0,0-1.246,1.085c-1.275,1.561-.928,2.791-1.848,9.987l2.6.273C19.579,287.179,19.691,286.058,20.431,278.39Z" transform="translate(-15.195 -245.987)" fill="#4caee5"/>
      <path id="Trazado_874906" data-name="Trazado 874906" d="M324.243,233.985l-2.147-.535a.691.691,0,0,1-.295-.634v-2.9h0V229.9a7.94,7.94,0,0,1-6.369,0v.014h0v2.9a.691.691,0,0,1-.295.634l-2.18.543A6.466,6.466,0,0,0,324.243,233.985Z" transform="translate(-280 -205.689)" fill="#eab883"/>
      <path id="SVGCleanerId_0" d="M50.347,20.212V17.467a10,10,0,0,1,15.689-8.19c5.141,3.589,4.162,8.868,4.275,10.935" transform="translate(-45.045 -6.697)" fill="#4c4846"/>
      <g id="Grupo_1099670" data-name="Grupo 1099670" transform="translate(5.302 0.788)">
        <path id="SVGCleanerId_0_1_" d="M50.347,20.212V17.467a10,10,0,0,1,15.689-8.19c5.141,3.589,4.162,8.868,4.275,10.935" transform="translate(-50.347 -7.485)" fill="#4c4846"/>
      </g>
      <path id="Trazado_874907" data-name="Trazado 874907" d="M61.324,7.538A9.99,9.99,0,0,0,50.347,17.47v2.745h1.99V17.47A9.985,9.985,0,0,1,61.324,7.538Z" transform="translate(-45.045 -6.7)" fill="#3f3b39"/>
      <g id="Grupo_1099671" data-name="Grupo 1099671" transform="translate(4.805 12.325)">
        <path id="Trazado_874908" data-name="Trazado 874908" d="M223.5,119.122a2.312,2.312,0,0,1-2.487,2.083v-4.166A2.312,2.312,0,0,1,223.5,119.122Z" transform="translate(-202.546 -117.039)" fill="#dd9a5e"/>
        <path id="Trazado_874909" data-name="Trazado 874909" d="M45.629,119.122a2.312,2.312,0,0,0,2.487,2.083v-4.166A2.312,2.312,0,0,0,45.629,119.122Z" transform="translate(-45.629 -117.039)" fill="#dd9a5e"/>
      </g>
      <g id="Grupo_1099672" data-name="Grupo 1099672" transform="translate(4.804 13.472)">
        <path id="Trazado_874910" data-name="Trazado 874910" d="M221.017,129.072v1.872a2.312,2.312,0,0,0,2.487-2.083,1.806,1.806,0,0,0-.265-.936A2.572,2.572,0,0,1,221.017,129.072Z" transform="translate(-202.545 -127.925)" fill="#d38d54"/>
        <path id="Trazado_874911" data-name="Trazado 874911" d="M45.882,127.926c-.825,1.371.359,3.019,2.222,3.019v-1.872A2.572,2.572,0,0,1,45.882,127.926Z" transform="translate(-45.614 -127.926)" fill="#d38d54"/>
      </g>
      <path id="Trazado_874912" data-name="Trazado 874912" d="M83.341,79.785a1.141,1.141,0,0,0-1.321-1.137c-.148.023-.312.047-.417.062a30.844,30.844,0,0,1-9.243-.062,1.14,1.14,0,0,0-1.321,1.137A3.254,3.254,0,0,1,69.753,82.4a2.4,2.4,0,0,1-.554.313c0,5.173-.062,5.519.215,6.691A7.994,7.994,0,0,0,84.624,90.5c.764-1.93.558-3.4.558-7.783A3.12,3.12,0,0,1,83.341,79.785Z" transform="translate(-61.906 -70.353)" fill="#edae6b"/>
      <path id="Trazado_874913" data-name="Trazado 874913" d="M72.175,90.724c-.564-2.011-.251-3.24-.339-7.053a1.112,1.112,0,0,1,.438-.9,3.6,3.6,0,0,0,1.406-2.956,1.234,1.234,0,0,1,.469-.95c-.38-.038-.75-.082-1.091-.128-.2-.027-.425-.059-.651-.094a1.141,1.141,0,0,0-1.32,1.137A3.256,3.256,0,0,1,69.8,82.4a2.4,2.4,0,0,1-.554.313c0,5.2,0,4.936.007,5.192a7.984,7.984,0,0,0,6.019,7.4A11.85,11.85,0,0,1,72.175,90.724Z" transform="translate(-61.952 -70.352)" fill="#dd9a5e"/>
      <path id="Trazado_874914" data-name="Trazado 874914" d="M148.337,257.586l-3.2,3.016,1.729,1.743a.779.779,0,0,0,1.166-.069l2.75-3.521Z" transform="translate(-129.85 -230.459)" fill="#dadada"/>
      <g id="Grupo_1099673" data-name="Grupo 1099673" transform="translate(15.284 27.127)">
        <path id="Trazado_874915" data-name="Trazado 874915" d="M149.566,258.175l-1.23-.589-3.2,3.016,1.144,1.153Z" transform="translate(-145.133 -257.586)" fill="#ceccca"/>
        <path id="Trazado_874916" data-name="Trazado 874916" d="M163.787,304.307a.78.78,0,0,0,.457.055Z" transform="translate(-161.823 -299.387)" fill="#ceccca"/>
      </g>
      <path id="Trazado_874917" data-name="Trazado 874917" d="M93.995,257.7l3.176,3-1.729,1.743a.779.779,0,0,1-1.166-.069l-2.75-3.521Z" transform="translate(-81.886 -230.561)" fill="#dadada"/>
      <path id="Trazado_874918" data-name="Trazado 874918" d="M104.854,260.692l1.095,1.165,1.144-1.153-3.176-3-1.3.61Z" transform="translate(-91.808 -230.561)" fill="#ceccca"/>
      <path id="Trazado_874919" data-name="Trazado 874919" d="M318.079,234.424v-3.878a7.89,7.89,0,0,1-2.646-.647c-.08,2.3.209,3.322-.295,3.55l-2.18.543a6.918,6.918,0,0,0,2.141,2.252l2.263-.832S318.079,235.056,318.079,234.424Z" transform="translate(-280 -205.688)" fill="#d8a373"/>
      <path id="Trazado_874920" data-name="Trazado 874920" d="M306.131,96.412a.843.843,0,0,1,.8.841v.6h0a10.753,10.753,0,0,1-.339,3.48,7.993,7.993,0,0,1-15.633-1.9c0-.03,0,.009,0-.094s-.007-.209-.007-.315V94.973h0v-.4a.993.993,0,0,1,.791-.97,6.4,6.4,0,0,0,3.331-1.915.729.729,0,0,1,1.093.035A13.5,13.5,0,0,0,306.131,96.412Z" transform="translate(-260.311 -81.823)" fill="#f7cf9c"/>
      <path id="Trazado_874921" data-name="Trazado 874921" d="M294.412,114.662c-1.055-2.133-.81-3.644-.827-6.608v-3.085a6.2,6.2,0,0,1-1.842.721.993.993,0,0,0-.791.97v4.459c0,.132.007.338.007.35s.011.195.019.288A8,8,0,0,0,300.26,119,8,8,0,0,1,294.412,114.662Z" transform="translate(-260.311 -93.915)" fill="#eab883"/>
      <g id="Grupo_1099674" data-name="Grupo 1099674" transform="translate(31.447 28.296)">
        <path id="Trazado_874922" data-name="Trazado 874922" d="M373.7,269.07l-1.541-.383A6.583,6.583,0,0,1,366.515,272S373.733,279.219,373.7,269.07Z" transform="translate(-359.363 -268.687)" fill="#b72c2c"/>
        <path id="Trazado_874923" data-name="Trazado 874923" d="M298.605,269.07l1.541-.383A6.583,6.583,0,0,0,305.791,272S298.573,279.219,298.605,269.07Z" transform="translate(-298.605 -268.687)" fill="#b72c2c"/>
      </g>
      <g id="Grupo_1099675" data-name="Grupo 1099675" transform="translate(31.519 30.343)">
        <path id="Trazado_874924" data-name="Trazado 874924" d="M302.966,288.383c-1.273.678-2.741,1-3.681-.256.748,7.634,7.114,1.267,7.114,1.267A6.346,6.346,0,0,1,302.966,288.383Z" transform="translate(-299.285 -288.127)" fill="#a82626"/>
        <path id="Trazado_874925" data-name="Trazado 874925" d="M369.949,288.383c1.274.678,2.741,1,3.681-.256-.748,7.634-7.114,1.267-7.114,1.267A6.345,6.345,0,0,0,369.949,288.383Z" transform="translate(-359.436 -288.127)" fill="#a82626"/>
      </g>
      <path id="Trazado_874926" data-name="Trazado 874926" d="M202.227,254.235a6.972,6.972,0,0,0-11.389.666c-1.472,2.377-.916,4.544-1.038,5.206h13.933C203.689,258.747,204.064,256.549,202.227,254.235Z" transform="translate(-169.806 -225.101)" fill="#996123"/>
      <path id="Trazado_874927" data-name="Trazado 874927" d="M191.689,256.948c.031-.132.1-.393.108-.4a6.97,6.97,0,0,1,5.82-4.9,6.966,6.966,0,0,0-6.78,3.252c-1.472,2.377-.916,4.543-1.038,5.206h1.7A12.51,12.51,0,0,1,191.689,256.948Z" transform="translate(-169.806 -225.098)" fill="#8e551c"/>
      <path id="Trazado_874928" data-name="Trazado 874928" d="M313.005,356.32a9.506,9.506,0,0,0-2.011-3.7,2.539,2.539,0,0,1-1.384.677,5.38,5.38,0,0,1,.739,3.777.6.6,0,0,0,.72.624l1.29-.267A.863.863,0,0,0,313.005,356.32Z" transform="translate(-277.004 -315.483)" fill="#996123"/>
      <path id="Trazado_874929" data-name="Trazado 874929" d="M308.717,324.058a2.242,2.242,0,0,1-2.412,2.02v-4.039A2.242,2.242,0,0,1,308.717,324.058Z" transform="translate(-274.047 -288.125)" fill="#efd0a3"/>
      <path id="Trazado_874930" data-name="Trazado 874930" d="M169.8,356.32a9.506,9.506,0,0,1,2.011-3.7,2.54,2.54,0,0,0,1.385.677,5.379,5.379,0,0,0-.739,3.777.6.6,0,0,1-.72.624l-1.29-.267A.863.863,0,0,1,169.8,356.32Z" transform="translate(-151.882 -315.483)" fill="#8e551c"/>
      <path id="Trazado_874931" data-name="Trazado 874931" d="M182.8,324.058a2.242,2.242,0,0,0,2.412,2.02v-4.039A2.241,2.241,0,0,0,182.8,324.058Z" transform="translate(-163.551 -288.125)" fill="#efd0a3"/>
      <g id="Grupo_1099676" data-name="Grupo 1099676" transform="translate(19.25 35.069)">
        <path id="Trazado_874932" data-name="Trazado 874932" d="M306.3,334.154v1.73c1.787,0,2.93-1.561,2.18-2.884A2.482,2.482,0,0,1,306.3,334.154Z" transform="translate(-293.297 -333)" fill="#e2bf91"/>
        <path id="Trazado_874933" data-name="Trazado 874933" d="M183.019,333c-.752,1.326.4,2.884,2.18,2.884v-1.73A2.481,2.481,0,0,1,183.019,333Z" transform="translate(-182.785 -333)" fill="#e2bf91"/>
      </g>
      <path id="Trazado_874934" data-name="Trazado 874934" d="M188.685,409.217l-.549-4.91a3.12,3.12,0,0,0-1.512-2.518l-.025-.006c-.9-.537-1.547-.515-4.576-1.322-.335-.152-.141-.8-.2-2.451a5.3,5.3,0,0,1-4.221-.009c-.053,1.611.141,2.308-.2,2.46-3.022.805-3.678.784-4.576,1.322l-.025.006a3.028,3.028,0,0,0-1.426,1.992c-.107.518-.079.56-.635,5.435Z" transform="translate(-152.767 -356.088)" fill="#efd0a3"/>
      <path id="Trazado_874935" data-name="Trazado 874935" d="M170.748,431.275h17.936l-.549-4.91a3.123,3.123,0,0,0-1.512-2.518l-.025-.006c-.889-.533-1.606-.534-4.007-1.18v.635a2.86,2.86,0,0,1-.3,1.271c-.031.063-.082.157-.131.235l-.036.057c-.05.077-.1.151-.156.217-.025.031-.058.072-.085.1l-.013.014-.051.057-.006.006h0l-.008.008-.062.063-.02.021q-.04.039-.082.077l-.024.021-.053.046-.008.007-.033.026-.056.045-.036.027-.056.041-.028.02-.009.007-.059.039-.009.006-.027.018-.051.031-.017.01-.007,0-.022.013-.1.055-.014.007,0,0-.017.008-.068.033-.037.017-.068.03-.042.017-.066.026-.043.016-.068.023-.034.011-.009,0-.019.006-.056.016-.028.008-.009,0-.114.028-.017,0-.051.011q-.068.013-.137.023-.139.02-.281.027h-.272q-.142-.007-.281-.027-.069-.01-.137-.023l-.051-.011-.017,0-.114-.028-.009,0-.028-.008-.056-.016-.02-.006-.009,0-.034-.011-.068-.023-.043-.016-.066-.026-.042-.017-.068-.03-.037-.017-.068-.033-.017-.008,0,0-.014-.007-.1-.055-.022-.013-.008,0-.017-.01-.051-.031-.027-.018-.009-.006a2.869,2.869,0,0,1-1.19-1.579,4.828,4.828,0,0,1-.122-1.469l-.608.151c-1.908.521-2.567.523-3.419,1.034l-.025.006a3.037,3.037,0,0,0-1.426,1.992C171.276,426.357,171.3,426.458,170.748,431.275Z" transform="translate(-152.766 -378.146)" fill="#f9b938"/>
      <path id="Trazado_874936" data-name="Trazado 874936" d="M172.717,431.745c.22-1.98.065-3.642,1.731-4.712l.025-.007a4,4,0,0,1,.592-.3c.038-.03.075-.058.111-.082a8.474,8.474,0,0,0-2.342.766l-.025.006a3.027,3.027,0,0,0-1.43,2.014c-.106.519-.082.591-.631,5.414h1.64Z" transform="translate(-152.766 -381.711)" fill="#eaa224"/>
      <path id="Trazado_874937" data-name="Trazado 874937" d="M231,402.126a1.033,1.033,0,0,0,.646-.964v-2.716a5.27,5.27,0,0,1-2.112-.442c-.054,1.612.141,2.308-.2,2.46l-.549.137a4.831,4.831,0,0,0,.122,1.469,2.915,2.915,0,0,0,.308.681l1.781-.624Z" transform="translate(-204.693 -356.089)" fill="#e2bf91"/>
      <path id="Trazado_874938" data-name="Trazado 874938" d="M210.515,303.587c-1.189,1.977-3.712,1.673-4.608,1.492a.271.271,0,0,0-.324.266h0c0,3.218-.1,3.925.225,4.994a5.3,5.3,0,0,0,10.37-1.532v-3.462h0a.271.271,0,0,0-.324-.266c-.9.181-3.42.485-4.608-1.492A.426.426,0,0,0,210.515,303.587Z" transform="translate(-183.92 -271.431)" fill="#fce3bb"/>
      <path id="Trazado_874939" data-name="Trazado 874939" d="M208.3,324.106a36.656,36.656,0,0,1-.078-4.6,6.216,6.216,0,0,1-2.309-.042.271.271,0,0,0-.324.266c0,3.267-.1,3.932.225,4.994a5.3,5.3,0,0,0,6.389,3.6A5.3,5.3,0,0,1,208.3,324.106Z" transform="translate(-183.923 -285.818)" fill="#efd0a3"/>
      <path id="Trazado_874940" data-name="Trazado 874940" d="M3.714,53.923H10.9a.79.79,0,0,0,0-1.58H7.651l.783-14.816a.79.79,0,0,0-1.578-.083L6.692,40.56l-4.029-.423c0-.011.744-6.817.879-7.361.733-2.882,3.86-3.008,5.8-3.579l2.429,3.109a1.57,1.57,0,0,0,1.143.6l.092,0a2.062,2.062,0,0,0,1.492-.845v3.823a.79.79,0,1,0,1.58,0V32.063a2.007,2.007,0,0,0,1.585.843c1.041-.062,1.347-.982,1.913-1.585a8.787,8.787,0,0,0-.3,2.816,2.549,2.549,0,0,0-.4,3.076,10.311,10.311,0,0,0-1.434,2.616c-.315.8-.6,1.47-.167,2.212.548.941,1.517.793,2.383,1.055a1.368,1.368,0,0,0,1.035-.194c1.12-.727.326-1.669.68-3.266a6.084,6.084,0,0,0,2.574,2.995h0c.012.007.049.031.17.1v.985c-2.809.7-3.759.856-4.565,1.416a5.347,5.347,0,0,0-.5.4,3.567,3.567,0,0,0-1.035,1.608h0c-.286.927-.2,1.51-.675,5.21H14.586a.79.79,0,1,0,0,1.58h24.9a.79.79,0,0,0,0-1.58H36.692c-.488-4.329-.426-5.059-1.092-6.09-1.123-1.727-2.979-1.868-5.682-2.542v-.974c.12-.065.179-.1.19-.108h0a6.463,6.463,0,0,0,1.359-1.086h0a6.066,6.066,0,0,0,1.216-1.909,6.883,6.883,0,0,1,.046,2.016,1.391,1.391,0,0,0,.894,1.383c.519.2.823.041,2.064-.207a1.655,1.655,0,0,0,1.235-1.1,1.857,1.857,0,0,0-.091-1.3,11.29,11.29,0,0,0-1.652-3.209,2.511,2.511,0,0,0,.032-2.491,9.854,9.854,0,0,0,3.4-2.019c4.147,3.6,7.65,2.888,7.937-3.015.162.075,3.284.444,3.863,3.245.17.823.167,1.352.843,7.2l-4,.419L47.1,37.444a.79.79,0,1,0-1.578.083L46.3,52.343H43.171a.79.79,0,0,0,0,1.58h7.037c2.182,0,3.934-1.581,3.69-4.409,0-.007,0-.013,0-.02-1.891-16.9-1.789-16.179-1.933-16.881a5.693,5.693,0,0,0-4.313-4.28l-5.058-1.259v-.243h4.752A2.062,2.062,0,0,0,49.4,24.8l.591-10.02a.79.79,0,0,0-1.577-.093c-.618,10.491-.594,10.041-.594,10.087a.487.487,0,0,1-.48.48H42.592v-.2a8.4,8.4,0,0,0,.8-.461,8.791,8.791,0,0,0,3.174-3.615c1.158-2.437.771-4.344.847-5.594a1.568,1.568,0,0,0-1.5-1.57h0a12.642,12.642,0,0,1-9.547-4.525,1.351,1.351,0,0,0-2.072-.071,5.652,5.652,0,0,1-3.13,1.816,1.613,1.613,0,0,0-1.311,1.585c0,4.837-.007,4.577.007,4.946V17.55c.009.239.033.54.066.8a8.783,8.783,0,0,0,3.98,6.26,8.383,8.383,0,0,0,.739.425v.22H30.032a.487.487,0,0,1-.48-.48c0-.043-.637-10.826-.64-10.851C28.9,13.838,28.03,5.7,32.6,4.7a.778.778,0,0,0,.53-.405c.08-.15,2.034-3.668,8.256-2.457.031.006.3.094.325.1a9.744,9.744,0,0,1,6.746,9.122.79.79,0,1,0,1.58-.028,11.233,11.233,0,0,0-.293-2.387A11.372,11.372,0,0,0,42.217.44a4.676,4.676,0,0,0-.53-.157c-4.877-.95-8.215.677-9.76,2.953C29.6,3.9,28.069,5.976,27.5,9.272a18.96,18.96,0,0,0-.161,4.8c.74,11.43.486,11,.914,11.73a7.622,7.622,0,0,0-1.491-.093h-.011a7.792,7.792,0,0,0-4.923,2l-.629-.156-1.921-.92v-1.6a8.861,8.861,0,0,0,4.789-7.83c2.161-.471,3.164-2.66,1.99-4.306,0-.018,0-1.773-.01-2.583A10.774,10.774,0,0,0,11.664.626,10.92,10.92,0,0,0,4.7,8.747c-.016.086-.059.321-.065.372a21.591,21.591,0,0,0-.126,3.773C3.338,14.54,4.343,16.729,6.5,17.2a8.76,8.76,0,0,0,4.826,7.849v1.567l-2,.958c-2.323.685-4.118.641-5.906,2.347-.126.122-.253.263-.24.249a5.55,5.55,0,0,0-1.365,3.309L.026,49.493c0,.007,0,.014,0,.02A6.315,6.315,0,0,0,0,50.153,3.6,3.6,0,0,0,3.714,53.923ZM6.56,42.135,6.047,52.343c-1.868-.1-3.013.29-3.851-.559a2.32,2.32,0,0,1-.616-1.646c-.01-.558.023-.39.906-8.431ZM17.679,25.657v1.15l-2.394,2.254-2.375-2.236V25.662A8.809,8.809,0,0,0,17.679,25.657ZM13,31.323,10.877,28.6l1.07-.512,2.206,2.077Zm4.562,0-1.149-1.158,2.219-2.089,1.068.511Zm1.064,9.886a10.685,10.685,0,0,1,1.394-2.894l.1.054a6.189,6.189,0,0,0-.394,3.128C18.7,41.276,18.629,41.3,18.629,41.209Zm2.311-4.2a1.1,1.1,0,0,1,0-2.136ZM27.1,43.466a5.866,5.866,0,0,0,1.236-.141c.033.193-.214,1.525.765,1.81a2.076,2.076,0,0,1-1.674,2.056,2.2,2.2,0,0,1-.5.036,2.028,2.028,0,0,1-.515-.09A2.08,2.08,0,0,1,26,46.961h0l-.013-.008.006,0-.006,0h0a2.1,2.1,0,0,1-.986-1.331,2.646,2.646,0,0,1-.053-.493,1.194,1.194,0,0,0,.744-1.172v-.637A6.092,6.092,0,0,0,27.1,43.466Zm8,8.877H32.986L32.9,50.78a.79.79,0,0,0-.788-.748h-.042a.79.79,0,0,0-.747.83l.078,1.48H22.651l.078-1.48a.79.79,0,1,0-1.578-.083l-.083,1.563H18.932c.573-5.082.418-3.841.524-4.475.406-1.863,2.332-1.879,3.935-2.347a4.045,4.045,0,0,0,.079.488h0a3.78,3.78,0,0,0,.446,1.112h0a3.7,3.7,0,0,0,4.476,1.426l.01,0a3.634,3.634,0,0,0,2.262-3.016,9.894,9.894,0,0,1,2.971.939C34.8,47.357,34.594,47.837,35.1,52.343ZM30.4,40.365a4.451,4.451,0,0,1-.961.821,4.246,4.246,0,0,1-1.11.509,4.52,4.52,0,0,1-2.987-.132l-.01,0A4.484,4.484,0,0,1,22.6,38.214a30.448,30.448,0,0,1-.078-3.692,4.953,4.953,0,0,0,4.507-1.507,4.953,4.953,0,0,0,4.507,1.507,34.345,34.345,0,0,1-.038,3.444A4.437,4.437,0,0,1,30.4,40.365Zm10.608-14.7V27.13a1.384,1.384,0,0,0,.894,1.4l1.022.255a5.585,5.585,0,0,1-8.624,0,10.581,10.581,0,0,0,1.16-.3,1.446,1.446,0,0,0,.759-1.354V25.652A8.812,8.812,0,0,0,41.012,25.661ZM34.322,41.5a6.3,6.3,0,0,0-.394-3.128l.1-.054a10.341,10.341,0,0,1,1.391,2.873C35.424,41.2,35.33,41.28,34.322,41.5ZM34.78,33.2A7.747,7.747,0,0,0,34.4,31.04a7.207,7.207,0,0,0,2.35,1.119A7,7,0,0,1,34.78,33.2Zm-1.665,3.8V34.869A1.1,1.1,0,0,1,33.115,37.005Zm10.531-3.787c-.919.384-2.365-.481-3.172-1.064A7.419,7.419,0,0,0,44.6,29.2l.385.1C44.921,31.5,44.452,32.882,43.646,33.218Zm8.079,18.566c-.838.849-1.976.458-3.841.559l-.54-10.208,4.09-.429c.972,9.028.888,7.486.906,8.466A2.337,2.337,0,0,1,51.725,51.784ZM31.431,17.207v-4.6a.032.032,0,0,1,.024-.033,7.217,7.217,0,0,0,3.83-2.117,14.124,14.124,0,0,0,10.549,4.923,17.886,17.886,0,0,1-.106,3.062,7.157,7.157,0,0,1-1.7,3.528,7.2,7.2,0,0,1-12.6-4.768Zm3.212,9.867-2.446.609a7.78,7.78,0,0,0-1.152-.852h3.6v.243ZM33.2,33.235a3.546,3.546,0,0,0-.406-.077,1.053,1.053,0,0,0-.949-.281c-2.493.5-3.471-.619-3.775-1.125a1.215,1.215,0,0,0-2.084,0c-.3.506-1.281,1.629-3.775,1.125a1.052,1.052,0,0,0-.949.281,3.564,3.564,0,0,0-.406.077,5.768,5.768,0,0,1,.128-1.044A6.177,6.177,0,0,1,33.2,33.235ZM24.067,15.55V13.273A1.169,1.169,0,0,1,24.067,15.55ZM9.185,3.9,9.2,3.888A9.192,9.192,0,0,1,24.45,10.066c.037.5.025.867.027,1.673a3.654,3.654,0,0,0-1.093-.2A2.292,2.292,0,0,1,22.29,9.968c-.126-.61.048-1.352-.757-2.024-1.388-1.158-2.721.486-9.462-.231l-1.5-.2A1.93,1.93,0,0,0,8.345,9.406c0,.045-.006.128-.012.2a2.313,2.313,0,0,1-1.147,1.94,3.656,3.656,0,0,0-1.093.2A9.592,9.592,0,0,1,9.185,3.9ZM6.5,13.273V15.55A1.169,1.169,0,0,1,6.5,13.273ZM8.3,18.957c-.382-1.679-.125-2.04-.214-6.112A3.993,3.993,0,0,0,9.927,9.406c.025-1.011,1.832.8,10.309-.327a.349.349,0,0,1,.407.327,4.027,4.027,0,0,0,1.272,3,3.735,3.735,0,0,0,.572.437,48.741,48.741,0,0,1-.06,5.3,7.209,7.209,0,0,1-9.364,5.915A7.347,7.347,0,0,1,8.3,18.957Z" transform="translate(0 -0.003)"/>
    </g>
  </g>
</svg>
